<svg width="50" height="50" viewBox="0 0 50 50" fill="none" xmlns="http://www.w3.org/2000/svg">
<path d="M25.1066 49.599C38.7471 49.599 49.8048 38.5413 49.8048 24.9008C49.8048 11.2604 38.7471 0.202637 25.1066 0.202637C11.4662 0.202637 0.408447 11.2604 0.408447 24.9008C0.408447 38.5413 11.4662 49.599 25.1066 49.599Z" fill="#627EEA"/>
<path d="M25.8755 6.3772V20.0693L37.4481 25.2404L25.8755 6.3772Z" fill="white" fill-opacity="0.602"/>
<path d="M25.8755 6.3772L14.3013 25.2404L25.8755 20.0693V6.3772Z" fill="white"/>
<path d="M25.8755 34.1133V43.4168L37.4559 27.3954L25.8755 34.1133Z" fill="white" fill-opacity="0.602"/>
<path d="M25.8755 43.4168V34.1118L14.3013 27.3954L25.8755 43.4168Z" fill="white"/>
<path d="M25.8755 31.9599L37.4481 25.2405L25.8755 20.0724V31.9599Z" fill="white" fill-opacity="0.2"/>
<path d="M14.3013 25.2405L25.8755 31.9599V20.0724L14.3013 25.2405Z" fill="white" fill-opacity="0.602"/>
</svg>
