<svg width="24" height="33" viewBox="0 0 24 33" fill="none" xmlns="http://www.w3.org/2000/svg">
<path d="M18.3729 2.90613L18.3728 2.90612L18.3716 2.91464C18.3312 3.18265 18.1487 3.52153 17.7371 3.85671C16.3229 5.00026 15.7302 5.98139 15.5076 6.45357H8.60039C8.37768 5.98141 7.78499 5.0001 6.37037 3.85634L6.3591 3.84723L6.35169 3.83983L6.33767 3.8281C5.95982 3.51203 5.78543 3.19708 5.73427 2.93602C5.68423 2.68069 5.74462 2.44553 5.89833 2.24965C6.21096 1.85126 7.00302 1.53515 8.21146 1.87318L8.21144 1.87325L8.21838 1.87506C8.34618 1.90842 8.47628 1.93983 8.60033 1.95943L8.60033 1.95945L8.60434 1.96004C9.02892 2.02283 9.35862 1.96303 9.64494 1.81065C9.85682 1.69789 10.039 1.53244 10.1861 1.39889C10.2159 1.3718 10.2443 1.34602 10.2712 1.32226C10.4454 1.16843 10.6248 1.02865 10.8832 0.922024C11.1432 0.814743 11.5073 0.731461 12.054 0.731461C12.642 0.731461 13.0193 0.827478 13.2834 0.94677C13.5483 1.06645 13.7258 1.22045 13.9167 1.39308C13.9276 1.40294 13.9387 1.41302 13.95 1.42328C14.1256 1.58279 14.3497 1.78633 14.6573 1.89663C15.0008 2.0198 15.3945 2.01346 15.8964 1.8733L15.8976 1.87295C16.3523 1.74445 16.7532 1.71225 17.0973 1.74032C17.5875 1.7852 17.9342 1.95985 18.1389 2.17084C18.3385 2.37661 18.4203 2.63123 18.3729 2.90613Z" fill="white" stroke="#6B3200" stroke-width="0.823273"/>
<path d="M7.49094 31.0521L7.4883 31.0509C4.9104 29.9192 2.83461 27.8435 1.69727 25.265L1.69715 25.2647C1.07867 23.8653 0.732804 22.3195 0.732804 20.6946C0.732804 17.7726 2.14587 15.168 3.82211 13.064C5.21452 11.3163 6.75657 9.95118 7.76932 9.05463C7.97365 8.87374 8.15644 8.71193 8.3121 8.56989C8.37507 8.51617 8.43449 8.46269 8.48866 8.412H15.6192C15.6733 8.46267 15.7327 8.51615 15.7957 8.5699C15.9514 8.71189 16.1341 8.87364 16.3383 9.05446C17.3511 9.951 18.8933 11.3162 20.2858 13.064C21.9621 15.168 23.3752 17.7726 23.3752 20.6946C23.3752 26.9474 18.3068 32.0157 12.054 32.0157C10.4281 32.0157 8.88298 31.6749 7.49094 31.0521Z" fill="white" stroke="#6B3200" stroke-width="0.823273"/>
<path d="M16.6275 7.52247C16.6275 7.88099 16.3885 8.17428 16.068 8.26126C16.0029 8.28296 15.9323 8.29387 15.8616 8.29387H8.2461C8.17549 8.29387 8.10488 8.28302 8.03966 8.26126C7.71921 8.17435 7.48022 7.88105 7.48022 7.52247C7.48022 7.0988 7.82243 6.75659 8.2461 6.75659H15.8616C16.2852 6.75659 16.6275 7.0988 16.6275 7.52247Z" fill="#542122"/>
<path d="M15.6588 24.1951C15.458 24.5725 15.18 24.8877 14.8306 25.1464C14.4793 25.4032 14.0584 25.5947 13.5684 25.7215C13.3546 25.775 13.1307 25.8123 12.9031 25.8434V27.2678H11.2038V25.8713C10.7195 25.8309 10.2569 25.7557 9.8216 25.6357C9.15568 25.4535 8.28401 24.7173 8.28401 24.7173C8.20938 24.6745 8.16022 24.5979 8.15031 24.5134C8.13908 24.4276 8.16831 24.3412 8.22926 24.2809L9.08105 23.4291C9.17311 23.3371 9.31484 23.3203 9.42615 23.3874C9.42615 23.3874 10.0635 23.9414 10.546 24.072C11.0291 24.2038 11.5084 24.2703 11.9872 24.2703C12.5898 24.2703 13.0884 24.164 13.4838 23.9513C13.8798 23.7355 14.0769 23.4054 14.0769 22.9515C14.0769 22.6264 13.9805 22.3683 13.7847 22.1793C13.5901 21.9909 13.2612 21.8734 12.7961 21.8218L11.2703 21.6906C10.3669 21.6024 9.6699 21.3505 9.18127 20.9377C8.69006 20.523 8.44636 19.8944 8.44636 19.055C8.44636 18.5899 8.54024 18.1758 8.72925 17.8115C8.91832 17.4478 9.17443 17.14 9.50084 16.8894C9.82724 16.6382 10.2078 16.4492 10.6405 16.3255C10.8208 16.272 11.0111 16.2378 11.2038 16.2068V14.9794H12.9031V16.1812C13.3004 16.2203 13.6778 16.2838 14.0297 16.3808C14.6253 16.5425 15.2521 17.033 15.2521 17.033C15.331 17.0746 15.3839 17.1512 15.3975 17.2376C15.4106 17.3259 15.382 17.4129 15.3205 17.4769L14.5215 18.2877C14.4364 18.3742 14.3045 18.3965 14.1957 18.3399C14.1957 18.3399 13.7226 18.0035 13.3141 17.8972C12.9056 17.7903 12.4765 17.7355 12.0239 17.7355C11.4338 17.7355 10.9974 17.8493 10.7157 18.075C10.4328 18.3007 10.2929 18.5967 10.2929 18.9592C10.2929 19.2862 10.3918 19.5374 10.5938 19.7134C10.794 19.8887 11.1322 20.0031 11.611 20.0516L12.9472 20.1666C13.9389 20.2531 14.6894 20.5167 15.1974 20.9556C15.7066 21.3946 15.9602 22.0362 15.9602 22.8757C15.9604 23.3805 15.859 23.8183 15.6588 24.1951Z" fill="#542122"/>
</svg>
