<svg width="36" height="39" viewBox="0 0 36 39" fill="none" xmlns="http://www.w3.org/2000/svg">
<path d="M34.5669 26.5665C34.2585 26.3929 33.9077 26.301 33.5526 26.301C33.2094 26.301 32.8778 26.3872 32.5849 26.5422L31.0747 25.6921L34.2008 24.2069C34.7046 23.9674 34.9139 23.3753 34.6685 22.8843C34.4231 22.3929 33.8155 22.1887 33.3119 22.4283L28.9545 24.4985L27.443 23.6477L30.5689 22.1625C31.0727 21.9232 31.282 21.331 31.0366 20.8399C30.7912 20.3487 30.1836 20.1442 29.6801 20.3839L25.3225 22.454L22.1208 20.6518L22.1203 18.2976L25.2382 16.5425L29.557 18.6927C29.7048 18.7664 29.8624 18.8012 30.0176 18.8012C30.3868 18.8012 30.7426 18.6041 30.9221 18.2616C31.177 17.775 30.9789 17.179 30.48 16.9305L27.3324 15.3635L28.87 14.4978L33.1897 16.648C33.3374 16.7216 33.495 16.7564 33.6502 16.7564C34.0192 16.7564 34.3753 16.5592 34.5545 16.2167C34.8094 15.7301 34.6114 15.1341 34.1122 14.8857L30.9642 13.3189L32.5171 12.4447C32.8311 12.6316 33.1961 12.7366 33.5751 12.7366C33.9301 12.7366 34.2806 12.645 34.5888 12.4714C35.5577 11.926 35.8912 10.7136 35.3319 9.7684C34.9706 9.15821 34.297 8.77925 33.5737 8.77925C33.2187 8.77925 32.8682 8.87093 32.5604 9.04425C32.0907 9.30845 31.7547 9.73516 31.6142 10.2459C31.5723 10.3981 31.5517 10.5523 31.5473 10.706L30.0375 11.5558L30.2813 8.17342C30.3205 7.62839 29.8992 7.15552 29.3402 7.11727C28.7818 7.07769 28.2962 7.48976 28.257 8.03479L27.9173 12.7493L26.4057 13.6001L26.6497 10.2179C26.689 9.67277 26.2677 9.1999 25.7087 9.16164C25.1476 9.12273 24.6646 9.53414 24.6254 10.079L24.2854 14.7935L21.1243 16.5731L19.0373 15.3102V11.8807L23.0617 9.33721C23.5319 9.04003 23.6659 8.4276 23.361 7.96897C23.0563 7.51047 22.4281 7.37975 21.9577 7.67707L19.0373 9.52345V7.79235L23.0617 5.24885C23.5319 4.95167 23.6659 4.33924 23.361 3.88061C23.0563 3.42211 22.4281 3.2914 21.9577 3.58871L19.0373 5.43444V3.68948C19.5784 3.34666 20.0518 2.70904 20.0518 1.97856C20.0518 0.887581 19.1416 0 18.0225 0C16.9034 0 15.9932 0.887581 15.9932 1.97856C15.9932 2.70904 16.3314 3.34666 17.0078 3.68948V5.39341L14.0806 3.46696C13.6161 3.16147 12.9856 3.28058 12.6719 3.73354C12.3585 4.1865 12.4809 4.8013 12.9453 5.10705L17.0078 7.78074V9.48256L14.0806 7.55598C13.6161 7.25049 12.9856 7.3696 12.6719 7.82256C12.3585 8.27551 12.4809 8.89032 12.9453 9.19607L17.0078 11.8698V15.2962L14.8284 16.5472L11.7516 14.8153L11.5045 10.1453C11.4757 9.5997 11.0014 9.18182 10.4387 9.2082C9.87907 9.23643 9.44899 9.70152 9.47781 10.2472L9.65706 13.6362L8.1194 12.7705L7.87224 8.10061C7.84328 7.55505 7.3706 7.13455 6.80672 7.16356C6.24705 7.19179 5.81684 7.65688 5.84565 8.20257L6.02491 11.5916L4.47493 10.719C4.47318 10.0364 4.11142 9.37203 3.46273 9.00679C3.15454 8.8332 2.80402 8.74153 2.44916 8.74153C1.72579 8.74153 1.05193 9.12075 0.690581 9.73107C0.131173 10.6758 0.464382 11.8882 1.4333 12.4335C1.74148 12.6071 2.09201 12.6989 2.44713 12.6989C2.80862 12.6989 3.15766 12.6042 3.46164 12.4333L4.97387 13.2844L1.79925 14.7929C1.29544 15.0322 1.08616 15.6244 1.33157 16.1155C1.5073 16.4671 1.86852 16.6717 2.24448 16.6717C2.3937 16.6717 2.54508 16.6395 2.68808 16.5715L7.09407 14.478L8.60576 15.3289L5.43114 16.8374C4.92733 17.0767 4.71804 17.6689 4.96345 18.16C5.13919 18.5116 5.5004 18.7162 5.87636 18.7162C6.02545 18.7162 6.17697 18.684 6.31996 18.616L10.726 16.5225L13.8121 18.2597L13.8159 20.6874L10.7142 22.4334L6.44267 20.307C5.9436 20.0583 5.33251 20.2516 5.07763 20.7383C4.82275 21.2248 5.02081 21.8207 5.52002 22.0692L8.61983 23.6124L7.08217 24.478L2.81065 22.3518C2.31185 22.1031 1.70049 22.2964 1.44561 22.7831C1.19073 23.2695 1.38879 23.8655 1.888 24.114L4.98794 25.6571L3.43946 26.5288C3.13533 26.3577 2.78616 26.263 2.42454 26.263C2.06969 26.263 1.71929 26.3545 1.41098 26.5281C0.441925 27.0737 0.10858 28.2861 0.668123 29.2311C1.02947 29.8413 1.70306 30.2202 2.4263 30.2202C2.78129 30.2202 3.13182 30.1285 3.43959 29.9552C3.90917 29.6912 4.24508 29.2646 4.38551 28.7538C4.43205 28.5847 4.45302 28.4131 4.45342 28.2425L5.96606 27.391L5.71862 30.8259C5.67939 31.3709 6.10067 31.8438 6.65967 31.8821C6.68388 31.8838 6.70783 31.8844 6.73177 31.8844C7.25966 31.8844 7.70529 31.486 7.7429 30.9644L8.08639 26.1973L9.59821 25.3464L9.35051 28.7811C9.31114 29.3263 9.73242 29.7992 10.2914 29.8374C10.3158 29.8391 10.3397 29.8398 10.3637 29.8398C10.8915 29.8398 11.3372 29.4413 11.3748 28.9199L11.7186 24.1526L14.8207 22.4064L17.0078 23.6052V27.0899L12.9383 29.6616C12.468 29.9589 12.3338 30.5713 12.6386 31.0298C12.9436 31.4885 13.5721 31.6189 14.042 31.322L17.0077 29.4477V31.1789L12.9382 33.751C12.4679 34.0482 12.3337 34.6606 12.6386 35.1193C12.9434 35.5778 13.5718 35.7085 14.042 35.4112L17.0076 33.5367V35.2836C16.3311 35.6196 15.9481 36.2722 15.9476 37.021C15.9476 38.1122 16.8581 38.9999 17.9772 38.9999C19.096 38.9999 20.0063 38.1123 20.0063 37.0218C20.0066 36.4932 19.7955 35.9962 19.412 35.6222C19.2977 35.5106 19.172 35.416 19.0367 35.3356V33.6359L21.9188 35.5326C22.093 35.6473 22.2902 35.7021 22.4856 35.7021C22.8113 35.7021 23.1315 35.5494 23.3274 35.2662C23.641 34.8132 23.5186 34.1984 23.0542 33.8928L19.0367 31.2487V29.5469L21.9188 31.4438C22.093 31.5584 22.2901 31.6133 22.4856 31.6133C22.8113 31.6133 23.1315 31.4605 23.3274 31.1773C23.641 30.7244 23.5186 30.1096 23.0542 29.8039L19.0367 27.1597V23.5798L21.1304 22.3791L24.2452 24.1325L24.4948 28.8544C24.5228 29.3828 24.9708 29.7927 25.5072 29.7927C25.5249 29.7927 25.5426 29.7923 25.5603 29.7914C26.12 29.7633 26.5502 29.2982 26.5214 28.7525L26.3396 25.3113L27.8771 26.1767L28.1271 30.8991C28.1551 31.4274 28.6031 31.8374 29.1395 31.8374C29.1572 31.8374 29.1749 31.837 29.1928 31.836C29.7524 31.8078 30.1825 31.3427 30.1538 30.797L29.9716 27.3557L31.5232 28.229C31.5063 28.9295 31.8717 29.6181 32.5366 29.9926C32.8448 30.166 33.1953 30.2578 33.5503 30.2578C34.2736 30.2578 34.9474 29.8787 35.309 29.2684C35.58 28.8107 35.652 28.2775 35.5116 27.7669C35.3717 27.2571 35.0359 26.8306 34.5669 26.5665Z" fill="#F35034"/>
</svg>
