<svg width="50" height="50" viewBox="0 0 50 50" fill="none" xmlns="http://www.w3.org/2000/svg">
<circle cx="25.1149" cy="24.9008" r="24.6982" fill="#26A17B"/>
<path fill-rule="evenodd" clip-rule="evenodd" d="M28.2365 25.6685V25.6654C28.0667 25.6778 27.1915 25.7302 25.2388 25.7302C23.6797 25.7302 22.5822 25.6839 22.1963 25.6654V25.67C16.1946 25.4061 11.715 24.361 11.715 23.1107C11.715 21.8619 16.1946 20.8168 22.1963 20.5483V24.6296C22.5884 24.6574 23.7121 24.7238 25.265 24.7238C27.1282 24.7238 28.0621 24.6466 28.2365 24.6312V20.5513C34.2258 20.8184 38.6947 21.8634 38.6947 23.1107C38.6947 24.361 34.2258 25.403 28.2365 25.6685ZM28.2365 20.1268V16.4746H36.5938V10.9052H13.839V16.4746H22.1963V20.1253C15.4043 20.4371 10.2964 21.7832 10.2964 23.3947C10.2964 25.0063 15.4043 26.3508 22.1963 26.6641V38.368H28.2365V26.6611C35.0177 26.3492 40.1133 25.0047 40.1133 23.3947C40.1133 21.7847 35.0177 20.4402 28.2365 20.1268Z" fill="white"/>
</svg>
