<svg width="411" height="354" viewBox="0 0 411 354" fill="none" xmlns="http://www.w3.org/2000/svg">
<g clip-path="url(#clip0_47_7931)">
<path d="M330.864 125.652C337.222 113.531 340.848 99.1779 346.184 86.447L354.191 98.9489L341.277 140.755C337.573 135.378 334.574 131.019 330.872 125.651L330.864 125.652Z" fill="#FBC479"/>
<path opacity="0.4" d="M343.006 135.135L354.185 98.9584L351.051 94.0548L341.477 125.053C339.255 121.828 337.277 118.961 335.261 116.028C334.596 117.666 333.911 119.284 333.188 120.876C336.627 125.873 339.529 130.072 343.014 135.133L343.006 135.135Z" fill="#A03610"/>
<path d="M355.232 98.2805L347.225 85.7786C346.974 85.3883 346.529 85.168 346.072 85.2116C345.619 85.2709 345.208 85.542 345.033 85.9695C342.919 91.0138 341.036 96.3951 339.223 101.599C336.444 109.572 333.571 117.808 329.759 125.076C329.548 125.486 329.574 125.979 329.839 126.358L340.244 141.462C340.512 141.857 340.987 142.063 341.453 141.985C341.469 141.982 341.492 141.977 341.516 141.972C341.963 141.882 342.322 141.556 342.454 141.121L355.368 99.3149C355.477 98.966 355.425 98.5846 355.223 98.2742L355.232 98.2805ZM345.159 123.956L339.049 118.634C338.562 118.21 337.838 118.226 337.373 118.672C336.908 119.117 336.85 119.84 337.246 120.34L343.568 128.437C343.612 128.493 343.681 128.512 343.731 128.559L340.836 137.936L332.307 125.556C336.031 118.298 338.846 110.22 341.576 102.404C343.117 97.9992 344.696 93.4556 346.425 89.1268L352.821 99.1205L345.155 123.932L345.159 123.956Z" fill="#5B2D00"/>
<path d="M346.5 80.3868L357.792 52.7078L367.008 74.8414L356.419 94.2985L346.5 80.3868Z" fill="#FBC479"/>
<path opacity="0.4" d="M357.467 53.1986L354.884 59.5222L360.907 73.9621L352.395 89.5998L356.101 94.7877L366.683 75.3322L357.467 53.1986Z" fill="#A03610"/>
<path d="M358.937 52.2307C358.745 51.7632 358.284 51.4645 357.786 51.4674C357.28 51.4718 356.827 51.776 356.635 52.2397L345.343 79.9187C345.179 80.3195 345.237 80.7653 345.48 81.1164L355.406 95.0265C355.657 95.376 356.064 95.5713 356.492 95.5498C356.549 95.5465 356.604 95.5353 356.667 95.5226C357.028 95.4495 357.333 95.2241 357.513 94.9018L368.103 75.4447C368.281 75.1145 368.307 74.7172 368.163 74.3705L358.939 52.2385L358.937 52.2307ZM356.279 91.9577L347.905 80.2246L353.464 66.5824L357.196 71.61C357.489 72.0081 357.982 72.1858 358.445 72.092C358.547 72.0713 358.646 72.035 358.743 71.9908C359.278 71.7271 359.554 71.1156 359.397 70.5429L356.828 61.2931C356.709 60.8679 356.36 60.5956 355.953 60.482L357.787 55.9849L365.615 74.7806L356.263 91.9608L356.279 91.9577Z" fill="#5B2D00"/>
<path d="M138.723 117.074C136.673 102.001 134.632 86.9333 132.582 71.8599C138.883 73.6871 143.138 76.6642 146.978 80.4527L151.952 111.043L138.723 117.074Z" fill="#FBC479"/>
<path opacity="0.4" d="M143.566 101.265C142.324 92.1549 141.09 83.043 139.857 73.939C137.922 72.8935 135.779 71.9961 133.315 71.2864C135.365 86.3599 137.406 101.427 139.457 116.501L152.686 110.47L150.664 98.0375L143.567 101.273L143.566 101.265Z" fill="#A03610"/>
<path d="M138.969 118.29C138.687 118.348 138.384 118.303 138.118 118.161C137.777 117.968 137.537 117.633 137.489 117.234L131.348 72.0201C131.289 71.6073 131.448 71.1829 131.767 70.9057C132.087 70.6285 132.517 70.5332 132.926 70.6546C138.697 72.3278 143.305 75.0701 147.85 79.557C148.036 79.7481 148.165 79.9833 148.202 80.2454L153.176 110.836C153.264 111.39 152.975 111.939 152.465 112.165L139.236 118.195C139.147 118.238 139.062 118.263 138.968 118.283L138.969 118.29ZM134.078 73.6398L139.733 115.244L150.568 110.303L145.809 81.0571C142.118 77.4755 138.508 75.1845 134.078 73.6398Z" fill="#5B2D00"/>
<path d="M175.405 258.198C175.154 258.249 174.887 258.222 174.645 258.116C149.431 246.814 124.365 235.032 100.123 223.648C75.8892 212.262 50.8345 200.495 25.638 189.198C25.2969 189.046 25.0418 188.755 24.9435 188.391C24.8468 188.035 24.9149 187.645 25.1245 187.349C35.5409 172.559 45.263 160.108 58.8644 147.368C58.9537 147.285 59.054 147.215 59.1654 147.16L75.9815 138.875C75.9815 138.875 67.8594 140.962 67.8359 140.967C67.3023 141.075 66.7615 140.825 66.5011 140.347C66.2282 139.847 66.324 139.231 66.7422 138.836C81.4197 125.077 94.5407 110.532 107.226 96.4581C114.77 88.0914 122.574 79.4352 130.684 70.9619C130.867 70.7777 131.095 70.6499 131.338 70.6006C131.55 70.5576 131.773 70.5696 131.983 70.6413C132.441 70.8019 132.767 71.2014 132.825 71.6881C133.547 78.3549 134.548 85.2676 135.504 91.9605C136.388 98.137 137.312 104.51 138.014 110.715C192.778 89.7797 254.315 72.316 320.96 58.8087C332.62 56.4453 344.539 54.1849 356.385 52.0943C356.818 52.0147 357.268 52.1769 357.55 52.52C357.84 52.8616 357.918 53.3277 357.765 53.7426L347.479 81.9529C347.339 82.3489 347.005 82.6372 346.592 82.7371C345.009 83.1071 343.421 83.5351 341.78 84.023C342.909 84.031 344.085 84.1112 345.319 84.2776C345.739 84.3315 346.094 84.5944 346.278 84.9739C346.461 85.3534 346.437 85.7995 346.216 86.1627C341.694 93.5575 339.589 100.626 337.552 107.46C336.516 110.937 335.441 114.538 334.067 118.157C333.95 118.467 333.713 118.711 333.415 118.853L329.852 120.457L332.609 120.275C333.036 120.245 333.451 120.439 333.701 120.788L376.351 179.745C376.623 180.123 376.665 180.613 376.456 181.031C376.281 181.377 375.963 181.621 375.586 181.697C375.516 181.712 375.445 181.726 375.364 181.726C321.166 182.924 273.866 188.328 217.187 199.816C198.849 203.532 180.523 207.671 163.397 211.608L176.339 256.637C176.473 257.1 176.322 257.604 175.954 257.924C175.786 258.064 175.593 258.16 175.382 258.203L175.405 258.198Z" fill="#FBC479"/>
<g opacity="0.15">
<path d="M169.38 232.338C158.373 234.381 147.557 237.407 136.953 240.871C139.912 242.248 142.9 243.612 145.875 244.986C154.026 241.953 162.229 238.975 170.449 236.043L169.388 232.337L169.38 232.338Z" fill="#9B5E07"/>
<path d="M165.873 254.134C168.732 255.425 171.579 256.735 174.445 258.017C174.977 257.942 175.511 257.875 176.051 257.798C176.337 257.478 176.479 257.049 176.36 256.624L175.635 254.092C172.384 254.056 169.128 254.071 165.881 254.133L165.873 254.134Z" fill="#9B5E07"/>
<path d="M161.867 220.022C163.106 219.722 164.326 219.377 165.563 219.069L164.863 216.621C163.67 216.863 162.485 217.103 161.291 217.337C143.431 220.957 125.523 224.3 107.5 227.112C108.484 227.574 109.477 228.043 110.469 228.503C115.799 227.954 121.123 227.3 126.432 226.567C138.314 224.812 150.167 222.753 161.869 220.03L161.867 220.022Z" fill="#9B5E07"/>
<path fill-rule="evenodd" clip-rule="evenodd" d="M133.822 79.7125C133.513 77.3815 133.22 75.0473 132.958 72.7476C131.062 73.3523 129.17 73.9727 127.28 74.601C123.744 78.3566 120.247 82.1043 116.818 85.8628L129.086 81.4566C129.844 81.1735 130.601 80.8945 131.357 80.6158L131.358 80.6156C132.177 80.3136 132.995 80.012 133.812 79.7062L133.822 79.7125ZM269.262 116.732L269.262 116.732L269.257 116.733C266.434 117.661 263.614 118.588 260.791 119.505C257.71 120.515 254.627 121.521 251.544 122.527L251.536 122.53L251.528 122.532L251.52 122.535L251.512 122.538L251.505 122.54L251.497 122.543L251.489 122.545L251.481 122.548L251.473 122.55C240.417 126.158 229.358 129.767 218.345 133.581C204.193 138.361 190.342 144.068 176.825 150.492C163.256 156.821 150.066 164.012 137.368 171.977C124.662 179.944 112.657 189.035 101.231 198.72C94.9793 204.112 88.9926 209.802 83.275 215.732C83.6898 215.926 84.1018 216.12 84.5126 216.313C85.139 216.607 85.7628 216.9 86.3894 217.192C92.2994 212.212 98.304 207.376 104.507 202.794C116.434 194.086 128.46 185.546 141.125 177.98C166.117 162.311 192.546 148.973 219.676 136.963C233.27 131.038 247.172 125.704 261.429 121.565C275.603 117.467 290.082 114.516 304.5 111.578L304.79 111.518C316.005 109.09 327.235 106.741 338.48 104.462C339.084 102.485 339.726 100.492 340.452 98.4739C328.029 100.461 315.676 102.915 303.512 106.141C291.962 109.273 280.602 113.006 269.262 116.732ZM326.667 150.937C316.654 157.436 306.399 163.55 295.888 169.209C285.308 174.727 274.67 180.159 263.722 184.952C254.912 188.804 246.026 192.484 237.053 195.977C241.479 195.162 245.857 194.389 250.2 193.648C266.423 187.598 282.294 180.534 297.519 172.22C308.149 166.544 318.282 159.989 328.139 153.082C334.5 148.508 340.603 143.595 346.497 138.455L345.736 137.4C339.509 142.11 333.176 146.653 326.667 150.937ZM136.382 152.521C127.647 158.278 119.146 164.421 111.148 171.189L111.149 171.196L110.248 171.989C102.689 178.636 95.0958 185.314 88.3192 192.816C82.7848 198.521 77.6218 204.567 72.5659 210.738C72.4173 210.67 72.2707 210.602 72.1241 210.533C71.9775 210.465 71.8309 210.397 71.6824 210.329C73.2514 208.034 74.8393 205.751 76.5121 203.525C77.5786 202.2 78.6223 200.854 79.6665 199.507C81.8682 196.668 84.0725 193.825 86.4983 191.167L91.7777 185.212L97.3389 179.518C100.389 176.267 103.72 173.299 107.05 170.333C107.688 169.764 108.326 169.196 108.962 168.625C117.05 161.733 125.545 155.281 134.602 149.704C139.075 146.943 143.615 144.316 148.293 141.922C140.981 143.935 133.712 146.119 126.588 148.739C123.838 149.624 121.146 150.699 118.461 151.771C118.136 151.901 117.811 152.031 117.487 152.16C116.457 152.576 115.423 152.981 114.39 153.386C112.406 154.164 110.423 154.941 108.469 155.793C102.531 158.418 96.6099 161.048 90.7665 163.858C87.6284 165.36 84.4874 166.854 81.3469 168.348C72.7871 172.419 64.2311 176.488 55.747 180.718C48.1099 184.553 40.5313 188.516 32.9574 192.501C32.4449 192.27 31.923 192.033 31.4011 191.796C38.9747 187.083 46.6712 182.574 54.5476 178.388C66.0274 172.27 77.747 166.57 89.7983 161.661C100.517 157.23 111.398 153.215 122.266 149.205C123.588 148.717 124.909 148.229 126.231 147.741C138.382 143.244 150.682 139.117 163.141 135.416L163.157 135.413C163.187 135.398 163.218 135.392 163.25 135.386C163.92 135.184 164.618 135.566 164.819 136.236C165.004 136.868 164.679 137.522 164.083 137.765L163.97 137.813C154.386 141.675 145.164 146.877 136.382 152.521ZM132.704 109.586C123.161 114.983 113.003 119.395 102.463 122.454L102.471 122.453C94.4471 124.822 86.2616 126.637 77.9975 127.862C78.7289 127.121 79.4408 126.378 80.1534 125.634L80.1537 125.634L80.1541 125.633L80.1545 125.633L80.1549 125.633L80.1553 125.632L80.1557 125.632C80.5914 125.177 81.0272 124.722 81.4679 124.267C88.2336 122.904 94.9279 121.269 101.516 119.272C111.892 116.336 121.843 112.105 131.497 107.339L137.222 104.307C137.272 104.714 137.323 105.118 137.374 105.522C137.425 105.927 137.477 106.331 137.527 106.737C135.946 107.728 134.344 108.689 132.704 109.586ZM130.416 103.661C132.593 103.032 134.736 102.32 136.871 101.568C136.721 100.463 136.565 99.3755 136.409 98.2799C134.11 99.0724 131.804 99.8258 129.463 100.488C119.149 103.608 108.584 105.896 97.9027 107.571C97.764 107.591 97.6248 107.609 97.4856 107.627L97.4852 107.627C97.3459 107.645 97.2066 107.663 97.0677 107.683C96.5486 108.255 96.0158 108.827 95.4845 109.397L95.4843 109.398L95.4842 109.398L95.484 109.398L95.4839 109.398L95.4837 109.398C95.1883 109.715 94.8934 110.032 94.6014 110.348C95.0956 110.308 95.5903 110.277 96.0854 110.247C96.7981 110.203 97.5115 110.159 98.2248 110.087C109.122 108.998 119.901 106.756 130.424 103.659L130.416 103.661ZM135.66 93.0153C135.71 93.3708 135.76 93.7263 135.811 94.0795L135.801 94.0733C135.298 94.1018 134.795 94.1338 134.292 94.1658C133.287 94.2298 132.281 94.2938 131.27 94.3299C128.039 94.4401 124.801 94.4764 121.562 94.5126L121.562 94.5126C117.269 94.5607 112.974 94.6088 108.693 94.8292C109.209 94.2541 109.733 93.6774 110.258 93.1006C110.607 92.716 110.957 92.3315 111.304 91.9474C113.501 91.5958 115.694 91.2198 117.888 90.8438C122.196 90.1053 126.504 89.367 130.831 88.8148C131.87 88.6838 132.915 88.5792 133.96 88.4747C134.308 88.4398 134.656 88.405 135.005 88.3691C135.059 88.7547 135.113 89.1421 135.167 89.5299L135.168 89.5367C135.28 90.3446 135.393 91.1539 135.51 91.9511C135.561 92.3042 135.611 92.6598 135.66 93.0153ZM270.183 93.2485C261.613 95.0096 253.143 97.2306 244.686 99.4481C238.886 100.969 233.093 102.488 227.279 103.856C212.992 107.291 198.623 110.276 184.182 113.269C169.736 116.237 155.431 119.986 141.385 124.565C127.302 129.045 113.433 134.298 99.9011 140.325C86.4636 146.578 73.3736 153.618 60.859 161.562C48.3965 169.602 36.5724 178.616 25.7276 188.632L26.3295 189.425C39.0779 182.03 51.8162 174.987 64.755 168.37C77.8105 161.966 90.8712 155.708 104.221 150.029C117.543 144.298 130.902 138.625 144.499 133.443C145.906 132.922 147.312 132.399 148.719 131.876L148.719 131.876C154.131 129.864 159.55 127.85 165.008 125.921L166.963 125.207C173.166 122.943 179.377 120.676 185.637 118.513C199.466 113.749 213.584 109.768 227.957 107.002C238.402 104.963 249.007 103.844 259.584 102.728L259.585 102.728C263.562 102.308 267.536 101.889 271.496 101.421C283.228 100.009 294.89 98.2518 306.568 96.4924L306.572 96.4918L306.576 96.4913L306.579 96.4908C309.329 96.0764 312.08 95.662 314.834 95.2518C324.44 93.7951 334.06 92.3273 343.691 90.792C344.351 89.4572 345.077 88.1175 345.88 86.7619C335.233 86.469 324.598 86.8763 313.99 87.5804C299.297 88.6467 284.629 90.3206 270.18 93.2328L270.183 93.2485ZM301.943 77.6893C306.256 76.9475 310.571 76.2055 314.906 75.6554L314.895 75.6413C323.516 74.5639 332.193 74.1286 340.873 73.9053C344.063 73.8468 347.252 73.8213 350.441 73.8367L348.887 78.0975C346.331 78.4276 343.773 78.7419 341.219 79.039C332.605 79.9923 323.989 80.8482 315.336 81.1641C312.083 81.2735 308.821 81.3027 305.557 81.3319C300.142 81.3804 294.722 81.4289 289.332 81.8434C280.705 82.489 272.107 83.8804 263.779 85.9603C262.824 86.203 261.855 85.6151 261.612 84.6595C261.408 83.8514 261.803 83.0197 262.512 82.6473L262.719 82.54C270.474 78.4438 278.339 74.644 286.406 71.2771C294.437 67.8523 302.51 64.4759 310.779 61.6236C312.7 60.9811 314.623 60.3543 316.55 59.7433C317.29 59.5932 318.021 59.4349 318.753 59.2764C319.486 59.1175 320.221 58.9584 320.967 58.8071C332.628 56.4437 344.546 54.1834 356.393 52.0927C356.693 52.0402 356.98 52.1289 357.232 52.2821C342.397 57.4455 327.796 62.8312 313.169 68.2955L288.709 77.0763C285.187 78.4028 281.639 79.6775 278.087 80.9365C281.773 80.5816 285.452 80.1953 289.119 79.7054C293.405 79.1577 297.674 78.4236 301.943 77.6893ZM281.488 133.952C292.678 130.197 303.953 126.654 315.464 124.199C321.219 123.008 327.025 121.986 332.881 121.657C333.199 121.642 333.519 121.633 333.838 121.625C333.998 121.62 334.158 121.616 334.317 121.611L333.715 120.777C333.465 120.428 333.05 120.234 332.623 120.264L329.866 120.446L330.794 120.03C325.481 120.175 320.194 120.732 314.977 121.634C303.201 123.71 291.67 126.873 280.394 130.694C269.072 134.402 258.01 138.792 247.057 143.398C236.102 147.995 225.306 152.969 214.64 158.186C210.604 160.137 206.577 162.109 202.551 164.081C195.92 167.329 189.289 170.577 182.613 173.729C177.96 175.986 173.277 178.183 168.592 180.38L168.59 180.381C162.529 183.223 156.466 186.067 150.466 189.043C131.176 198.785 112.282 209.314 93.9166 220.715C94.0707 220.79 94.2264 220.863 94.382 220.935C94.5377 221.008 94.6933 221.081 94.8473 221.156C113.897 211.396 132.859 201.524 151.729 191.483C154.336 190.074 156.938 188.653 159.541 187.231L159.542 187.23L159.543 187.23C167.345 182.968 175.15 178.705 183.117 174.763C193.686 169.393 204.494 164.515 215.392 159.839C237.207 150.582 259.138 141.619 281.477 133.938L281.488 133.952ZM304.277 157.273C298.532 159.401 292.751 161.471 286.88 163.217L286.886 163.207C275.201 166.899 263.281 169.797 251.294 172.202C239.304 174.632 227.235 176.596 215.057 177.896L215.01 177.906C214.515 177.965 214.075 177.605 214.025 177.117C213.989 176.781 214.147 176.471 214.404 176.288C224.42 169.275 235.112 163.465 245.975 158.011C256.967 152.834 268.122 147.935 279.596 143.845C291.11 139.869 302.894 136.746 314.748 134.049C320.682 132.691 326.662 131.602 332.652 130.567C335.079 130.124 337.532 129.774 339.979 129.434L340.784 130.545C332.315 132.408 323.721 134.346 315.34 136.527C303.609 139.468 292.004 142.874 280.47 146.462C268.968 150.133 257.473 153.998 246.474 159.062C236.681 163.629 227.332 169.134 218.618 175.475C229.344 173.661 240.024 171.496 250.644 169.156C262.512 166.53 274.253 163.391 285.881 159.939C297.477 156.412 308.986 152.495 319.977 147.433C328.131 143.729 336.189 139.474 343.432 134.215L344.054 135.07C337.129 141.048 329.16 145.62 321.098 149.779C316.821 152.024 312.374 153.881 307.928 155.738C306.71 156.247 305.491 156.756 304.277 157.273Z" fill="#B44E00"/>
</g>
<path d="M346.605 81.7133L356.891 53.5031C357.044 53.0882 356.964 52.6142 356.676 52.2804C356.394 51.9373 355.945 51.7752 355.512 51.8548C352.617 52.3678 349.722 52.9139 346.823 53.4442L314.911 118.649L351.342 168.851C315.907 156.974 135.73 195.616 135.73 195.616C144.061 205.364 154.799 235.367 154.799 235.367C121.194 218.781 48.0959 191.255 26.906 183.361C26.0204 184.594 25.1348 185.828 24.2399 187.096C24.024 187.401 23.9622 187.781 24.0589 188.137C24.1556 188.493 24.4123 188.793 24.7534 188.944C49.9499 200.241 75.0047 212.008 99.2388 223.394C123.481 234.779 148.545 246.552 173.76 257.862C174.002 257.968 174.269 257.996 174.521 257.945C174.725 257.903 174.925 257.806 175.093 257.665C175.461 257.346 175.606 256.851 175.477 256.378L162.536 211.35C179.67 207.411 197.988 203.274 216.326 199.557C273.005 188.07 320.311 182.656 374.502 181.468C374.576 181.469 374.647 181.455 374.725 181.439C375.094 181.364 375.42 181.119 375.595 180.773C375.804 180.354 375.762 179.865 375.49 179.487L332.84 120.53C332.59 120.18 332.175 119.987 331.748 120.016L328.991 120.199L332.554 118.595C332.854 118.46 333.089 118.208 333.206 117.899C334.587 114.278 335.655 110.679 336.691 107.201C338.728 100.367 340.833 93.2991 345.355 85.9043C345.577 85.5489 345.6 85.095 345.416 84.7155C345.233 84.336 344.878 84.0731 344.458 84.0192C343.224 83.8528 342.04 83.7742 340.919 83.7645C342.56 83.2767 344.148 82.8486 345.731 82.4787C346.136 82.3803 346.468 82.0843 346.618 81.6945L346.605 81.7133Z" fill="#E98C45"/>
<path d="M176.223 256.995L163.661 212.347C169.582 215.64 175.546 218.344 181.466 221.638L187.809 246.886L176.222 256.987L176.223 256.995Z" fill="#FBC479"/>
<path opacity="0.4" d="M175.625 228.328L181.481 251.657L187.32 246.569L180.977 221.32C175.057 218.027 169.092 215.323 163.172 212.03L166.41 223.529C169.485 225.079 172.56 226.629 175.627 228.336L175.625 228.328Z" fill="#A03610"/>
<path d="M182.679 221.335C182.595 221 182.375 220.718 182.079 220.55C179.106 218.897 176.121 217.395 173.144 215.882C170.186 214.39 167.229 212.898 164.282 211.257C163.84 211.012 163.302 211.056 162.908 211.372C162.513 211.681 162.35 212.204 162.48 212.685L175.04 257.325C175.156 257.734 175.475 258.062 175.884 258.183C176.084 258.241 176.289 258.248 176.485 258.208C176.69 258.167 176.89 258.069 177.058 257.929L188.645 247.828C188.999 247.519 189.147 247.04 189.031 246.589L182.689 221.341L182.679 221.335ZM176.89 254.761L175.866 251.12L182.533 244.353C182.96 243.923 183.01 243.243 182.657 242.751C182.304 242.259 181.649 242.089 181.099 242.356L174.326 245.657L165.654 214.843C167.769 215.967 169.888 217.032 172.009 218.105C174.803 219.516 177.605 220.925 180.391 222.46L186.412 246.442L176.888 254.753L176.89 254.761Z" fill="#5B2D00"/>
<path d="M376.889 182.201C336.265 182.372 298.224 185.409 253.801 193.563C222.784 199.253 192.362 204.095 164.541 211.768L182.275 220.992C204.297 215.336 229.231 209.416 258.613 205.855C296.217 201.142 332.452 198.666 368.754 200.589L376.891 182.209L376.889 182.201Z" fill="#FBC479"/>
<path opacity="0.4" d="M367.129 182.333L360.769 196.701C324.467 194.779 288.233 197.262 250.628 201.967C221.396 205.506 196.569 211.388 174.632 217.018L182.275 220.992C204.297 215.336 229.231 209.416 258.613 205.855C296.217 201.142 332.452 198.666 368.754 200.589L376.891 182.209C373.617 182.219 370.372 182.289 367.131 182.341L367.129 182.333Z" fill="#A03610"/>
<path d="M369.001 201.805C368.899 201.826 368.786 201.833 368.679 201.83C336.087 200.111 301.158 201.782 258.765 207.09C229.876 210.584 205.078 216.411 182.584 222.195C182.285 222.289 181.963 222.232 181.681 222.093L163.947 212.869C163.489 212.627 163.228 212.141 163.287 211.63C163.34 211.122 163.712 210.703 164.206 210.562C186.968 204.282 211.059 199.971 236.561 195.399C242.204 194.386 247.881 193.374 253.575 192.326C295.471 184.644 333.497 181.128 376.889 180.951C377.313 180.947 377.708 181.161 377.943 181.514C378.178 181.867 378.218 182.308 378.043 182.695L369.907 201.074C369.738 201.452 369.4 201.716 368.999 201.798L369.001 201.805ZM220.225 210.85C232.191 208.424 244.875 206.27 258.468 204.618C300.629 199.332 335.455 197.641 367.953 199.297L374.963 183.458C332.53 183.733 295.14 187.243 254.024 194.784C248.323 195.833 242.646 196.845 236.994 197.86C212.698 202.212 189.694 206.327 167.948 212.132L182.43 219.661C194.296 216.619 206.805 213.561 220.223 210.842L220.225 210.85Z" fill="#A64D1A"/>
<path d="M131.592 71.8153C133.051 85.1788 135.51 99.083 136.968 112.446C196.016 89.7525 259.451 72.5415 321.23 60.0202C333.102 57.6139 344.912 55.3837 356.616 53.3138C353.187 62.7173 349.759 72.1207 346.33 81.5241C340.591 82.8751 335.138 84.8299 329.206 87.2822C330.982 86.8568 332.746 86.4094 334.559 86.042C337.839 85.3773 341.264 84.9853 345.178 85.5154C338.272 96.8246 337.014 106.981 332.924 117.719C329.63 119.204 326.345 120.686 323.051 122.171C326.274 121.951 329.499 121.738 332.714 121.519C346.933 141.169 361.145 160.827 375.364 180.476C313.496 181.84 264.737 188.912 216.98 198.591C198.689 202.299 180.548 206.384 161.862 210.686C166.297 226.117 170.732 241.549 175.165 256.973C124.747 234.375 76.5621 210.663 26.1503 188.056C36.1678 173.837 45.9991 161.119 59.7242 148.264C68.9266 143.728 78.1384 139.197 87.3423 134.669C80.3077 136.478 74.6382 137.93 67.6036 139.739C91.0219 117.797 109.809 94.5704 131.592 71.8153ZM131.098 69.3749L131.074 69.3797C130.556 69.4847 130.121 69.7527 129.785 70.1147C121.675 78.5881 113.871 87.2443 106.328 95.611C93.6546 109.666 80.5556 124.199 65.9126 137.925C65.0823 138.706 64.8846 139.947 65.4288 140.94C65.716 141.47 66.177 141.85 66.7099 142.061L58.6351 146.034C58.4124 146.144 58.2117 146.283 58.0332 146.45C44.3488 159.264 34.5812 171.774 24.1273 186.62C23.6955 187.23 23.564 187.992 23.759 188.713C23.9539 189.433 24.4658 190.023 25.1402 190.328C50.3272 201.619 75.3741 213.388 99.6067 224.766C123.85 236.158 148.922 247.93 174.155 259.244C174.641 259.464 175.165 259.513 175.667 259.412C176.083 259.327 176.471 259.143 176.804 258.854C177.533 258.217 177.837 257.216 177.566 256.282L164.987 212.519C181.747 208.673 199.606 204.645 217.481 201.022C274.074 189.552 321.309 184.153 375.425 182.956C375.571 182.951 375.723 182.936 375.864 182.907C376.61 182.756 377.256 182.274 377.596 181.576C378.009 180.749 377.923 179.762 377.385 179.005L359.033 153.633L334.736 120.048C334.644 119.919 334.539 119.802 334.427 119.694C334.795 119.415 335.085 119.029 335.258 118.594C336.656 114.929 337.728 111.313 338.774 107.808C340.879 100.74 342.875 94.0617 347.309 86.7991C347.744 86.0819 347.792 85.1899 347.434 84.4293C347.336 84.2285 347.217 84.0483 347.079 83.8885C347.816 83.6573 348.405 83.0968 348.673 82.3644L353.982 67.809L358.96 54.1542C359.264 53.3165 359.099 52.3857 358.528 51.701C357.956 51.0163 357.065 50.6904 356.191 50.8513C344.336 52.9435 332.41 55.2054 320.741 57.5704C254.631 70.9695 193.539 88.2531 139.088 108.961C138.405 103.251 137.567 97.4243 136.755 91.7642C135.807 85.1513 134.822 78.3171 134.1 71.7319C134.096 71.5938 134.083 71.4493 134.053 71.3002C133.78 69.9506 132.476 69.0793 131.126 69.3529L131.11 69.356L131.098 69.3749Z" fill="#562D06"/>
<path fill-rule="evenodd" clip-rule="evenodd" d="M152.097 110.28C148.85 111.471 147.103 112.111 147.545 111.912L147.537 111.914C148.942 111.283 151.087 110.519 153.781 109.662C153.183 109.882 152.62 110.088 152.097 110.28ZM153.781 109.662C174.163 103.18 225.948 91.365 225.948 91.365C217.89 91.3072 220.569 87.7987 220.569 87.7987C205.154 90.923 168.521 104.26 153.781 109.662ZM88.7484 128.91C88.5096 128.874 88.5861 128.871 88.9731 128.852C91.2495 128.741 104.268 128.109 127.054 117.34C127.054 117.34 110.165 132.2 88.7484 128.91ZM58.8742 159.105C58.8742 159.105 109.789 128.851 165.43 113.464C136.179 120.942 91.1221 135.365 58.8742 159.105ZM165.43 113.464C175.167 110.771 185.05 108.534 194.829 106.993C194.829 106.993 182.972 108.98 165.43 113.464ZM58.9005 184.064L58.8569 184.091L58.8631 184.081L58.9005 184.064ZM58.9005 184.064C60.0329 183.388 83.095 169.696 115.518 156.513C115.518 156.513 84.4024 178.488 75.328 194.297C75.328 194.297 85.4573 175.309 102.354 164.679L58.9005 184.064ZM103.233 192.032C103.233 192.032 156.09 143.633 263.209 114.301C263.209 114.301 158.184 133.046 103.233 192.032Z" fill="white"/>
</g>
<defs>
<clipPath id="clip0_47_7931">
<rect width="360.294" height="287.554" fill="white" transform="translate(0 71.5682) rotate(-11.4574)"/>
</clipPath>
</defs>
</svg>
