<svg width="255" height="62" viewBox="0 0 255 62" fill="none" xmlns="http://www.w3.org/2000/svg">
<path d="M254.921 30.696C254.921 36.673 252.798 42.2387 249.14 46.9332C248.402 47.9254 247.544 48.8691 246.641 49.7766C239.671 56.8547 228.878 61.404 216.744 61.404H38.4776C25.8626 61.404 14.6776 56.4796 7.73783 48.9175C6.2174 47.272 4.90772 45.4813 3.82385 43.5938C1.55073 39.6737 0.30127 35.3179 0.30127 30.7323C0.30127 27.1025 1.08407 23.6542 2.48407 20.4479C2.70987 19.9155 2.96579 19.3952 3.25181 18.8629C3.26686 18.8145 3.29697 18.7782 3.31202 18.7298C3.86901 17.7376 4.44105 16.7576 5.11847 15.8138C5.17869 15.7291 5.22385 15.6444 5.28406 15.5718C11.8174 6.29168 24.2217 0.012146 38.4776 0.012146H216.744C232.792 0.012146 246.536 7.97349 252.166 19.2621C252.828 20.5326 253.355 21.8514 253.746 23.1944C254.514 25.5901 254.906 28.1188 254.906 30.696H254.921Z" fill="url(#paint0_linear_47_2616)"/>
<path style="mix-blend-mode:multiply" opacity="0.6" d="M250.691 30.696C250.691 35.8382 248.914 40.8231 245.572 45.1304C244.91 45.9774 244.202 46.8122 243.374 47.635C236.871 54.2412 227.192 58.0041 216.759 58.0041H38.4776C27.7443 58.0041 17.5077 53.854 11.14 46.8969C9.78514 45.4329 8.626 43.8479 7.66255 42.1782C5.58514 38.5847 4.53137 34.7371 4.53137 30.7202C4.53137 28.9174 4.74212 27.1267 5.16363 25.3723C5.69051 27.5017 6.51847 29.5586 7.66255 31.5308C8.61094 33.2005 9.78514 34.7855 11.14 36.2495C17.5077 43.2066 27.7443 47.3688 38.4776 47.3688H216.744C227.177 47.3688 236.856 43.6059 243.359 36.9997C244.187 36.1769 244.91 35.3542 245.557 34.4951C247.74 31.6881 249.245 28.6028 250.028 25.3602C250.48 27.1146 250.691 28.9053 250.691 30.7081V30.696Z" fill="url(#paint1_linear_47_2616)"/>
<path d="M249.14 46.9332C248.944 47.1873 248.734 47.4413 248.508 47.6954C247.951 48.4093 247.318 49.1111 246.641 49.7765C233.048 45.4329 215.931 42.4564 196.632 44.5375C173.42 47.0179 158.351 51.6882 143.779 56.177C137.802 58.0282 131.962 59.831 125.759 61.4039H108.719C121.364 59.4439 131.63 56.2859 142.258 52.9949C157.056 48.4335 172.366 43.7027 196.06 41.1618C216.669 38.9476 234.824 42.2386 249.14 46.9332Z" fill="#7E9622"/>
<g style="mix-blend-mode:screen" opacity="0.7">
<path d="M248.508 47.6955C247.951 48.4093 247.318 49.1111 246.641 49.7765C233.048 45.4329 215.931 42.4565 196.632 44.5375C173.42 47.0179 158.351 51.6882 143.779 56.1771C137.802 58.0283 131.961 59.8311 125.759 61.404H119.392C128.258 59.5286 136.161 57.0966 144.245 54.5921C159.043 50.0306 174.353 45.2998 198.048 42.7589C217.407 40.6779 234.613 43.4607 248.508 47.6955Z" fill="#8BA52D"/>
</g>
<path d="M253.761 23.1944C224.964 14.8943 180.088 11.2282 131.811 26.2797C85.5056 40.7263 51.2432 51.4221 26.1486 51.4221C19.3443 51.4221 13.2325 50.6356 7.72282 48.9175C6.20239 47.272 4.89271 45.4813 3.80884 43.5938C27.8045 55.0761 67.8174 42.6017 130.291 23.1218C177.845 8.30015 222.359 11.325 252.166 19.2742C252.828 20.5446 253.355 21.8635 253.746 23.2065L253.761 23.1944Z" fill="#8BA52D"/>
<g style="mix-blend-mode:multiply" opacity="0.2">
<path d="M104.774 0.0120993C68.7508 11.7847 40.9916 19.9397 19.7959 20.351C13.7895 20.472 8.29485 19.9639 3.297 18.7176C3.59807 18.1853 3.88409 17.665 4.20022 17.1326C4.47119 16.6849 4.77227 16.2494 5.08839 15.8017C5.14861 15.717 5.19377 15.6323 5.25399 15.5597C25.0798 20.1211 53.6819 12.789 93.5293 0H104.744L104.774 0.0120993Z" fill="#8BA52D"/>
</g>
<path d="M104.774 0.012146C68.7508 11.7848 40.9916 19.9397 19.7959 20.3511C13.7895 20.4721 8.29485 19.9639 3.297 18.7177C3.59807 18.1853 3.88409 17.665 4.20022 17.1327C17.6733 20.7262 32.0798 18.4394 45.4927 15.5719C54.0282 13.7449 62.4282 11.4823 70.7379 9.07452C75.4948 7.6831 80.2518 6.23119 84.9486 4.76717C89.4948 3.33945 93.9056 1.71815 98.3314 0.0242453H104.774V0.012146Z" fill="#CBE061"/>
<g style="mix-blend-mode:screen" opacity="0.9">
<path d="M253.761 23.1944C224.964 14.8943 180.088 11.2282 131.811 26.2797C85.5056 40.7263 51.2432 51.4221 26.1486 51.4221C19.3443 51.4221 13.2325 50.6356 7.72278 48.9175C7.1959 48.3367 6.68407 47.7439 6.21741 47.1268L7.72278 47.5866C13.2325 49.3047 19.3443 50.0911 26.1486 50.0911C51.2432 50.0911 85.5056 39.4075 131.811 24.9488C179.817 9.99405 224.452 13.527 253.265 21.7304C253.43 22.2022 253.611 22.6983 253.746 23.1944H253.761Z" fill="#8BA52D"/>
</g>
<path style="mix-blend-mode:multiply" opacity="0.2" d="M254.921 30.6959C254.921 36.673 252.798 42.2387 249.14 46.9332C248.402 47.9253 247.544 48.8691 246.641 49.7765C239.671 56.8546 228.878 61.404 216.744 61.404H38.4776C25.8626 61.404 14.6776 56.4795 7.73783 48.9175C6.2174 47.272 4.90772 45.4813 3.82385 43.5938C1.55073 39.6736 0.30127 35.3179 0.30127 30.7322C0.30127 27.1024 1.08407 23.6541 2.48407 20.4478C24.0109 46.9816 195.789 47.0421 253.761 23.2065C254.529 25.6021 254.921 28.1309 254.921 30.708V30.6959Z" fill="url(#paint2_linear_47_2616)"/>
<path style="mix-blend-mode:screen" opacity="0.3" d="M19.8862 6.82401C12.0733 12.4744 59.0561 25.1182 119.407 25.1182C179.757 25.1182 237.624 13.9384 235.863 8.53002C232.686 -1.25832 25.1851 2.98854 19.8862 6.82401Z" fill="url(#paint3_linear_47_2616)"/>
<path style="mix-blend-mode:screen" opacity="0.3" d="M40.555 7.19911C34.2475 10.5022 72.198 17.8828 120.957 17.8828C169.716 17.8828 216.458 11.3613 215.043 8.19126C212.484 2.48038 44.8453 4.96074 40.57 7.19911H40.555Z" fill="url(#paint4_linear_47_2616)"/>
<defs>
<linearGradient id="paint0_linear_47_2616" x1="127.611" y1="0.012146" x2="127.611" y2="61.404" gradientUnits="userSpaceOnUse">
<stop stop-color="#A8BF34"/>
<stop offset="0.37" stop-color="#A3BB32"/>
<stop offset="0.76" stop-color="#96AF2F"/>
<stop offset="1" stop-color="#8BA52D"/>
</linearGradient>
<linearGradient id="paint1_linear_47_2616" x1="127.611" y1="25.3481" x2="127.611" y2="57.992" gradientUnits="userSpaceOnUse">
<stop stop-color="#A8BF34"/>
<stop offset="0.37" stop-color="#A3BB32"/>
<stop offset="0.76" stop-color="#96AF2F"/>
<stop offset="1" stop-color="#8BA52D"/>
</linearGradient>
<linearGradient id="paint2_linear_47_2616" x1="0.301269" y1="20.4357" x2="1.27494" y2="-0.0132251" gradientUnits="userSpaceOnUse">
<stop stop-color="#A8BF34"/>
<stop offset="0.37" stop-color="#A3BB32"/>
<stop offset="0.76" stop-color="#96AF2F"/>
<stop offset="1" stop-color="#8BA52D"/>
</linearGradient>
<linearGradient id="paint3_linear_47_2616" x1="127.475" y1="2.51666" x2="127.475" y2="25.1182" gradientUnits="userSpaceOnUse">
<stop stop-color="#A8BF34"/>
<stop offset="0.37" stop-color="#A3BB32"/>
<stop offset="0.76" stop-color="#96AF2F"/>
<stop offset="1" stop-color="#8BA52D"/>
</linearGradient>
<linearGradient id="paint4_linear_47_2616" x1="127.475" y1="4.69456" x2="127.475" y2="17.8828" gradientUnits="userSpaceOnUse">
<stop stop-color="#A8BF34"/>
<stop offset="0.37" stop-color="#A3BB32"/>
<stop offset="0.76" stop-color="#96AF2F"/>
<stop offset="1" stop-color="#8BA52D"/>
</linearGradient>
</defs>
</svg>
