<svg width="290" height="104" viewBox="0 0 290 104" fill="none" xmlns="http://www.w3.org/2000/svg">
<path d="M286.179 78.3201L285.632 78.8208L285.952 79.4897L289 85.8545V98.2576C289 99.7897 288.368 101.107 287.387 101.98C286.662 102.624 285.769 102.984 284.819 102.984H5.21001C4.31854 102.984 3.48239 102.662 2.7919 102.108C1.72874 101.247 1 99.8318 1 98.2417V35.2502L5.29188 28.8051L5.67106 28.2357L5.27776 27.6759L1 21.5878V5.74243C1 4.30133 1.5661 3.02679 2.4578 2.11447C2.53039 2.05679 2.59196 2.00671 2.64673 1.96216C2.76241 1.86807 2.84779 1.79863 2.94264 1.73429L2.94268 1.73435L2.95263 1.72742C3.62283 1.26089 4.39297 1 5.19558 1H284.804C285.768 1 286.647 1.35863 287.373 2.00407L287.38 2.01002L287.386 2.01585C287.486 2.10082 287.578 2.18874 287.699 2.30784C288.475 3.13104 288.986 4.35473 288.986 5.72652V6.11261L289 6.12851V75.7382L286.179 78.3201Z" fill="#E98C45" stroke="#562D06" stroke-width="2"/>
<g style="mix-blend-mode:screen">
<path d="M277.531 17.0841V86.9159C277.531 88.7611 276.16 90.2722 274.485 90.2722H15.5001C13.826 90.2722 12.455 88.7611 12.455 86.9159V33.5319L15.962 28.2349L12.455 23.2083V17.0841C12.455 15.2389 13.826 13.7277 15.5001 13.7277H274.5C276.174 13.7277 277.545 15.2389 277.545 17.0841H277.531Z" fill="#E98C45"/>
</g>
<path d="M12.455 33.532L0 34.9477L4.45954 28.2349H15.9764L12.455 33.532Z" fill="#F0B267"/>
<path d="M0 21.8881L12.455 23.2083L15.9764 28.235H4.45954L0 21.8881Z" fill="#D78B4F"/>
<path d="M286.854 79.0578L290 85.6274L277.531 78.8987L265.667 82.8437H241.999L265.35 78.8987L277.531 70.9771L290 76.1786L286.854 79.0578Z" fill="#F0B267"/>
<path d="M286.854 79.0578L277.516 74.8584L265.999 80.4417L241.999 82.8437L265.35 78.8987L277.531 70.9771L290 76.1786L286.854 79.0578Z" fill="#D78B4F"/>
<path opacity="0.5" d="M288.427 1.62251C285.237 5.9015 280.475 11.7553 276.39 14.5072C275.871 14.0141 275.221 13.7437 274.5 13.7437H15.5002C14.9806 13.7437 14.5043 13.8868 14.0858 14.1572C11.3148 11.7553 6.10482 6.84001 2.39575 0.906699C3.21839 0.334047 4.18534 0 5.21002 0H284.819C286.046 0 287.157 0.461303 288.052 1.25665C288.182 1.368 288.297 1.47935 288.427 1.60661V1.62251Z" fill="#C2A174"/>
<g style="mix-blend-mode:screen">
<path d="M277.531 17.0841V50.2661C277.531 50.2661 276.679 17.9908 275.019 16.4001C273.345 14.8094 16.8712 15.7161 15.0816 16.8614C13.292 17.9908 13.7539 21.888 13.7539 21.888L17.6938 28.2349L13.7539 34.9318L12.455 63.0872V33.5319L15.962 28.2349L12.455 23.2083V17.0841C12.455 15.2389 13.826 13.7277 15.5001 13.7277H274.5C276.174 13.7277 277.545 15.2389 277.545 17.0841H277.531Z" fill="white"/>
</g>
<g style="mix-blend-mode:screen" opacity="0.5">
<path d="M15.9764 19.8361C15.3991 21.0609 19.9741 25.8807 20.1906 28.235C20.4071 30.5892 17.1599 35.3931 15.9764 37.2224C14.793 39.0517 15.2981 81.1735 15.9764 83.9254L16.6547 86.6773C16.6547 86.6773 272.104 89.6519 273.562 87.3613C275.019 85.0707 274.803 83.1459 273.562 82.8437C272.321 82.5574 267.327 85.9456 265.249 85.6115C263.171 85.2934 236.789 84.6094 235.764 83.6868C234.725 82.7642 262.146 77.0536 263.806 76.3536C265.465 75.6537 273.778 70.1658 274.817 68.1138C275.857 66.0459 274.615 21.1881 272.941 19.3588C271.281 17.5295 17.1599 17.2909 15.9764 19.8201V19.8361Z" fill="#E98C45"/>
</g>
<g style="mix-blend-mode:multiply" opacity="0.2">
<path d="M277.531 66.3322V86.9C277.531 88.7452 276.16 90.2564 274.485 90.2564H15.5001C13.826 90.2564 12.455 88.7452 12.455 86.9V62.3077C48.29 84.9434 235.735 81.587 277.531 66.3163V66.3322Z" fill="#BD6828"/>
</g>
<g style="mix-blend-mode:screen" opacity="0.3">
<path d="M25.7903 24.8626C24.3327 28.8712 58.6091 59.2058 143.34 59.2058C228.072 59.2058 266.288 30.8278 265.869 26.7078C265.451 22.5879 27.45 20.2973 25.7759 24.8785L25.7903 24.8626Z" fill="#BD6828"/>
</g>
<path d="M268.182 2C258.55 6.85284 247.157 10.8158 234.623 14H45.0263C32.608 10.6628 22.9621 6.61645 17.2727 2H268.182Z" fill="#FBC479"/>
<g style="mix-blend-mode:multiply" opacity="0.3">
<path d="M290 76.1786L286.854 79.0578L290 85.6274V98.2576C290 99.8801 289.408 101.312 288.427 102.346C288.297 102.489 288.182 102.616 288.052 102.727C287.157 103.523 286.031 103.984 284.819 103.984H5.21001C4.06987 103.984 3.01632 103.57 2.16483 102.886C2.09266 102.839 2.03494 102.775 1.96277 102.727C0.764905 101.662 0 100.039 0 98.2576V56.8357C4.38738 58.9195 8.89022 59.1104 12.455 58.6968V86.9C12.455 87.8385 12.8013 88.6656 13.3498 89.2701C13.8982 89.8746 14.6775 90.2563 15.4857 90.2563H274.485C274.991 90.2563 275.452 90.1132 275.856 89.8746C276.852 89.3178 277.531 88.2043 277.531 86.9159V52.0318C281.442 52.5249 286.103 51.3478 289.986 49.8048V76.1786H290Z" fill="#BD6828"/>
</g>
<path opacity="0.6" d="M288.427 102.346C288.297 102.489 288.182 102.616 288.052 102.727C287.157 103.523 286.031 103.984 284.819 103.984H5.21001C4.06986 103.984 3.01632 103.57 2.16482 102.886C2.09266 102.839 2.03493 102.775 1.96277 102.727C4.45953 100.866 6.84084 98.2257 8.89021 95.6329C10.7664 93.2786 12.3106 90.9403 13.3497 89.2542C13.8982 89.8586 14.6775 90.2404 15.4857 90.2404H274.485C274.991 90.2404 275.452 90.0972 275.856 89.8586C277.574 91.7038 280.071 94.3603 282.741 97.0009C284.631 98.862 286.608 100.771 288.427 102.33V102.346Z" fill="#D78B4F"/>
<g style="mix-blend-mode:multiply" opacity="0.6">
<path d="M288.427 102.346C288.297 102.489 288.182 102.616 288.052 102.727C287.157 103.523 286.031 103.984 284.819 103.984H5.21001C4.06986 103.984 3.01632 103.571 2.16482 102.887C2.09266 102.839 2.03493 102.775 1.96277 102.727C4.45953 100.866 6.84084 98.2258 8.89021 95.6329C17.766 100.087 267.341 100.739 282.741 97.0009C284.631 98.8621 286.608 100.771 288.427 102.33V102.346Z" fill="#BD6828"/>
</g>
<path d="M169.391 62.0668V32H175.435V62.0668H169.391Z" fill="#F7A600"/>
<path d="M98.9563 70.9981H86V40.9313H98.4353C104.479 40.9313 108 44.225 108 49.3772C108 52.7123 105.739 54.8676 104.173 55.5852C106.042 56.4293 108.434 58.3292 108.434 62.3428C108.434 67.9574 104.479 70.9981 98.9563 70.9981ZM97.9569 46.1686H92.0436V53.0941H97.9569C100.522 53.0941 101.957 51.7003 101.957 49.6302C101.957 47.5624 100.522 46.1686 97.9569 46.1686ZM98.3476 58.3729H92.0436V65.763H98.3476C101.088 65.763 102.39 64.0749 102.39 62.0462C102.39 60.0198 101.085 58.3729 98.3476 58.3729Z" fill="#341800"/>
<path d="M126.867 58.6673V70.9981H120.866V58.6673L111.562 40.9313H118.126L123.909 53.0504L129.605 40.9313H136.169L126.867 58.6673Z" fill="#341800"/>
<path d="M153.303 70.9981H140.347V40.9313H152.782C158.826 40.9313 162.347 44.225 162.347 49.3772C162.347 52.7123 160.086 54.8676 158.52 55.5852C160.389 56.4293 162.781 58.3292 162.781 62.3428C162.781 67.9574 158.826 70.9981 153.303 70.9981ZM152.304 46.1686H146.391V53.0941H152.304C154.869 53.0941 156.304 51.7003 156.304 49.6302C156.304 47.5624 154.869 46.1686 152.304 46.1686ZM152.695 58.3729H146.391V65.763H152.695C155.435 65.763 156.737 64.0749 156.737 62.0462C156.737 60.0198 155.435 58.3729 152.695 58.3729Z" fill="#341800"/>
<path d="M194.913 46.1686V71.0004H188.87V46.1686H180.782V40.9313H203V46.1686H194.913Z" fill="#341800"/>
</svg>
