<svg width="25" height="25" viewBox="0 0 25 25" fill="none" xmlns="http://www.w3.org/2000/svg">
<path d="M24.4325 3.21931L15.1517 12.5001L24.4325 21.7809C25.1617 22.5101 25.1617 23.7033 24.4325 24.4325C23.7033 25.1617 22.5101 25.1617 21.7809 24.4325L12.5001 15.1517L3.21931 24.4325C2.4901 25.1617 1.29686 25.1617 0.567655 24.4325C-0.161549 23.7033 -0.161549 22.5101 0.567655 21.7809L9.84843 12.5001L0.567655 3.21931C-0.161549 2.4901 -0.161549 1.29686 0.567655 0.567655C1.29686 -0.161549 2.4901 -0.161549 3.21931 0.567655L12.5001 9.84843L21.7809 0.567655C22.5101 -0.161549 23.7033 -0.161549 24.4325 0.567655C25.1617 1.29686 25.1617 2.4901 24.4325 3.21931Z" fill="#25282B"/>
</svg>
