<svg width="290" height="104" viewBox="0 0 290 104" fill="none" xmlns="http://www.w3.org/2000/svg">
<path d="M286.179 78.3201L285.632 78.8208L285.952 79.4897L289 85.8545V98.2576C289 99.7897 288.368 101.107 287.387 101.98C286.662 102.624 285.769 102.984 284.819 102.984H5.21001C4.31854 102.984 3.48239 102.662 2.7919 102.108C1.72874 101.247 1 99.8318 1 98.2417V35.2502L5.29188 28.8051L5.67106 28.2357L5.27776 27.6759L1 21.5878V5.74243C1 4.30133 1.5661 3.02679 2.4578 2.11447C2.53039 2.05679 2.59196 2.00671 2.64673 1.96216C2.76241 1.86807 2.84779 1.79863 2.94264 1.73429L2.94268 1.73435L2.95263 1.72742C3.62283 1.26089 4.39297 1 5.19558 1H284.804C285.768 1 286.647 1.35863 287.373 2.00407L287.38 2.01002L287.386 2.01585C287.486 2.10082 287.578 2.18874 287.699 2.30784C288.475 3.13104 288.986 4.35473 288.986 5.72652V6.11261L289 6.12851V75.7382L286.179 78.3201Z" fill="#E98C45" stroke="#562D06" stroke-width="2"/>
<g style="mix-blend-mode:screen">
<path d="M277.531 17.0841V86.9159C277.531 88.7611 276.16 90.2722 274.485 90.2722H15.5001C13.826 90.2722 12.455 88.7611 12.455 86.9159V33.5319L15.962 28.2349L12.455 23.2083V17.0841C12.455 15.2389 13.826 13.7277 15.5001 13.7277H274.5C276.174 13.7277 277.545 15.2389 277.545 17.0841H277.531Z" fill="#E98C45"/>
</g>
<path d="M12.455 33.532L0 34.9477L4.45954 28.2349H15.9764L12.455 33.532Z" fill="#F0B267"/>
<path d="M0 21.8881L12.455 23.2083L15.9764 28.235H4.45954L0 21.8881Z" fill="#D78B4F"/>
<path d="M286.854 79.0578L290 85.6274L277.531 78.8987L265.667 82.8437H241.999L265.35 78.8987L277.531 70.9771L290 76.1786L286.854 79.0578Z" fill="#F0B267"/>
<path d="M286.854 79.0578L277.516 74.8584L265.999 80.4417L241.999 82.8437L265.35 78.8987L277.531 70.9771L290 76.1786L286.854 79.0578Z" fill="#D78B4F"/>
<path opacity="0.5" d="M288.427 1.62251C285.237 5.9015 280.475 11.7553 276.39 14.5072C275.871 14.0141 275.221 13.7437 274.5 13.7437H15.5002C14.9806 13.7437 14.5043 13.8868 14.0858 14.1572C11.3148 11.7553 6.10482 6.84001 2.39575 0.906699C3.21839 0.334047 4.18534 0 5.21002 0H284.819C286.046 0 287.157 0.461303 288.052 1.25665C288.182 1.368 288.297 1.47935 288.427 1.60661V1.62251Z" fill="#C2A174"/>
<g style="mix-blend-mode:screen">
<path d="M277.531 17.0841V50.2661C277.531 50.2661 276.679 17.9908 275.019 16.4001C273.345 14.8094 16.8712 15.7161 15.0816 16.8614C13.292 17.9908 13.7539 21.888 13.7539 21.888L17.6938 28.2349L13.7539 34.9318L12.455 63.0872V33.5319L15.962 28.2349L12.455 23.2083V17.0841C12.455 15.2389 13.826 13.7277 15.5001 13.7277H274.5C276.174 13.7277 277.545 15.2389 277.545 17.0841H277.531Z" fill="white"/>
</g>
<g style="mix-blend-mode:screen" opacity="0.5">
<path d="M15.9764 19.8361C15.3991 21.0609 19.9741 25.8807 20.1906 28.235C20.4071 30.5892 17.1599 35.3931 15.9764 37.2224C14.793 39.0517 15.2981 81.1735 15.9764 83.9254L16.6547 86.6773C16.6547 86.6773 272.104 89.6519 273.562 87.3613C275.019 85.0707 274.803 83.1459 273.562 82.8437C272.321 82.5574 267.327 85.9456 265.249 85.6115C263.171 85.2934 236.789 84.6094 235.764 83.6868C234.725 82.7642 262.146 77.0536 263.806 76.3536C265.465 75.6537 273.778 70.1658 274.817 68.1138C275.857 66.0459 274.615 21.1881 272.941 19.3588C271.281 17.5295 17.1599 17.2909 15.9764 19.8201V19.8361Z" fill="#E98C45"/>
</g>
<g style="mix-blend-mode:multiply" opacity="0.2">
<path d="M277.531 66.3322V86.9C277.531 88.7452 276.16 90.2564 274.485 90.2564H15.5001C13.826 90.2564 12.455 88.7452 12.455 86.9V62.3077C48.29 84.9434 235.735 81.587 277.531 66.3163V66.3322Z" fill="#BD6828"/>
</g>
<g style="mix-blend-mode:screen" opacity="0.3">
<path d="M25.7903 24.8626C24.3327 28.8712 58.6091 59.2058 143.34 59.2058C228.072 59.2058 266.288 30.8278 265.869 26.7078C265.451 22.5879 27.45 20.2973 25.7759 24.8785L25.7903 24.8626Z" fill="#BD6828"/>
</g>
<path d="M268.182 2C258.55 6.85284 247.157 10.8158 234.623 14H45.0263C32.608 10.6628 22.9621 6.61645 17.2727 2H268.182Z" fill="#FBC479"/>
<g style="mix-blend-mode:multiply" opacity="0.3">
<path d="M290 76.1786L286.854 79.0578L290 85.6274V98.2576C290 99.8801 289.408 101.312 288.427 102.346C288.297 102.489 288.182 102.616 288.052 102.727C287.157 103.523 286.031 103.984 284.819 103.984H5.21001C4.06987 103.984 3.01632 103.57 2.16483 102.886C2.09266 102.839 2.03494 102.775 1.96277 102.727C0.764905 101.662 0 100.039 0 98.2576V56.8357C4.38738 58.9195 8.89022 59.1104 12.455 58.6968V86.9C12.455 87.8385 12.8013 88.6656 13.3498 89.2701C13.8982 89.8746 14.6775 90.2563 15.4857 90.2563H274.485C274.991 90.2563 275.452 90.1132 275.856 89.8746C276.852 89.3178 277.531 88.2043 277.531 86.9159V52.0318C281.442 52.5249 286.103 51.3478 289.986 49.8048V76.1786H290Z" fill="#BD6828"/>
</g>
<path opacity="0.6" d="M288.427 102.346C288.297 102.489 288.182 102.616 288.052 102.727C287.157 103.523 286.031 103.984 284.819 103.984H5.21001C4.06986 103.984 3.01632 103.57 2.16482 102.886C2.09266 102.839 2.03493 102.775 1.96277 102.727C4.45953 100.866 6.84084 98.2257 8.89021 95.6329C10.7664 93.2786 12.3106 90.9403 13.3497 89.2542C13.8982 89.8586 14.6775 90.2404 15.4857 90.2404H274.485C274.991 90.2404 275.452 90.0972 275.856 89.8586C277.574 91.7038 280.071 94.3603 282.741 97.0009C284.631 98.862 286.608 100.771 288.427 102.33V102.346Z" fill="#D78B4F"/>
<g style="mix-blend-mode:multiply" opacity="0.6">
<path d="M288.427 102.346C288.297 102.489 288.182 102.616 288.052 102.727C287.157 103.523 286.031 103.984 284.819 103.984H5.21001C4.06986 103.984 3.01632 103.571 2.16482 102.887C2.09266 102.839 2.03493 102.775 1.96277 102.727C4.45953 100.866 6.84084 98.2258 8.89021 95.6329C17.766 100.087 267.341 100.739 282.741 97.0009C284.631 98.8621 286.608 100.771 288.427 102.33V102.346Z" fill="#BD6828"/>
</g>
<g clip-path="url(#clip0_47_2663)">
<path fill-rule="evenodd" clip-rule="evenodd" d="M205.986 42.7874H211.268V37.4593H205.986V42.7874ZM177.907 51.6651C178.919 48.9635 181.501 47.0424 184.529 47.0424C187.557 47.0424 190.146 48.9635 191.15 51.6651H177.907ZM184.529 42.082C177.907 42.082 172.535 47.5002 172.535 54.1791C172.535 60.8579 177.907 66.2761 184.529 66.2761C189.075 66.2761 193.025 63.7246 195.056 59.9724L190.63 57.8037C189.395 59.9124 187.125 61.3232 184.529 61.3232C181.248 61.3232 178.487 59.0719 177.684 56.0101H191.374V56.0176H196.388C196.477 55.4173 196.522 54.8019 196.522 54.1791C196.522 47.5002 191.158 42.082 184.529 42.082ZM197.921 65.6307H203.203V60.3026H197.921V65.6307ZM205.986 65.6307H211.268V45.1288H205.986V65.6307ZM226.007 61.3232C222.093 61.3232 218.924 58.1264 218.924 54.1791C218.924 50.2318 222.093 47.0349 226.007 47.0349C229.92 47.0349 233.09 50.2318 233.09 54.1791C233.09 58.1264 229.92 61.3232 226.007 61.3232ZM226.007 42.082C219.385 42.082 214.013 47.5002 214.013 54.1791C214.013 60.8579 219.385 66.2761 226.007 66.2761C232.628 66.2761 238 60.8579 238 54.1791C238 47.5002 232.628 42.082 226.007 42.082ZM115.567 49.7215V55.2297H122.955C122.568 56.8056 121.81 58.2164 120.716 59.3421C119.064 61.0456 116.78 61.9761 114.28 61.9761C109.087 61.9761 104.861 57.7136 104.861 52.4681C104.861 47.23 109.087 42.96 114.28 42.96C117.063 42.96 119.622 44.1607 121.393 46.2319L125.619 42.7424C122.814 39.4255 118.655 37.4443 114.28 37.4443C106.074 37.4443 99.4003 44.1833 99.4003 52.4606C99.4003 60.7379 106.074 67.4768 114.28 67.4768C118.268 67.4768 121.936 66.0285 124.622 63.2593C126.876 60.933 128.372 57.6911 128.654 54.4492C128.796 52.8658 128.811 51.2899 128.721 49.7065L115.567 49.7215ZM142.47 61.3232C138.564 61.3232 135.388 58.1264 135.388 54.1791C135.388 50.2318 138.557 47.0349 142.47 47.0349C146.384 47.0349 149.553 50.2318 149.553 54.1791C149.553 58.1264 146.384 61.3232 142.47 61.3232ZM149.553 44.4384C147.567 42.9675 145.119 42.1045 142.47 42.1045C135.849 42.1045 130.485 47.5227 130.485 54.2016C130.485 60.8805 135.856 66.2986 142.47 66.2986C145.119 66.2986 147.567 65.4281 149.553 63.9648V65.6382H154.464V42.7649H149.553V44.4384ZM164.999 37.4593H160.088V42.7874H157.15V47.4627H160.088V59.6948C160.088 60.9555 160.245 62.0211 160.557 62.8541C160.862 63.6796 161.338 64.325 161.896 64.8278C162.462 65.3381 163.124 65.7358 163.913 65.9684C164.716 66.1935 165.594 66.2836 166.531 66.2836C167.499 66.2836 168.362 66.186 169.091 65.9834C169.775 65.7958 170.43 65.5332 171.033 65.203V61.4358C170.065 61.856 169.158 62.0136 168.124 62.0586C167.03 62.1112 166.39 61.796 165.854 61.2782C165.289 60.7379 164.991 60.0325 164.991 58.8543V47.4627H171.033V42.7874H164.991V37.4593H164.999Z" fill="black"/>
<path fill-rule="evenodd" clip-rule="evenodd" d="M73.2933 63.3119C66.8279 63.3119 61.5827 58.0213 61.5827 51.5C61.5827 44.9787 66.8279 39.6881 73.2933 39.6881V30.015C61.5306 30.015 52 39.6356 52 51.5C52 63.3644 61.5306 72.9775 73.2933 72.9775C85.0485 72.9775 94.5866 63.3569 94.5866 51.5H85.0038C85.0038 58.0288 79.7586 63.3119 73.2933 63.3119Z" fill="#2354E6"/>
<path fill-rule="evenodd" clip-rule="evenodd" d="M73.2933 51.5H85.0039V39.6881H73.2933V51.5Z" fill="#17E6A1"/>
</g>
<defs>
<clipPath id="clip0_47_2663">
<rect width="186" height="43" fill="white" transform="translate(52 30)"/>
</clipPath>
</defs>
</svg>
