<svg width="290" height="104" viewBox="0 0 290 104" fill="none" xmlns="http://www.w3.org/2000/svg">
<path d="M286.179 78.3201L285.632 78.8208L285.952 79.4897L289 85.8545V98.2576C289 99.7897 288.368 101.107 287.387 101.98C286.662 102.624 285.769 102.984 284.819 102.984H5.21001C4.31854 102.984 3.48239 102.662 2.7919 102.108C1.72874 101.247 1 99.8318 1 98.2417V35.2502L5.29188 28.8051L5.67106 28.2357L5.27776 27.6759L1 21.5878V5.74243C1 4.30133 1.5661 3.02679 2.4578 2.11447C2.53039 2.05679 2.59196 2.00671 2.64673 1.96216C2.76241 1.86807 2.84779 1.79863 2.94264 1.73429L2.94268 1.73435L2.95263 1.72742C3.62283 1.26089 4.39297 1 5.19558 1H284.804C285.768 1 286.647 1.35863 287.373 2.00407L287.38 2.01002L287.386 2.01585C287.486 2.10082 287.578 2.18874 287.699 2.30784C288.475 3.13104 288.986 4.35473 288.986 5.72652V6.11261L289 6.12851V75.7382L286.179 78.3201Z" fill="#E98C45" stroke="#562D06" stroke-width="2"/>
<g style="mix-blend-mode:screen">
<path d="M277.531 17.0841V86.9159C277.531 88.7611 276.16 90.2722 274.486 90.2722H15.5003C13.8261 90.2722 12.4551 88.7611 12.4551 86.9159V33.5319L15.9621 28.2349L12.4551 23.2083V17.0841C12.4551 15.2389 13.8261 13.7277 15.5003 13.7277H274.5C276.174 13.7277 277.545 15.2389 277.545 17.0841H277.531Z" fill="#E98C45"/>
</g>
<path d="M12.455 33.532L0 34.9477L4.45954 28.2349H15.9764L12.455 33.532Z" fill="#F0B267"/>
<path d="M0 21.8881L12.455 23.2083L15.9764 28.235H4.45954L0 21.8881Z" fill="#D78B4F"/>
<path d="M286.854 79.0578L290 85.6274L277.531 78.8987L265.667 82.8437H241.999L265.35 78.8987L277.531 70.9771L290 76.1786L286.854 79.0578Z" fill="#F0B267"/>
<path d="M286.854 79.0578L277.516 74.8584L265.999 80.4417L241.999 82.8437L265.35 78.8987L277.531 70.9771L290 76.1786L286.854 79.0578Z" fill="#D78B4F"/>
<path opacity="0.5" d="M288.427 1.62251C285.237 5.9015 280.475 11.7553 276.39 14.5072C275.871 14.0141 275.221 13.7437 274.5 13.7437H15.5002C14.9806 13.7437 14.5043 13.8868 14.0858 14.1572C11.3148 11.7553 6.10482 6.84001 2.39575 0.906699C3.21839 0.334047 4.18534 0 5.21002 0H284.819C286.046 0 287.157 0.461303 288.052 1.25665C288.182 1.368 288.297 1.47935 288.427 1.60661V1.62251Z" fill="#C2A174"/>
<g style="mix-blend-mode:screen">
<path d="M277.531 17.0841V50.2661C277.531 50.2661 276.679 17.9908 275.02 16.4001C273.345 14.8094 16.8713 15.7161 15.0817 16.8614C13.2921 17.9908 13.754 21.888 13.754 21.888L17.694 28.2349L13.754 34.9318L12.4551 63.0872V33.5319L15.9621 28.2349L12.4551 23.2083V17.0841C12.4551 15.2389 13.8261 13.7277 15.5003 13.7277H274.5C276.174 13.7277 277.545 15.2389 277.545 17.0841H277.531Z" fill="white"/>
</g>
<g style="mix-blend-mode:screen" opacity="0.5">
<path d="M15.9764 19.8361C15.3991 21.0609 19.9741 25.8807 20.1906 28.235C20.4071 30.5892 17.1599 35.3931 15.9764 37.2224C14.793 39.0517 15.2981 81.1735 15.9764 83.9254L16.6547 86.6773C16.6547 86.6773 272.104 89.6519 273.562 87.3613C275.019 85.0707 274.803 83.1459 273.562 82.8437C272.321 82.5574 267.327 85.9456 265.249 85.6115C263.171 85.2934 236.789 84.6094 235.764 83.6868C234.725 82.7642 262.146 77.0536 263.806 76.3536C265.465 75.6537 273.778 70.1658 274.817 68.1138C275.857 66.0459 274.615 21.1881 272.941 19.3588C271.281 17.5295 17.1599 17.2909 15.9764 19.8201V19.8361Z" fill="#E98C45"/>
</g>
<g style="mix-blend-mode:multiply" opacity="0.2">
<path d="M277.531 66.3322V86.9C277.531 88.7452 276.16 90.2564 274.486 90.2564H15.5003C13.8261 90.2564 12.4551 88.7452 12.4551 86.9V62.3077C48.2901 84.9434 235.735 81.587 277.531 66.3163V66.3322Z" fill="#BD6828"/>
</g>
<g style="mix-blend-mode:screen" opacity="0.3">
<path d="M25.7903 24.8626C24.3327 28.8712 58.6091 59.2058 143.34 59.2058C228.072 59.2058 266.288 30.8278 265.869 26.7078C265.451 22.5879 27.45 20.2973 25.7759 24.8785L25.7903 24.8626Z" fill="#BD6828"/>
</g>
<path d="M268.182 2C258.55 6.85284 247.157 10.8158 234.623 14H45.0263C32.608 10.6628 22.9621 6.61645 17.2727 2H268.182Z" fill="#FBC479"/>
<g style="mix-blend-mode:multiply" opacity="0.3">
<path d="M290 76.1786L286.854 79.0578L290 85.6274V98.2576C290 99.8801 289.408 101.312 288.427 102.346C288.297 102.489 288.182 102.616 288.052 102.727C287.157 103.523 286.031 103.984 284.819 103.984H5.21001C4.06987 103.984 3.01632 103.57 2.16483 102.886C2.09266 102.839 2.03494 102.775 1.96277 102.727C0.764905 101.662 0 100.039 0 98.2576V56.8357C4.38738 58.9195 8.89022 59.1104 12.455 58.6968V86.9C12.455 87.8385 12.8013 88.6656 13.3498 89.2701C13.8982 89.8746 14.6775 90.2563 15.4857 90.2563H274.485C274.991 90.2563 275.452 90.1132 275.856 89.8746C276.852 89.3178 277.531 88.2043 277.531 86.9159V52.0318C281.442 52.5249 286.103 51.3478 289.986 49.8048V76.1786H290Z" fill="#BD6828"/>
</g>
<path opacity="0.6" d="M288.427 102.346C288.297 102.489 288.182 102.616 288.052 102.727C287.157 103.523 286.031 103.984 284.819 103.984H5.21013C4.06999 103.984 3.01644 103.57 2.16494 102.886C2.09278 102.839 2.03505 102.775 1.96289 102.727C4.45966 100.866 6.84096 98.2257 8.89033 95.6329C10.7665 93.2786 12.3108 90.9403 13.3499 89.2542C13.8983 89.8586 14.6776 90.2404 15.4858 90.2404H274.486C274.991 90.2404 275.452 90.0972 275.857 89.8586C277.574 91.7038 280.071 94.3603 282.741 97.0009C284.631 98.862 286.609 100.771 288.427 102.33V102.346Z" fill="#D78B4F"/>
<g style="mix-blend-mode:multiply" opacity="0.6">
<path d="M288.427 102.346C288.297 102.489 288.182 102.616 288.052 102.727C287.157 103.523 286.031 103.984 284.819 103.984H5.21013C4.06999 103.984 3.01644 103.571 2.16494 102.887C2.09278 102.839 2.03505 102.775 1.96289 102.727C4.45966 100.866 6.84096 98.2258 8.89033 95.6329C17.7661 100.087 267.342 100.739 282.741 97.0009C284.631 98.8621 286.609 100.771 288.427 102.33V102.346Z" fill="#BD6828"/>
</g>
<path d="M186.855 51.992C186.855 51.1489 186.855 50.3058 186.855 49.5831C186.855 48.8605 186.734 48.1378 186.614 47.5356C186.493 46.9333 186.252 46.3311 186.012 45.7289C185.771 45.1267 185.289 44.6449 184.807 44.1631C184.084 43.4404 183.362 42.9586 182.398 42.4769C181.435 42.1155 180.471 41.8746 179.387 41.8746C178.303 41.8746 177.339 41.9951 176.376 42.4769C175.533 42.8382 174.69 43.4404 173.967 44.0426C173.485 44.5244 173.124 45.0062 172.763 45.6084C172.522 46.2107 172.281 46.8129 172.16 47.4151C172.04 48.1378 171.919 48.8605 171.919 49.4627C171.919 50.1853 171.919 51.0285 171.919 51.8716C171.919 52.7147 171.919 53.5578 171.919 54.2805C171.919 55.0032 172.04 55.7258 172.16 56.3281C172.281 56.9303 172.522 57.5325 172.763 58.1347C173.003 58.737 173.485 59.2187 173.967 59.7005C174.69 60.4232 175.412 60.905 176.376 61.2663C177.339 61.6276 178.423 61.8685 179.387 61.8685C180.471 61.8685 181.435 61.7481 182.398 61.2663C183.241 60.905 184.084 60.3027 184.807 59.7005C185.289 59.2187 185.65 58.737 186.012 58.1347C186.252 57.5325 186.493 56.9303 186.614 56.3281C186.734 55.6054 186.855 54.8827 186.855 54.2805C186.855 53.6783 186.975 52.8351 186.855 51.992ZM183 51.992C183 52.9556 183 53.7987 183 54.4009C183 54.8827 182.88 55.4849 182.88 55.9667C182.88 56.3281 182.76 56.6894 182.519 56.9303C182.398 57.1712 182.278 57.4121 182.037 57.653C181.796 58.0143 181.435 58.2552 180.953 58.3756C180.471 58.6165 179.989 58.6165 179.507 58.6165C179.026 58.6165 178.544 58.4961 178.062 58.3756C177.701 58.2552 177.219 57.8938 176.978 57.653C176.737 57.4121 176.617 57.1712 176.496 56.9303C176.376 56.5689 176.255 56.3281 176.255 55.9667C176.135 55.4849 176.135 54.8827 176.135 54.4009C176.135 53.7987 176.135 52.9556 176.135 51.992C176.135 51.0285 176.135 50.1854 176.135 49.5831C176.135 49.1013 176.255 48.4991 176.255 48.0173C176.255 47.656 176.376 47.2947 176.496 47.0538C176.617 46.8129 176.737 46.572 176.978 46.3311C177.219 45.9698 177.701 45.7289 178.062 45.6084C178.544 45.3675 179.026 45.3675 179.507 45.3675C179.989 45.3675 180.471 45.488 180.953 45.6084C181.314 45.7289 181.675 46.0902 182.037 46.3311C182.278 46.572 182.398 46.8129 182.519 47.0538C182.639 47.4151 182.76 47.656 182.88 48.0173C183 48.4991 183 49.1013 183 49.5831C183 50.3058 183 51.0285 183 51.992Z" fill="#23AF91"/>
<path d="M217.93 42.3565C217.93 42.1156 217.809 41.9951 217.568 41.9951H214.437C214.196 41.9951 214.075 42.1156 214.075 42.3565V54.2805L206.246 42.1156C206.246 41.9951 206.126 41.9951 206.006 41.9951H202.994C202.754 41.9951 202.633 42.1156 202.633 42.3565V61.6277C202.633 61.8686 202.754 61.989 202.994 61.989H206.246C206.487 61.989 206.608 61.8686 206.608 61.6277V49.7036L214.437 61.8686C214.437 61.989 214.557 61.989 214.678 61.989H217.689C217.93 61.989 218.05 61.8686 218.05 61.6277L217.93 42.3565Z" fill="#23AF91"/>
<path d="M196.37 42.3565C196.37 42.1156 196.249 41.9951 196.008 41.9951H192.756C192.515 41.9951 192.395 42.1156 192.395 42.3565V61.6277C192.395 61.8686 192.515 61.989 192.756 61.989H196.008C196.249 61.989 196.37 61.8686 196.37 61.6277V42.3565Z" fill="#23AF91"/>
<path d="M157.948 51.9921C157.948 51.0285 157.948 50.1854 157.948 49.5831C157.948 49.1014 158.068 48.4991 158.068 48.0174C158.309 46.3311 159.634 45.2471 161.32 45.2471C162.404 45.2471 163.368 45.6085 164.091 46.572C164.331 47.0538 164.572 47.5356 164.693 48.0174C164.693 48.0174 164.693 48.1378 164.813 48.1378H168.667C168.667 48.1378 168.788 48.1378 168.788 48.0174C168.427 45.7289 167.102 43.5609 164.934 42.4769C163.85 41.9951 162.645 41.7542 161.441 41.7542C159.273 41.7542 157.466 42.4769 156.021 43.9222C155.178 44.7653 154.575 45.7289 154.334 46.9334C154.094 48.0174 153.973 49.7036 153.973 51.8716C153.973 54.0396 154.094 55.7258 154.334 56.8099C154.575 57.8939 155.178 58.9779 155.9 59.821C157.346 61.2663 159.152 61.989 161.32 61.989C162.525 61.989 163.729 61.7481 164.813 61.2663C166.981 60.1823 168.306 58.1348 168.667 55.7258C168.667 55.7258 168.667 55.6054 168.547 55.6054H164.813C164.813 55.6054 164.693 55.6054 164.693 55.7258C164.572 56.2076 164.331 56.6894 164.091 57.1712C163.488 58.1348 162.404 58.4961 161.32 58.4961C159.634 58.4961 158.309 57.5325 158.068 55.7258C157.948 55.2441 157.948 54.6418 157.948 54.1601C157.948 53.7987 157.948 52.9556 157.948 51.9921Z" fill="#23AF91"/>
<path d="M117.96 42.3565C117.96 42.1156 117.84 41.9951 117.599 41.9951H114.467C114.226 41.9951 114.106 42.1156 114.106 42.3565V61.6277C114.106 61.8686 114.226 61.989 114.467 61.989H117.719C117.96 61.989 118.08 61.8686 118.08 61.6277V55.9668L120.61 52.8352L125.909 61.8686C125.909 61.989 126.03 61.989 126.15 61.989H130.004C130.125 61.989 130.245 61.8686 130.125 61.7481L123.139 49.9445L129.523 42.3565C129.643 42.236 129.643 41.9951 129.402 41.9951H125.187C125.187 41.9951 125.066 41.9951 125.066 42.1156L118.08 50.5467V42.3565H117.96Z" fill="#23AF91"/>
<path d="M141.447 58.737C139.64 58.737 137.954 57.0508 137.954 55.1236V42.3565C137.954 42.1156 137.833 41.9951 137.593 41.9951H134.341C134.1 41.9951 133.979 42.1156 133.979 42.3565V55.0032C133.979 59.4597 137.231 62.2299 141.326 62.2299C145.422 62.2299 148.674 59.4597 148.674 55.0032V42.3565C148.674 42.1156 148.553 41.9951 148.312 41.9951H145.06C144.819 41.9951 144.699 42.1156 144.699 42.3565V55.0032C144.819 57.0508 143.254 58.737 141.447 58.737Z" fill="#23AF91"/>
<path fill-rule="evenodd" clip-rule="evenodd" d="M81.8265 51.9921L91.8234 61.989L98.0866 55.7259C99.1706 54.7623 100.977 54.7623 102.061 55.8463C103.145 56.9303 103.145 58.6165 102.182 59.821L93.7505 68.0113C92.6665 69.0953 90.8598 69.0953 89.7758 68.0113L77.7313 55.9667V63.1935C77.7313 64.7592 76.4064 66.0841 74.8406 66.0841C73.2748 66.0841 71.95 64.7592 71.95 63.1935V40.9111C71.95 39.3453 73.2748 38.0204 74.8406 38.0204C76.4064 38.0204 77.7313 39.3453 77.7313 40.9111V48.0174L89.7758 35.9729C90.8598 34.8888 92.6665 34.8888 93.7505 35.9729L102.061 44.2836C103.025 45.3676 103.025 47.1743 101.941 48.2583C100.857 49.3423 99.1706 49.3423 97.9661 48.3787L91.703 42.1156L81.8265 51.9921ZM91.8234 49.2218C90.6189 49.2218 89.6554 49.9445 89.1736 51.0285C88.6918 52.1125 88.9327 53.317 89.7758 54.1601C90.6189 55.0032 91.8234 55.2441 92.9074 54.7623C93.9914 54.2805 94.7141 53.317 94.7141 52.1125C94.7141 51.3898 94.4732 50.6672 93.871 50.0649C93.2687 49.4627 92.5461 49.2218 91.8234 49.2218Z" fill="#23AF91"/>
</svg>
