<svg width="102" height="101" viewBox="0 0 102 101" fill="none" xmlns="http://www.w3.org/2000/svg">
<path d="M96.0543 0.570557L56.9893 31.8205L64.2537 13.4039L96.0543 0.570557Z" fill="#E17726" stroke="#E17726" stroke-width="0.183609" stroke-linecap="round" stroke-linejoin="round"/>
<path d="M5.9458 0.570557L44.663 32.1122L37.7465 13.4039L5.9458 0.570557Z" fill="#E27625" stroke="#E27625" stroke-width="0.183609" stroke-linecap="round" stroke-linejoin="round"/>
<path d="M81.9883 73.0284L71.5942 90.1951L93.8508 96.8202L100.227 73.4037L81.9883 73.0284Z" fill="#E27625" stroke="#E27625" stroke-width="0.183609" stroke-linecap="round" stroke-linejoin="round"/>
<path d="M1.81128 73.4037L8.14819 96.8202L30.3662 90.1951L20.0106 73.0284L1.81128 73.4037Z" fill="#E27625" stroke="#E27625" stroke-width="0.183609" stroke-linecap="round" stroke-linejoin="round"/>
<path d="M29.1681 44.0288L22.9858 54.1122L45.0105 55.1955L44.2765 29.5706L29.1681 44.0288Z" fill="#E27625" stroke="#E27625" stroke-width="0.183609" stroke-linecap="round" stroke-linejoin="round"/>
<path d="M72.8309 44.0291L57.4911 29.2792L56.9888 55.1958L79.0133 54.1125L72.8309 44.0291Z" fill="#E27625" stroke="#E27625" stroke-width="0.183609" stroke-linecap="round" stroke-linejoin="round"/>
<path d="M30.3665 90.1952L43.6971 83.237L32.2212 73.5703L30.3665 90.1952Z" fill="#E27625" stroke="#E27625" stroke-width="0.183609" stroke-linecap="round" stroke-linejoin="round"/>
<path d="M58.303 83.237L71.5949 90.1952L69.7788 73.5703L58.303 83.237Z" fill="#E27625" stroke="#E27625" stroke-width="0.183609" stroke-linecap="round" stroke-linejoin="round"/>
<path d="M71.5949 90.1959L58.303 83.2377L59.3847 92.5709L59.2687 96.5293L71.5949 90.1959Z" fill="#D5BFB2" stroke="#D5BFB2" stroke-width="0.183609" stroke-linecap="round" stroke-linejoin="round"/>
<path d="M30.3665 90.1959L42.7313 96.5293L42.654 92.5709L43.6971 83.2377L30.3665 90.1959Z" fill="#D5BFB2" stroke="#D5BFB2" stroke-width="0.183609" stroke-linecap="round" stroke-linejoin="round"/>
<path d="M42.9625 67.4037L31.9114 63.9039L39.7166 60.0288L42.9625 67.4037Z" fill="#233447" stroke="#233447" stroke-width="0.183609" stroke-linecap="round" stroke-linejoin="round"/>
<path d="M59.0371 67.4037L62.283 60.0288L70.1269 63.9039L59.0371 67.4037Z" fill="#233447" stroke="#233447" stroke-width="0.183609" stroke-linecap="round" stroke-linejoin="round"/>
<path d="M30.3661 90.1951L32.2983 73.0284L20.0107 73.4037L30.3661 90.1951Z" fill="#CC6228" stroke="#CC6228" stroke-width="0.183609" stroke-linecap="round" stroke-linejoin="round"/>
<path d="M69.7012 73.0284L71.5946 90.1951L81.9887 73.4037L69.7012 73.0284Z" fill="#CC6228" stroke="#CC6228" stroke-width="0.183609" stroke-linecap="round" stroke-linejoin="round"/>
<path d="M79.0133 54.1119L56.9888 55.1953L59.0366 67.4039L62.2825 60.0286L70.1263 63.9037L79.0133 54.1119Z" fill="#CC6228" stroke="#CC6228" stroke-width="0.183609" stroke-linecap="round" stroke-linejoin="round"/>
<path d="M31.9116 63.9037L39.7168 60.0286L42.9627 67.4039L45.0105 55.1953L22.9858 54.1119L31.9116 63.9037Z" fill="#CC6228" stroke="#CC6228" stroke-width="0.183609" stroke-linecap="round" stroke-linejoin="round"/>
<path d="M22.9866 54.1119L32.2216 73.5704L31.9122 63.9037L22.9866 54.1119Z" fill="#E27525" stroke="#E27525" stroke-width="0.183609" stroke-linecap="round" stroke-linejoin="round"/>
<path d="M70.127 63.9037L69.7793 73.5704L79.0143 54.1119L70.127 63.9037Z" fill="#E27525" stroke="#E27525" stroke-width="0.183609" stroke-linecap="round" stroke-linejoin="round"/>
<path d="M45.0117 55.1952L42.9636 67.4038L45.5525 81.8202L46.1322 62.8203L45.0117 55.1952Z" fill="#E27525" stroke="#E27525" stroke-width="0.183609" stroke-linecap="round" stroke-linejoin="round"/>
<path d="M56.9893 55.1952L55.9072 62.7788L56.4483 81.8202L59.0371 67.4038L56.9893 55.1952Z" fill="#E27525" stroke="#E27525" stroke-width="0.183609" stroke-linecap="round" stroke-linejoin="round"/>
<path d="M59.0371 67.4042L56.4482 81.8206L58.303 83.2374L69.7792 73.5707L70.1268 63.9041L59.0371 67.4042Z" fill="#F5841F" stroke="#F5841F" stroke-width="0.183609" stroke-linecap="round" stroke-linejoin="round"/>
<path d="M31.9114 63.9041L32.2207 73.5707L43.6965 83.2374L45.5513 81.8206L42.9625 67.4042L31.9114 63.9041Z" fill="#F5841F" stroke="#F5841F" stroke-width="0.183609" stroke-linecap="round" stroke-linejoin="round"/>
<path d="M59.2691 96.529L59.3848 92.5706L58.3804 91.6538H43.62L42.654 92.5706L42.7313 96.529L30.3665 90.1956L34.6941 94.0288L43.4654 100.571H58.4961L67.306 94.0288L71.595 90.1956L59.2691 96.529Z" fill="#C0AC9D" stroke="#C0AC9D" stroke-width="0.183609" stroke-linecap="round" stroke-linejoin="round"/>
<path d="M58.3027 83.237L56.4479 81.8206H45.5514L43.697 83.237L42.6536 92.5706L43.6196 91.6538H58.38L59.3847 92.5706L58.3027 83.237Z" fill="#161616" stroke="#161616" stroke-width="0.183609" stroke-linecap="round" stroke-linejoin="round"/>
<path d="M97.7154 33.8621L101 16.6122L96.054 0.570557L58.303 30.779L72.8313 44.0288L93.3491 50.4873L97.8701 44.779L95.8996 43.2371L99.0292 40.154L96.6337 38.1539L99.7635 35.5705L97.7154 33.8621Z" fill="#763E1A" stroke="#763E1A" stroke-width="0.183609" stroke-linecap="round" stroke-linejoin="round"/>
<path d="M1 16.6122L4.32303 33.8621L2.19785 35.5705L5.3663 38.1539L2.97064 40.154L6.10046 43.2371L4.12982 44.779L8.6507 50.4873L29.1686 44.0288L43.697 30.779L5.94591 0.570557L1 16.6122Z" fill="#763E1A" stroke="#763E1A" stroke-width="0.183609" stroke-linecap="round" stroke-linejoin="round"/>
<path d="M93.3496 50.487L72.8318 44.0288L79.0143 54.1122L69.7793 73.5703L81.9895 73.4038H100.227L93.3496 50.487Z" fill="#F5841F" stroke="#F5841F" stroke-width="0.183609" stroke-linecap="round" stroke-linejoin="round"/>
<path d="M29.1682 44.0288L8.65052 50.487L1.81128 73.4038H20.0106L32.2207 73.5703L22.9859 54.1122L29.1682 44.0288Z" fill="#F5841F" stroke="#F5841F" stroke-width="0.183609" stroke-linecap="round" stroke-linejoin="round"/>
<path d="M56.989 55.1955L58.3028 30.7786L64.2532 13.4038H37.7463L43.6968 30.7786L45.0105 55.1955L45.5129 62.8621L45.5516 81.8205H56.448L56.4866 62.8621L56.989 55.1955Z" fill="#F5841F" stroke="#F5841F" stroke-width="0.183609" stroke-linecap="round" stroke-linejoin="round"/>
</svg>
