<svg width="290" height="104" viewBox="0 0 290 104" fill="none" xmlns="http://www.w3.org/2000/svg">
<path d="M286.179 78.3201L285.632 78.8208L285.952 79.4897L289 85.8545V98.2576C289 99.7897 288.368 101.107 287.387 101.98C286.662 102.624 285.769 102.984 284.819 102.984H5.21001C4.31854 102.984 3.48239 102.662 2.7919 102.108C1.72874 101.247 1 99.8318 1 98.2417V35.2502L5.29188 28.8051L5.67106 28.2357L5.27776 27.6759L1 21.5878V5.74243C1 4.30133 1.5661 3.02679 2.4578 2.11447C2.53039 2.05679 2.59196 2.00671 2.64673 1.96216C2.76241 1.86807 2.84779 1.79863 2.94264 1.73429L2.94268 1.73435L2.95263 1.72742C3.62283 1.26089 4.39297 1 5.19558 1H284.804C285.768 1 286.647 1.35863 287.373 2.00407L287.38 2.01002L287.386 2.01585C287.486 2.10082 287.578 2.18874 287.699 2.30784C288.475 3.13104 288.986 4.35473 288.986 5.72652V6.11261L289 6.12851V75.7382L286.179 78.3201Z" fill="#E98C45" stroke="#562D06" stroke-width="2"/>
<g style="mix-blend-mode:screen">
<path d="M277.531 17.0841V86.9159C277.531 88.7611 276.16 90.2722 274.486 90.2722H15.5003C13.8261 90.2722 12.4551 88.7611 12.4551 86.9159V33.5319L15.9621 28.2349L12.4551 23.2083V17.0841C12.4551 15.2389 13.8261 13.7277 15.5003 13.7277H274.5C276.174 13.7277 277.545 15.2389 277.545 17.0841H277.531Z" fill="#E98C45"/>
</g>
<path d="M12.455 33.532L0 34.9477L4.45954 28.2349H15.9764L12.455 33.532Z" fill="#F0B267"/>
<path d="M0 21.8881L12.455 23.2083L15.9764 28.235H4.45954L0 21.8881Z" fill="#D78B4F"/>
<path d="M286.854 79.0578L290 85.6274L277.531 78.8987L265.667 82.8437H241.999L265.35 78.8987L277.531 70.9771L290 76.1786L286.854 79.0578Z" fill="#F0B267"/>
<path d="M286.854 79.0578L277.516 74.8584L265.999 80.4417L241.999 82.8437L265.35 78.8987L277.531 70.9771L290 76.1786L286.854 79.0578Z" fill="#D78B4F"/>
<path opacity="0.5" d="M288.427 1.62251C285.237 5.9015 280.475 11.7553 276.39 14.5072C275.871 14.0141 275.221 13.7437 274.5 13.7437H15.5002C14.9806 13.7437 14.5043 13.8868 14.0858 14.1572C11.3148 11.7553 6.10482 6.84001 2.39575 0.906699C3.21839 0.334047 4.18534 0 5.21002 0H284.819C286.046 0 287.157 0.461303 288.052 1.25665C288.182 1.368 288.297 1.47935 288.427 1.60661V1.62251Z" fill="#C2A174"/>
<g style="mix-blend-mode:screen">
<path d="M277.531 17.0841V50.2661C277.531 50.2661 276.679 17.9908 275.02 16.4001C273.345 14.8094 16.8713 15.7161 15.0817 16.8614C13.2921 17.9908 13.754 21.888 13.754 21.888L17.694 28.2349L13.754 34.9318L12.4551 63.0872V33.5319L15.9621 28.2349L12.4551 23.2083V17.0841C12.4551 15.2389 13.8261 13.7277 15.5003 13.7277H274.5C276.174 13.7277 277.545 15.2389 277.545 17.0841H277.531Z" fill="white"/>
</g>
<g style="mix-blend-mode:screen" opacity="0.5">
<path d="M15.9764 19.8361C15.3991 21.0609 19.9741 25.8807 20.1906 28.235C20.4071 30.5892 17.1599 35.3931 15.9764 37.2224C14.793 39.0517 15.2981 81.1735 15.9764 83.9254L16.6547 86.6773C16.6547 86.6773 272.104 89.6519 273.562 87.3613C275.019 85.0707 274.803 83.1459 273.562 82.8437C272.321 82.5574 267.327 85.9456 265.249 85.6115C263.171 85.2934 236.789 84.6094 235.764 83.6868C234.725 82.7642 262.146 77.0536 263.806 76.3536C265.465 75.6537 273.778 70.1658 274.817 68.1138C275.857 66.0459 274.615 21.1881 272.941 19.3588C271.281 17.5295 17.1599 17.2909 15.9764 19.8201V19.8361Z" fill="#E98C45"/>
</g>
<g style="mix-blend-mode:multiply" opacity="0.2">
<path d="M277.531 66.3322V86.9C277.531 88.7452 276.16 90.2564 274.486 90.2564H15.5003C13.8261 90.2564 12.4551 88.7452 12.4551 86.9V62.3077C48.2901 84.9434 235.735 81.587 277.531 66.3163V66.3322Z" fill="#BD6828"/>
</g>
<g style="mix-blend-mode:screen" opacity="0.3">
<path d="M25.7903 24.8626C24.3327 28.8712 58.6091 59.2058 143.34 59.2058C228.072 59.2058 266.288 30.8278 265.869 26.7078C265.451 22.5879 27.45 20.2973 25.7759 24.8785L25.7903 24.8626Z" fill="#BD6828"/>
</g>
<path d="M268.182 2C258.55 6.85284 247.157 10.8158 234.623 14H45.0263C32.608 10.6628 22.9621 6.61645 17.2727 2H268.182Z" fill="#FBC479"/>
<g style="mix-blend-mode:multiply" opacity="0.3">
<path d="M290 76.1786L286.854 79.0578L290 85.6274V98.2576C290 99.8801 289.408 101.312 288.427 102.346C288.297 102.489 288.182 102.616 288.052 102.727C287.157 103.523 286.031 103.984 284.819 103.984H5.21001C4.06987 103.984 3.01632 103.57 2.16483 102.886C2.09266 102.839 2.03494 102.775 1.96277 102.727C0.764905 101.662 0 100.039 0 98.2576V56.8357C4.38738 58.9195 8.89022 59.1104 12.455 58.6968V86.9C12.455 87.8385 12.8013 88.6656 13.3498 89.2701C13.8982 89.8746 14.6775 90.2563 15.4857 90.2563H274.485C274.991 90.2563 275.452 90.1132 275.856 89.8746C276.852 89.3178 277.531 88.2043 277.531 86.9159V52.0318C281.442 52.5249 286.103 51.3478 289.986 49.8048V76.1786H290Z" fill="#BD6828"/>
</g>
<path opacity="0.6" d="M288.427 102.346C288.297 102.489 288.182 102.616 288.052 102.727C287.157 103.523 286.031 103.984 284.819 103.984H5.21013C4.06999 103.984 3.01644 103.57 2.16494 102.886C2.09278 102.839 2.03505 102.775 1.96289 102.727C4.45966 100.866 6.84096 98.2257 8.89033 95.6329C10.7665 93.2786 12.3108 90.9403 13.3499 89.2542C13.8983 89.8586 14.6776 90.2404 15.4858 90.2404H274.486C274.991 90.2404 275.452 90.0972 275.857 89.8586C277.574 91.7038 280.071 94.3603 282.741 97.0009C284.631 98.862 286.609 100.771 288.427 102.33V102.346Z" fill="#D78B4F"/>
<g style="mix-blend-mode:multiply" opacity="0.6">
<path d="M288.427 102.346C288.297 102.489 288.182 102.616 288.052 102.727C287.157 103.523 286.031 103.984 284.819 103.984H5.21013C4.06999 103.984 3.01644 103.571 2.16494 102.887C2.09278 102.839 2.03505 102.775 1.96289 102.727C4.45966 100.866 6.84096 98.2258 8.89033 95.6329C17.7661 100.087 267.342 100.739 282.741 97.0009C284.631 98.8621 286.609 100.771 288.427 102.33V102.346Z" fill="#BD6828"/>
</g>
<g clip-path="url(#clip0_47_2714)">
<path d="M68.2012 57.3649L59.3654 41.4836C57.4279 38.1754 52.7104 38.1365 50.8384 41.6194L41.572 58.1313C39.8404 61.1582 41.9839 64.9612 45.4471 64.9612H64.0267C67.5179 64.9612 70.1387 61.0612 68.2012 57.3649Z" fill="#3156AA"/>
<path d="M55.4623 58.597L54.9195 57.6075C54.414 56.6955 53.2908 54.7164 53.2908 54.7164L45.8122 41.2702C43.884 38.2821 39.2976 38.0299 37.3601 41.8037L28.6647 57.394C26.8675 60.6731 29.0016 64.9321 32.9141 64.9612H51.3907H59.2719H63.9612C59.1689 65 57.6339 62.4291 55.4623 58.597Z" fill="#1972E2"/>
<path d="M55.4623 58.597L54.9195 57.6075C54.414 56.6955 53.2908 54.7164 53.2908 54.7164L48.4143 45.9463L41.5347 58.1702C39.8031 61.197 41.9465 65 45.4097 65H51.3533H59.2344H63.9519C59.1315 64.9612 57.6339 62.4291 55.4623 58.597Z" fill="url(#paint0_linear_47_2714)"/>
<path d="M260.269 63.7C258.799 63.7 257.648 63.3701 256.768 62.7978C255.851 62.1769 255.373 61.2746 255.373 60.0328V42.056H257.676C258.509 42.056 259.23 42.7545 259.23 43.6664V59.4993C259.23 59.5381 259.23 60.2851 259.829 60.8963C260.184 61.2649 260.624 61.4687 261.223 61.4687H261.663C261.822 61.4687 261.981 61.6336 261.981 61.7985V63.7388L260.269 63.7Z" fill="#326AD5"/>
<path d="M210.548 63.7C208.161 63.7 206.215 63.0403 204.745 61.7209C203.987 61.0612 203.472 60.3142 203.154 59.4992C202.836 58.6746 202.677 57.4813 202.677 55.8709C202.677 54.3089 202.836 53.0671 203.154 52.2425C203.435 51.4567 203.949 50.7582 204.708 50.0985C206.177 48.7791 208.133 48.1194 210.511 48.1194C212.898 48.1194 214.845 48.7791 216.314 50.0985C217.072 50.7582 217.587 51.4955 217.868 52.2425C218.186 53.106 218.345 54.3089 218.345 55.8709C218.345 57.4813 218.186 58.6746 217.868 59.4992C217.55 60.3239 217.035 61.0612 216.277 61.7209C214.882 63.0403 212.935 63.7 210.548 63.7ZM210.548 50.3895C207.927 50.3895 206.608 52.2425 206.608 55.9097C206.608 59.6254 207.918 61.4783 210.548 61.4783C213.178 61.4783 214.489 59.6254 214.489 55.9582C214.489 52.2425 213.132 50.3895 210.548 50.3895Z" fill="#326AD5"/>
<path d="M227.022 63.7C224.953 63.7 223.044 63.1276 221.415 62.0119C221.256 61.847 220.938 61.6433 220.535 61.391C220.46 61.3522 220.376 61.2261 220.376 61.1V42.056H222.726C223.559 42.056 224.279 42.803 224.279 43.6664V49.2351L225 48.8179C225.833 48.3619 226.947 48.1582 228.379 48.1582C230.888 48.1582 232.797 48.944 234.07 50.4672C235.184 51.8254 235.745 53.6396 235.745 55.8709C235.745 58.1022 235.109 59.9164 233.836 61.2261C232.348 62.8754 230.045 63.7 227.022 63.7ZM227.415 50.3896C226.535 50.3896 225.543 50.7194 224.429 51.4179L224.27 51.5052V60.45L224.429 60.5761C225.3 61.1485 226.339 61.4396 227.415 61.4396C228.847 61.4396 229.961 60.8187 230.719 59.5866C231.356 58.597 231.711 57.3164 231.711 55.8709C231.711 52.2425 230.242 50.3896 227.415 50.3896Z" fill="#326AD5"/>
<path d="M244.918 63.6612C240.547 63.6612 237.795 60.6925 237.795 55.8709C237.795 51.088 240.5 48.1194 244.834 48.1194C246.5 48.1194 247.932 48.5754 249.093 49.4388L249.327 49.6037V48.4104H252.387C252.584 48.4104 252.706 48.5754 252.706 48.7403V63.3798H249.289V62.0604L249.055 62.2642C248.101 63.1664 246.584 63.6612 244.918 63.6612ZM245.714 50.7582C242.971 50.7582 241.343 52.941 241.343 55.8709C241.343 58.8007 242.971 61.0612 245.714 61.0612C246.584 61.0612 248.101 60.9739 249.299 59.7418L249.336 59.703V52.2037L249.299 52.1649C248.456 51.1657 247.221 50.7582 245.714 50.7582Z" fill="#326AD5"/>
<path d="M103.592 63.4963V42.0172H120.814V43.3754C120.814 44.4522 119.981 45.3157 118.942 45.3157H107.888V51.088H118.942V54.3866H107.888V60.1589H118.942C119.972 60.1589 120.814 61.0224 120.814 62.0992V63.4574L103.592 63.4963Z" fill="#151617"/>
<path d="M145.552 42.0172H141.499C140.741 42.0172 140.067 42.347 139.59 42.9679L134.695 49.3612L129.799 43.0164C129.322 42.3955 128.648 42.0657 127.89 42.0657H123.837L132.074 52.7858L123.837 63.506H127.89C128.648 63.506 129.322 63.1761 129.799 62.5552L134.695 56.2104L139.627 62.6037C140.105 63.1761 140.779 63.5545 141.537 63.5545H145.59L137.353 52.8343L145.552 42.0172Z" fill="#151617"/>
<path d="M90.1037 61.2262L95.7478 51.0008V63.4478H100.044V41.9784H97.3765C96.5434 41.9784 95.7478 42.4344 95.3453 43.2202L88.5874 55.997L81.8295 43.2105C81.427 42.4247 80.6314 41.9687 79.7984 41.9687H77.1401V63.4478H81.4364V51.0008L87.0805 61.2262H90.1037Z" fill="#151617"/>
<path d="M156.775 63.7388C150.813 63.8164 145.955 58.956 145.917 52.7761C145.917 49.3903 146.91 46.5866 148.782 44.656C150.654 42.7545 153.359 41.7261 156.579 41.7261C160.36 41.7261 163.336 43.0843 165.489 45.7232L164.141 46.9164C163.308 47.6537 162.073 47.7023 161.156 47.0037C159.957 46.053 158.451 45.597 156.738 45.597C152.526 45.597 150.017 48.2358 150.017 52.6888C150.017 57.1806 152.601 59.9455 156.738 59.9455C158.488 59.9455 159.957 59.4508 161.156 58.5485C162.035 57.85 163.262 57.8888 164.141 58.6358L165.489 59.8291C163.336 62.4194 160.472 63.7388 156.775 63.7388Z" fill="#151617"/>
<path d="M183.226 63.7388C176.543 63.7388 172.406 59.538 172.406 52.7761C172.406 46.0142 176.543 41.8134 183.142 41.8134C186.325 41.8134 188.992 42.7642 191.061 44.7045L190.069 45.8589C189.629 46.3537 188.992 46.6448 188.356 46.6448C188 46.6448 187.635 46.5574 187.326 46.3925C186.091 45.7328 184.658 45.403 183.152 45.403C178.855 45.403 176.188 48.2455 176.188 52.8246C176.188 57.4425 178.968 60.2851 183.423 60.2851C185.576 60.2851 187.242 59.8679 188.477 58.9657L188.552 58.9268V54.5127H183.816V53.0671C183.816 52 184.649 51.1268 185.688 51.1268H191.538C191.697 51.1268 191.856 51.2918 191.856 51.4567V60.9836C189.825 62.7977 186.924 63.7388 183.226 63.7388Z" fill="#326AD5"/>
<path d="M199.532 63.7C198.062 63.7 196.901 63.3701 196.031 62.7978C195.114 62.1769 194.636 61.2746 194.636 60.0328V42.056H196.939C197.772 42.056 198.493 42.7545 198.493 43.6664V59.4993C198.493 59.5381 198.493 60.2851 199.092 60.8963C199.447 61.2649 199.887 61.4687 200.486 61.4687H200.926C201.085 61.4687 201.244 61.6336 201.244 61.7985V63.7388L199.532 63.7Z" fill="#326AD5"/>
</g>
<defs>
<linearGradient id="paint0_linear_47_2714" x1="39.5099" y1="52.6419" x2="59.824" y2="60.3365" gradientUnits="userSpaceOnUse">
<stop stop-color="#264CA2" stop-opacity="0"/>
<stop offset="1" stop-color="#234588"/>
</linearGradient>
<clipPath id="clip0_47_2714">
<rect width="234" height="26" fill="white" transform="translate(28 39)"/>
</clipPath>
</defs>
</svg>
