<svg width="98" height="99" viewBox="0 0 98 99" fill="none" xmlns="http://www.w3.org/2000/svg">
<path d="M42.9632 0.570557C39.984 0.570557 37.1224 1.74656 35.0056 3.86336L1.8816 36.9874C0.6272 38.2418 0 39.8882 0 41.5346C0 43.181 0.6272 44.8274 1.8816 46.0818L23.5984 67.7986V29.3826C23.5984 26.521 25.9112 24.2082 28.7728 24.2082C40.8856 24.2082 70.4032 24.2082 74.4016 24.2082L98 0.609757H42.9632V0.570557Z" fill="#4A21EF"/>
<path d="M23.5984 74.9721H69.2272C72.0888 74.9721 74.4016 72.6593 74.4016 69.7977V31.3817L96.1184 53.0985C97.3728 54.3529 98 55.9993 98 57.6457C98 59.2921 97.3728 60.9385 96.1184 62.1929L62.9944 95.3169C60.8776 97.4337 58.016 98.6097 55.0368 98.6097H0L23.5984 75.0113V74.9721Z" fill="#4A21EF"/>
</svg>
