<svg width="78" height="60" viewBox="0 0 78 60" fill="none" xmlns="http://www.w3.org/2000/svg">
<g style="mix-blend-mode:multiply" opacity="0.57">
<path d="M56.7524 36.9714C56.7524 36.9714 73.5867 44.3146 76.9546 53.2277C80.3226 62.1447 24.5816 62.6668 13.733 44.3107C2.88432 25.9547 56.7551 36.9675 56.7551 36.9675L56.7524 36.9714Z" fill="#DEA31D"/>
</g>
<path d="M0.639065 28.0581C0.69109 28.1694 0.753983 28.2922 0.825172 28.4266C2.80761 32.1462 12.0189 44.9516 16.348 47.9879C20.8386 51.1356 45.5286 54.2794 50.0165 52.1836C54.5043 50.0877 63.4856 38.5489 63.4856 35.4012C63.4856 32.2536 58.2475 17.5711 56.0049 15.4753C54.0717 13.6711 42.6864 4.60445 37.6701 1.67562C36.8596 1.19964 36.2134 0.888692 35.8026 0.788889C33.6422 0.286037 30.6303 0.861856 27.5416 1.87908C21.0056 4.02484 14.1053 8.13212 14.1053 8.13212C14.1053 8.13212 8.58789 14.316 4.59016 19.8819C2.00259 23.4825 0.0503578 26.8259 0.639065 28.062V28.0581Z" fill="#FCCC9A"/>
<path d="M0.825172 28.4263C2.80761 32.1459 12.0189 44.9513 16.348 47.9876C20.8386 51.1353 45.5286 54.2791 50.0165 52.1833C54.5043 50.0874 63.4856 38.5486 63.4856 35.401C63.4856 32.2533 58.2475 17.5708 56.0049 15.475C54.0717 13.6708 42.6864 4.60415 37.6701 1.67532C41.4132 7.39479 47.0319 16.2004 47.7739 18.6226C48.8966 22.2923 42.1634 36.4528 38.7955 38.0266C35.4275 39.5965 19.7158 39.5966 15.9755 38.5487C13.3441 37.8078 5.33494 31.8772 0.825172 28.4263Z" fill="#EDB77E"/>
<path d="M14.1051 8.12838C14.1051 8.12838 8.58769 14.3123 4.58996 19.8782C5.80023 19.1604 7.0325 18.5271 8.30575 18.0933C9.01767 17.8515 10.1239 17.8898 10.7372 17.3716C11.3204 16.8726 11.4108 16.1855 11.8571 15.7211C12.6895 14.8574 13.552 14.3737 14.6637 13.8978C17.0925 12.8575 19.5432 12.155 21.9582 13.2413C24.3322 14.3084 26.7089 13.5676 29.228 12.0014C27.6947 9.79042 24.6061 8.51985 22.5497 7.29535C22.1609 5.34535 24.6198 3.34934 27.5359 1.87149C20.9999 4.01725 14.0996 8.12454 14.0996 8.12454L14.1051 8.12838Z" fill="#FFDDBA"/>
</svg>
