<svg width="119" height="81" viewBox="0 0 119 81" fill="none" xmlns="http://www.w3.org/2000/svg">
<path d="M107.351 50.8165C108.694 46.8955 112.483 43.1687 114.723 39.5288C113.639 39.9345 111.941 39.7114 110.948 40.0881C107.504 33.1416 113.324 21.4395 112.747 13.5743C108.131 18.7444 102.813 16.5535 97.661 20.0977C94.4105 17.3997 96.8407 10.3576 94.8545 6.63362C95.2307 11.0734 89.0857 15.4233 84.6625 16.4115C83.5202 13.6584 83.4254 10.5401 82.5983 7.78702C80.8867 11.7051 76.2228 15.3739 72.0199 12.0789C69.2169 9.88222 69.3015 2.88647 67.7153 6.10352e-05C67.2103 0.020347 65.0648 0.402894 64.536 0.591264C64.7835 4.40503 65.0783 7.79278 64.3293 11.6616C54.7236 16.0086 56.3302 5.98155 49.8768 3.71532C49.2158 5.22228 50.1377 11.2269 48.826 12.0239C46.3144 13.5511 39.8813 7.71166 38.0883 6.46552C34.8683 12.4035 36.5495 18.7762 27.2218 12.418C25.788 14.6727 27.815 21.3729 25.8627 22.5755C21.7344 25.1142 15.1859 17.2606 13.2879 15.3131C13.8403 19.8717 17.7482 24.9258 17.2466 29.4467C12.3116 30.2262 10.261 25.8995 7.78334 23.6275C7.28848 27.7832 10.5593 31.6114 11.7287 35.3354C9.45776 35.2571 7.49197 34.1675 6.38023 32.5301C12.166 50.802 44.1825 60.49 62.8549 58.2354C70.8167 57.2732 78.3751 56.0155 86.4351 56.2763C90.9329 56.4212 94.6986 57.1718 99.0913 55.7953C102.677 54.6708 106.985 51.9786 107.348 50.8165H107.351Z" fill="#EB9A47"/>
<path d="M59.801 32.904C61.6855 34.327 64.6512 33.6459 65.4511 31.6057C67.4678 26.4531 69.8675 17.4809 71.3555 17.3707C75.0873 17.0954 73.3078 31.3507 75.8567 31.5767C82.4559 32.165 91.143 18.0315 94.7494 22.6973C97.1321 25.7808 91.4311 44.3019 106.7 32.0201C110.883 28.6556 102.064 42.8992 102.664 48.1156C107.131 47.2115 111.269 45.7914 115.872 45.9189C114.452 64.8979 80.8798 68.0828 65.119 67.2917C43.1893 66.1904 25.6254 60.2525 15.4333 42.4066C18.616 40.1056 22.9206 39.3173 26.5337 38.503C25.0729 37.1062 24.0357 33.7734 22.6427 32.394C29.086 30.9537 49.8869 40.1577 36.7325 21.512C45.7924 15.9478 51.9815 27.0037 59.7942 32.9011L59.801 32.904Z" fill="#D9862E"/>
<path d="M113.585 58.5104C116.222 54.3083 117.882 49.1469 118.831 44.484C117.106 48.5064 112.907 54.0184 107.456 53.6881C106.162 49.0397 100.129 56.9106 96.3798 57.2352C96.5493 55.2124 96.5832 53.3548 96.4849 51.6305C95.5122 52.3058 93.8818 52.5781 92.9158 53.123C91.5126 48.066 95.9663 42.8612 93.004 38.0041C89.4586 42.3366 88.6079 50.906 83.1238 54.2474C77.2364 57.8351 78.3006 53.4243 76.389 49.2483C75.6094 50.8422 73.7757 52.4738 72.7385 53.8446C69.1898 50.2829 68.8983 43.206 67.3866 39.0126C64.8208 43.2205 66.0376 48.2543 64.4446 52.3811C61.4145 48.205 59.6249 43.4321 57.3506 39.0213C56.9099 40.3979 55.6253 42.1164 55.2524 43.6639C52.0189 41.2441 50.5852 36.9724 47.2602 34.8279C44.6775 41.4556 51.0089 49.9757 51.8766 56.6527C46.8907 56.2876 44.9724 50.1177 41.0101 48.5238C41.0542 49.7989 40.1932 50.8132 40.0542 51.9522C36.9325 50.5901 34.6752 47.7993 31.3163 46.7329C31.0553 47.4921 30.6249 48.2282 30.3774 48.9614C24.9306 48.4571 20.399 40.1109 15.5622 40.1196C8.14277 40.1341 17.6433 50.3148 20.4769 53.2418C27.5168 60.5157 38.285 68.0708 49.8192 68.0998C49.8023 68.5026 49.1549 68.636 49.2837 69.0185C57.8454 72.9511 74.535 70.7833 83.8661 69.4677C92.2753 68.2853 111.161 65.6337 113.581 58.5104H113.585Z" fill="#C2721D"/>
<g style="mix-blend-mode:multiply" opacity="0.57">
<path d="M18.0188 58.3656C18.0188 58.3656 4.97875 64.6082 0.350864 73.6876C-4.27702 82.7671 38.2116 85.6039 49.1486 64.6082L18.0188 58.3656Z" fill="#DEA31D"/>
</g>
<path d="M53.3548 60.6338C53.324 60.6753 53.2902 60.721 53.2563 60.7626C52.1848 62.1498 49.3335 65.0115 46.1621 67.8068C42.4641 71.0589 38.3381 74.2197 36.1088 74.8219C31.8997 75.9558 20.122 74.8219 18.4408 72.5541C16.7597 70.2864 13.3943 58.935 14.6568 56.6672C15.9161 54.3994 26.3973 40.9838 28.5372 40.7803C28.9745 40.7387 29.4087 40.7097 29.8367 40.6931C31.2777 40.6349 32.6571 40.7097 33.975 40.9049C48.0772 42.9484 55.233 58.1085 53.3548 60.6421V60.6338Z" fill="#FCCC9A"/>
<path d="M53.3546 60.6339C53.3238 60.6754 53.2899 60.7211 53.2561 60.7627C52.1845 62.1499 49.3333 65.0116 46.1618 67.8069C43.2952 68.4839 40.4409 68.9449 37.7713 68.5421C38.4918 66.6564 39.7573 63.857 40.9458 62.5362C42.1036 61.2486 43.9603 60.746 45.2566 59.5623C48.0709 56.9913 48.5265 55.0018 45.9001 51.6957C44.7947 50.3084 42.9657 47.6253 41.7371 46.7987C38.5564 44.6472 33.8731 45.5444 30.4491 44.9754C31.4898 43.26 32.6385 41.8935 33.9717 40.9008C48.074 42.9443 55.2298 58.1044 53.3515 60.638L53.3546 60.6339Z" fill="#FFDDBA"/>
<path d="M53.2563 60.7666C50.9316 63.7737 40.2533 73.7045 36.1088 74.8259C31.8997 75.9598 20.122 74.8259 18.4409 72.5582C16.7597 70.2904 13.3943 58.939 14.6568 56.6712C15.9161 54.4034 26.3973 40.9878 28.5372 40.7843C28.9745 40.7428 29.4087 40.7137 29.8367 40.6971C26.3788 45.4237 21.3599 52.6092 20.5439 55.5373C19.2815 60.0771 28.1154 66.3197 30.6403 66.8846C32.5247 67.3082 46.3621 62.9887 53.2593 60.7707L53.2563 60.7666Z" fill="#EDB77E"/>
</svg>
