<svg width="80" height="61" viewBox="0 0 80 61" fill="none" xmlns="http://www.w3.org/2000/svg">
<path d="M68.8753 44.6381C72.2913 38.8348 77.9192 33.1917 76.7605 26.0421C76.0262 27.2282 74.6056 28.0763 73.796 29.2506C72.2822 25.1406 73.3717 19.5152 73.0406 15.0049C72.5741 16.111 70.9098 17.4987 70.2417 18.5307C68.4058 12.5169 68.2855 6.11158 67.0184 -0.00012207C67.5331 4.81273 63.2744 10.7584 59.7923 13.6704C59.4492 12.164 58.155 10.9956 57.6585 9.73829C56.9993 11.3782 55.4344 12.7304 54.5856 14.2605C54.1252 13.5815 52.6986 12.8964 52.1267 12.0216C50.9289 13.2493 49.3007 13.0121 48.0818 13.6407C46.7094 10.9155 46.5559 7.5943 45.5176 4.90764C44.2987 7.10797 43.5132 13.273 40.299 13.1248C37.187 12.9795 35.3391 5.60743 33.6838 3.67992C31.9442 6.11748 31.6222 9.10664 30.641 11.8674C29.6418 11.0371 27.4508 10.791 26.5811 10.2038C25.7775 15.0819 21.3233 13.9492 19.5295 10.3254C18.121 17.6559 11.0063 12.1521 8.75506 8.3445C8.54137 11.218 9.43221 24.3399 3.84032 17.4454C3.93061 20.1973 5.26091 23.1093 5.02014 25.7841C2.8803 25.701 1.07146 24.3992 3.8147e-05 22.445C0.487595 37.6012 21.1276 48.8342 34.0028 51.3577C47.4648 53.994 55.3862 47.1824 68.8783 44.6381H68.8753Z" fill="#DE9243"/>
<path d="M26.7678 31.0088C31.0384 30.9436 36.7207 27.7884 39.9831 30.1014C40.6031 29.4549 44.5065 18.0292 45.2078 17.3828C51.3564 33.4345 57.8091 27.9811 65.9681 15.6806C64.0781 23.613 66.4467 32.0496 67.1691 39.9554C71.0876 39.2319 75.0181 37.6602 78.8765 37.509C78.3708 54.394 56.7286 59.7317 42.5924 58.3024C34.5688 57.4899 25.4045 54.1064 18.1452 50.5212C9.69724 46.3489 9.6972 41.0615 3.51844 35.7564C14.6089 33.7251 10.5038 26.0121 14.1605 20.7159C16.7879 16.9083 21.5732 32.6131 26.7618 31.0118L26.7678 31.0088Z" fill="#D48531"/>
<path d="M79.3367 38.965C79.3488 38.9086 79.3608 38.8523 79.3728 38.793C76.7514 43.1314 73.498 46.5416 68.8271 48.65C68.7157 48.4662 68.8451 47.4104 68.7669 47.1317C67.7587 47.3749 66.8407 47.7811 65.7512 48.3475C64.9266 48.5047 65.3751 47.2414 65.047 47.2651C59.7772 50.9244 62.5009 30.4573 60.8787 27.3169C58.2513 31.2609 57.7999 36.9633 54.733 40.4684C50.1795 36.99 52.8912 31.6434 50.9078 27.2664C48.2684 31.6908 49.6438 37.4438 47.832 42.135C45.1053 41.3225 44.5996 38.3512 43.5462 35.7446C39.5193 42.8497 36.0222 27.8388 33.9365 25.8935C33.6235 31.2935 36.582 39.9703 34.3037 44.5845C31.1767 42.5472 29.9126 38.3393 27.8239 35.5993C27.1769 38.0101 27.9624 40.8361 28.2032 43.3449C25.4825 43.0987 22.9544 40.934 21.0463 39.2319C21.3503 40.593 20.6671 42.5294 20.8296 43.9379C17.5882 43.9765 14.9669 41.2454 13.0527 38.7782C13.0136 39.4424 12.8782 40.2223 12.8361 40.9103C8.89346 40.9399 3.9005 32.8117 1.85696 37.3429C-2.13982 46.1976 20.2217 55.5149 25.1725 57.3683C38.0206 62.1811 48.7228 60.8912 60.042 58.2965C69.733 56.0754 77.3112 48.564 79.3367 38.965Z" fill="#C2721D"/>
</svg>
