<svg width="278" height="279" viewBox="0 0 278 279" fill="none" xmlns="http://www.w3.org/2000/svg">
<path d="M277.5 154.029C277.5 154.886 276.807 155.58 275.951 155.58C275.096 155.58 274.402 154.886 274.402 154.029C274.402 153.173 275.096 152.479 275.951 152.479C276.807 152.479 277.5 153.173 277.5 154.029Z" fill="#25295B"/>
<path d="M149.049 277.02C149.049 277.877 148.356 278.571 147.5 278.571C146.645 278.571 145.952 277.877 145.952 277.02C145.952 276.164 146.645 275.47 147.5 275.47C148.356 275.47 149.049 276.164 149.049 277.02Z" fill="#25295B"/>
<path d="M61.015 255.309C61.015 256.165 60.3217 256.859 59.4662 256.859C58.6108 256.859 57.9175 256.165 57.9175 255.309C57.9175 254.453 58.6108 253.759 59.4662 253.759C60.3217 253.759 61.015 254.453 61.015 255.309Z" fill="#25295B"/>
<path d="M248.321 134.038C248.321 134.895 247.627 135.589 246.772 135.589C245.916 135.589 245.223 134.895 245.223 134.038C245.223 133.182 245.916 132.488 246.772 132.488C247.627 132.488 248.321 133.182 248.321 134.038Z" fill="#25295B"/>
<path d="M15.5539 220.278C15.5539 222.007 14.154 223.408 12.4269 223.408C10.6998 223.408 9.2998 222.007 9.2998 220.278C9.2998 218.549 10.6998 217.148 12.4269 217.148C14.154 217.148 15.5539 218.549 15.5539 220.278Z" fill="#25295B"/>
<path d="M224.34 88.6866C224.34 90.4155 222.94 91.8169 221.213 91.8169C219.486 91.8169 218.086 90.4155 218.086 88.6866C218.086 86.9578 219.486 85.5564 221.213 85.5564C222.94 85.5564 224.34 86.9578 224.34 88.6866Z" fill="#25295B"/>
<path d="M73.177 272.108C105.636 272.459 191.597 249.01 238.03 225.54C248.678 220.158 254.638 208.531 252.904 196.718C246.824 155.297 230.892 118.808 210.832 83.3025L189.229 171.88L78.3917 232.085L58.2007 251.007L66.7846 271.655L73.178 272.108H73.177Z" fill="#B76042"/>
<path d="M67.1624 272.537C99.6213 272.888 185.582 249.44 232.016 225.969C242.663 220.587 248.623 208.961 246.889 197.147C240.81 155.726 224.878 119.238 204.817 83.7319L183.214 172.309L72.377 232.514L52.186 251.436L60.77 272.085L67.1633 272.537H67.1624Z" fill="#A34F38"/>
<path d="M73.9278 274.262C73.6655 274.262 73.41 274.261 73.1534 274.258C73.1105 274.258 73.0676 274.257 73.0247 274.254L66.6313 273.801C65.8207 273.744 65.1121 273.233 64.8003 272.482L56.2163 251.833C55.872 251.005 56.0771 250.05 56.7313 249.437L76.9223 230.515C77.0558 230.39 77.2046 230.282 77.3658 230.195L187.366 170.445L208.744 82.7936C208.952 81.9373 209.663 81.2948 210.536 81.1736C211.407 81.0523 212.266 81.4771 212.7 82.2446C236.593 124.533 249.646 159.742 255.028 196.406C256.904 209.186 250.462 221.666 238.998 227.46C194.473 249.966 108.635 274.263 73.9278 274.263V274.262ZM73.264 269.959C73.47 269.961 73.6798 269.962 73.8906 269.962C105.306 269.962 189.417 247.703 237.063 223.621C246.873 218.662 252.385 207.976 250.778 197.031C245.68 162.295 233.556 128.825 211.624 89.1237L191.315 172.39C191.172 172.979 190.786 173.48 190.253 173.77L79.6584 233.843L60.7558 251.557L68.2583 269.605L73.265 269.96L73.264 269.959Z" fill="#650000"/>
<path fill-rule="evenodd" clip-rule="evenodd" d="M136.765 231.714C135.94 231.913 135.032 231.473 134.663 230.648C133.886 228.711 132.947 226.853 131.859 225.072C130.069 222.182 127.995 219.509 125.964 216.799C121.951 211.259 118.249 205.456 113.974 200.113C109.429 194.877 104.88 189.681 100.74 184.091C96.787 179.034 92.8379 174.218 88.399 169.668C80.126 161.808 70.633 155.384 60.8936 149.84C55.9531 147.402 50.8371 145.314 45.5149 144.003C39.5629 142.682 33.5548 141.563 27.8258 139.261C26.2877 138.475 24.1531 138.439 23.0597 136.968C21.6588 136.445 19.3604 135.695 20.1884 133.667C20.3086 133.409 20.4527 133.2 20.6084 133.041C20.5704 132.876 20.5566 132.704 20.5613 132.501C20.7072 126.106 20.6547 119.517 23.2828 113.612C23.7766 112.471 24.3284 110.913 25.5697 110.573C26.6811 103.864 28.6177 97.3465 30.6295 90.8778C32.0505 84.4574 33.938 78.3952 36.4368 72.3738C37.8578 68.1855 38.4776 63.4643 41.1564 59.9005C43.6329 57.7434 45.8799 61.8403 48.3747 62.274C50.2818 63.1048 52.4453 63.3225 54.3001 64.2601C55.0902 64.2981 56.0538 64.5901 56.67 65.1541C58.3205 65.146 60.4126 67.0616 61.7486 67.7479C68.431 71.9717 71.3086 79.7083 73.295 87.1893C76.7534 96.117 81.9965 104.17 86.7873 112.373C86.7814 112.348 86.7635 112.325 86.7484 112.316C86.7425 112.29 86.7275 112.28 86.6647 112.174C93.0172 123.833 102.269 133.165 110.273 143.538C119.937 155.392 128.076 168.475 134.649 182.434C138.218 191.281 146.993 205.461 143.38 214.83C141.078 218.64 139.496 222.907 138.821 227.386C138.442 228.916 138.463 231.184 136.744 231.732L136.765 231.714Z" fill="#798A38"/>
<path fill-rule="evenodd" clip-rule="evenodd" d="M140.117 216.908C141.279 215.888 141.677 213.829 143.053 213.349C144.622 212.931 145.872 214.807 145.128 216.251C144.552 217.371 143.616 218.256 142.905 219.288C141.478 221.165 138.666 218.791 140.12 216.921L140.117 216.908Z" fill="#798A38"/>
<path fill-rule="evenodd" clip-rule="evenodd" d="M35.6921 121.134C34.7862 116.351 36.5159 111.442 37.7127 106.891C39.2308 102.68 40.0664 98.2292 41.5996 94.0273C42.554 90.9869 44.0666 88.2017 45.0933 85.1977C44.1307 83.2919 46.1535 81.446 46.7458 79.73C47.0372 79.2697 47.281 78.7135 47.5277 78.1699C47.496 77.9759 47.5006 77.773 47.5296 77.5644C47.5933 76.0565 48.8357 75.219 49.9007 75.3386C50.8263 74.3489 52.5964 74.5271 53.0507 76.0041C53.5272 77.7448 51.5993 78.7207 51.0091 80.1673C48.514 86.4837 45.6807 92.6665 43.6926 99.1833C42.2655 105.242 39.7902 110.975 39.0581 117.216C38.5516 118.804 39.6048 120.379 39.1079 121.897C38.316 123.58 35.8404 123.008 35.6921 121.134ZM57.9626 134.506C59.6053 132.846 61.8973 135.131 63.7235 135.497C65.3561 136.192 68.7557 136.717 67.8261 139.308C74.6975 144.131 81.0912 149.608 88.0057 154.341C95.0342 159.57 102.39 164.438 108.625 170.733C110.817 170.07 112.098 173.028 113.594 174.241C116.733 177.652 119.907 181.041 122.589 184.858C124.512 187.487 126.258 190.239 128.038 192.97C129.541 195.781 134.891 201.845 133.834 204.83C130.921 209.378 124.862 198.106 123.09 195.911C120.408 192.04 117.658 188.32 114.975 184.557C109.995 176.978 103.844 170.273 96.4814 165.205C88.0149 158.789 79.1738 152.639 70.866 146.077C68.3621 144.153 65.7908 142.326 63.1521 140.596C61.5356 139.023 55.9742 137.339 57.9655 134.519L57.9626 134.506Z" fill="#D3D59A"/>
<path fill-rule="evenodd" clip-rule="evenodd" d="M158.434 233.09C156.02 234.573 153.104 227.558 151.563 225.926C147.308 219.611 142.758 213.515 138.296 207.357C133.798 201.1 129.456 194.739 124.949 188.498C124.22 186.939 121.521 184.78 121.016 182.858C119.908 181.605 118.761 180.403 117.569 179.225C108.98 170.661 98.5 164.623 89.2109 156.968C81.0247 150.713 75.0329 141.63 66.2706 136.214C61.618 133.746 56.3408 132.854 51.2289 132.123C48.0496 131.33 35.2919 132.391 35.9452 127.648C39.4985 118.185 42.1461 108.404 45.2768 98.7741C48.0604 90.1427 52.1707 81.8232 55.476 73.4559C57.4816 67.0155 60.5797 61.0378 62.546 54.5936C62.6872 53.9813 63.1326 53.5781 63.6549 53.3983C64.844 50.5433 70.0022 54.1532 72.1807 54.3807C78.8651 55.3771 84.9381 58.9546 91.0129 61.9266C97.8618 65.4246 104.846 68.6747 111.181 73.1706C117.124 77.8552 122.675 83.0107 128.269 88.129C134.662 93.3775 137.74 101.321 142.459 107.928C146.323 112.872 148.42 118.995 151.665 124.371C153.616 127.961 155.452 131.605 157.151 135.324C160.633 137.657 165.665 146.299 167.195 147.719C173.528 155.832 179.724 164.073 185.456 172.64C186.331 175.334 183.144 176.909 182.035 178.884C178.636 184.948 176.295 191.657 172.529 197.514C172.465 197.906 172.314 198.305 172.038 198.721C169.819 203.452 168.503 208.542 166.779 213.476C165.254 217.044 163.234 220.799 161.981 224.435C161.214 226.731 160.967 229.171 160.188 231.47C159.958 232.251 159.407 232.64 158.809 232.717C158.696 232.838 158.571 232.962 158.422 233.093L158.434 233.09Z" fill="#92A549"/>
<path fill-rule="evenodd" clip-rule="evenodd" d="M82.9795 100.585C84.7955 97.7269 95.0463 98.4681 91.2783 103.034C93.3149 104.708 92.8776 108.215 90.7232 109.488C86.5792 111.133 79.0308 105.033 82.9795 100.585ZM85.4265 103.545C86.1032 104.874 87.6873 105.581 88.9823 106.089C88.9794 106.076 88.9978 106.045 89.007 106.029C89.0133 106.001 89.0225 105.985 89.0288 105.957C87.9712 104.921 85.6231 105.07 85.6665 103.083C85.5112 103.188 85.422 103.358 85.4144 103.548L85.4265 103.545Z" fill="#92A549"/>
<path fill-rule="evenodd" clip-rule="evenodd" d="M55.2766 75.6013C57.6474 70.8075 60.3378 66.1786 61.3746 60.819C62.0461 59.057 62.1066 56.0842 64.254 55.6739C66.2535 55.5681 66.6343 57.8966 65.5784 59.2672C64.0641 65.616 61.6511 71.5091 58.5314 77.1694C57.6171 79.3799 54.2778 77.7785 55.2766 75.6013ZM150.658 218.803C152.247 218.137 152.953 219.93 153.754 220.96C154.622 221.786 155.107 223.175 154.134 224.123C151.996 226.359 147.553 220.009 150.658 218.803ZM128.914 189.867C130.859 186.736 133.146 191.119 134.383 192.77C137.114 196.576 139.888 200.344 142.759 204.035C145.037 206.928 147.281 209.896 148.67 213.379C149.554 215.613 146.167 216.982 145.349 214.705C142.263 208.067 136.908 202.932 132.909 196.891C131.965 194.9 128.179 191.967 128.929 189.877L128.914 189.867ZM143.676 115.46C145.314 113.613 146.968 115.795 147.372 117.553C148.07 118.756 148.843 120.506 147.316 121.385C145.54 122.352 144.558 120.195 144 118.77C143.582 117.728 142.835 116.483 143.676 115.46ZM122.692 87.2689C123.685 81.2744 129.898 90.3714 131.736 91.9047C133.555 94.3031 144.573 106.087 140.851 108.289C140.036 108.754 138.851 108.448 138.423 107.53C137.358 105.178 135.955 103.029 134.409 100.981C131.504 96.976 128.242 93.2582 124.727 89.8303C124.007 89.0359 122.824 88.4605 122.692 87.2689ZM51.3917 86.354C51.9081 85.4227 51.9474 84.3106 52.4696 83.4048C53.3484 82.2113 55.3038 82.6943 55.5945 84.1839C55.7656 85.4873 55.0772 86.729 54.6315 87.9122C53.7021 90.1129 50.4079 88.5409 51.3767 86.3441L51.3917 86.354Z" fill="#A8BB60"/>
<path fill-rule="evenodd" clip-rule="evenodd" d="M160.555 210.137C159.728 212.057 157.595 212.921 155.715 213.213C153.781 213.438 152.737 211.511 151.822 210.038C139.919 192.054 128.139 173.381 112.328 158.854C103.42 150.125 94.5353 140.826 83.5192 135.133C78.9918 132.54 74.2767 130.303 69.7861 127.648C66.1111 125.253 58.8555 122.996 57.6933 118.436C56.9826 116.456 53.4874 116.519 54.471 113.996C54.0146 113.515 53.7993 112.8 54.154 112.002C56.8667 106.131 60.8366 100.938 63.112 94.8356C64.0809 92.2488 64.5936 89.5166 65.2876 86.8482C66.7054 83.4271 67.3194 79.7965 67.876 76.1394C68.9357 70.2096 71.8948 74.6188 74.8637 72.9884C75.9521 72.094 77.4095 71.245 77.7578 69.7491C78.0436 68.8735 78.8598 68.3001 79.7549 68.4607C79.9812 68.554 80.1712 68.6561 80.3398 68.7768C81.7088 68.3794 83.7983 69.5024 85.1377 69.7575C92.4431 72.231 98.6925 77.1912 105.148 81.4295C111.356 85.8214 117.007 91.0202 122.405 96.4548C126.856 100.666 130.251 105.857 133.71 110.939C139.481 118.502 143.879 127.002 148.943 135.058C154.816 145.017 159.761 155.791 167.895 164.048C169.842 165.891 171.557 167.723 171.363 170.62C171.733 172.844 172.994 174.879 172.967 177.158C172.957 179.07 171.731 180.536 170.873 182.1C169.251 184.966 167.852 188.02 166.805 191.163C165.494 194.935 163.542 198.431 162.512 202.31C161.589 204.818 161.484 207.6 160.574 210.105L160.555 210.137Z" fill="#F0F2C0"/>
<path fill-rule="evenodd" clip-rule="evenodd" d="M70.199 71.6931C70.9046 71.6977 71.4182 72.2058 71.8499 72.7471C73.9831 74.4511 76.7681 73.4702 78.0674 71.2071C78.1328 70.9897 78.2132 70.782 78.2995 70.5999C78.4077 69.9552 78.8151 69.3864 79.5948 69.2118C79.6312 69.203 79.6676 69.1942 79.704 69.1854C80.1657 69.0203 80.6318 69.0423 81.0239 69.2436C82.6416 69.5391 84.1561 70.6126 85.6252 71.3205C86.7281 67.1417 97.7839 76.5228 99.97 77.6762C109.364 83.2765 116.847 91.4351 123.95 99.8334C137.355 114.093 146.022 131.984 155.869 148.877C159.325 154.444 162.904 159.994 167.415 164.688C169.893 166.78 170.739 170.018 172.309 172.786C172.954 174.257 174.345 175.683 173.971 177.4C173.738 178.061 173.363 178.434 172.916 178.609C167.897 187.269 163.474 196.457 160.691 206.204C160.501 206.774 160.463 207.443 160.412 208.114C160.574 208.209 160.728 208.32 160.869 208.434C162.512 210.175 159.86 213.02 158.19 211.272C157.428 211.24 156.686 211.527 156.359 212.278C155.211 214.249 152.333 212.483 153.194 210.54C153.103 210.482 153.001 210.426 152.905 210.341C152.141 209.692 152.038 208.52 152.635 207.717C153.646 206.317 155.458 205.84 157.066 206.151C158.423 199.786 161.383 193.99 163.794 188.03C165.511 184.295 167.585 180.661 169.591 177.125C169.513 177.01 169.435 176.894 169.373 176.788C168.532 175.525 168.193 173.993 167.465 172.663C166.578 171.479 165.414 170.536 164.497 169.386C158.641 162.179 154.222 153.362 149.413 145.473C147.225 141.913 145.068 138.318 142.914 134.737C143.1 136.494 143.155 138.242 142.932 140.004C141.281 155.69 125.929 167.043 112.252 157.515C108.314 154.364 104.919 149.844 104.071 144.697C103.794 143.715 103.569 142.68 103.414 141.615C101.431 131.915 107.135 121.665 116.042 118.562C118.311 117.678 126.5 114.291 125.136 119.622C124.54 120.761 123.356 120.347 122.37 120.518C120.044 120.931 117.833 121.787 115.684 122.803C111.403 124.803 108.278 128.878 107.135 133.605C108.358 135.085 107.147 139.908 107.581 143.918C109.445 149.694 113.893 154.564 119.84 155.416C123.621 155.593 127.99 155.709 131.168 153.315C134.998 149.689 136.999 144.46 137.37 139.153C137.559 137.131 137.472 135.081 137.004 133.097C136.67 131.698 137.776 130.826 138.833 130.854C138.841 130.22 138.934 129.619 139.193 129.073C139.251 128.992 139.312 128.923 139.385 128.852C136.992 124.898 134.562 120.952 132.056 117.066C124.486 105.795 114.822 95.7826 104.133 87.8324C98.5751 83.8752 93.1401 79.6732 87.1951 76.374C85.196 75.3099 83.2652 74.0411 81.1614 73.1904C75.8965 82.3396 63.6968 73.611 70.2475 71.6814L70.199 71.6931ZM53.7215 111.622C57.0235 109.992 60.4532 115 61.9186 117.645C62.7826 119.4 64.0077 123.286 61.0963 123.437C60.6301 123.415 60.1837 123.2 59.8716 122.845C59.2349 122.192 59.4667 121.249 59.1916 120.441C58.4643 118.277 56.981 116.335 55.1226 115.103C53.2476 115.528 52.1832 112.733 53.7336 111.619L53.7215 111.622ZM141.988 178.633C143.517 186.412 153.498 186.143 154.6 178.388C154.988 176.008 151.42 175.363 151.083 177.744C148.682 185.53 141.815 176.039 147.288 172.649C149.425 173.142 150.203 169.781 148.235 168.965C143.791 168.02 140.612 174.649 142 178.63L141.988 178.633ZM81.3784 107.224C81.3529 107.001 81.3396 106.776 81.3506 106.545C81.5815 104.593 81.9024 102.364 83.8654 101.541C85.5938 102.375 87.197 99.9848 85.8701 98.5568C83.7279 96.4785 80.5834 98.8504 79.2619 100.85C78.138 102.761 77.8036 105.155 77.7643 107.383C79.0084 116.764 92.9379 117.962 94.2714 108.148C94.3254 107.1 94.1914 106.07 94.006 105.039C93.7312 103.451 91.4933 103.077 90.7492 104.466C90.2056 105.391 90.7359 106.473 90.7217 107.471C90.7267 107.604 90.7166 107.728 90.7065 107.851C90.5701 107.871 90.4274 107.919 90.2725 107.97C88.1108 108.652 85.6163 109.671 83.4645 108.388C83.1627 107.52 82.2305 107.085 81.3876 107.208L81.3784 107.224Z" fill="#D6D89B"/>
<path fill-rule="evenodd" clip-rule="evenodd" d="M81.1186 101.908C82.4965 96.695 89.5981 97.779 92.1512 101.479C93.4184 103.54 94.5085 107.284 92.4376 109.088C88.5536 111.531 80.3568 106.959 81.1186 101.908Z" fill="#92A549"/>
<path fill-rule="evenodd" clip-rule="evenodd" d="M145.021 172.039C149.37 166.822 157.647 176.04 152.693 180.461C148.42 184.222 142.189 176.272 145.021 172.039Z" fill="#92A549"/>
<path fill-rule="evenodd" clip-rule="evenodd" d="M134.633 149.777C127.17 159.281 109.424 158.25 106.818 144.667C104.859 137.139 106.227 129.817 111.908 124.601C116.438 120.12 122.778 116.991 129.127 118.538C130.633 118.901 132.35 119.186 133.044 120.646C136.843 122.742 139.406 127.099 139.472 131.574C139.82 137.998 138.819 144.854 134.636 149.789L134.633 149.777Z" fill="#92A549"/>
<path fill-rule="evenodd" clip-rule="evenodd" d="M110.63 136.392C110.827 125.642 126.397 117.638 133.4 126.665C134.001 129.505 131.064 129.877 129.687 127.843C124.591 124.501 117.212 128.069 114.928 133.406C114.53 134.578 114.284 135.794 114.144 137.024C113.819 139.402 110.214 138.765 110.627 136.38L110.63 136.392ZM144.423 174.738C145.088 172.279 148.181 168.844 150.613 171.067C151.82 172.309 150.627 174.587 149.007 174.171C147.704 175.023 147.709 177.778 145.616 177.086C144.701 176.782 144.107 175.702 144.426 174.751L144.423 174.738ZM81.8194 104.684C82.9711 97.4815 92.1957 96.3189 89.4976 101.528C89.0697 102.008 88.4487 102.036 87.8733 102.041C86.5791 102.541 85.632 103.939 85.3361 105.328C84.9745 107.715 81.4155 107.054 81.8194 104.684ZM112.858 143.25C114.875 142.885 115.501 145.612 117.004 146.526C118.824 148.037 116.562 150.962 114.773 149.417C113.243 148.052 109.549 144.627 112.858 143.25ZM112.141 146.489C112.334 146.658 112.557 146.792 112.801 146.854C112.566 146.777 112.334 146.658 112.141 146.489Z" fill="#798B35"/>
<path fill-rule="evenodd" clip-rule="evenodd" d="M34.913 128.73C35.0906 128.109 35.7847 127.673 36.3914 127.917C40.4459 129.453 44.6491 130.577 48.9174 131.148C69.6525 132.977 76.9857 145.058 92.3263 156.7C103.625 165.243 116.15 172.764 124.437 184.816C129.837 192.213 134.183 200.711 140.08 207.653C146.819 215.749 152.525 224.645 158.462 233.379C160.821 225.576 163.807 218.052 167.126 210.636C170.117 202.183 172.989 193.88 176.695 185.752C183.776 170.732 190.08 178.718 177.053 162.592C168.262 151.307 159.522 139.902 152.239 127.486C146.264 116.355 141.084 104.615 133.194 94.7398C119.665 78.2104 102.132 65.4434 82.4678 58.515C77.9338 56.7311 73.3092 55.2783 68.6382 53.9577C67.0437 53.038 62.6266 53.2697 63.0329 50.9666C63.2198 50.3299 63.9012 49.9504 64.5113 50.1528C88.8302 56.6577 110.399 66.5285 128.269 85.6147C140.896 97.6556 147.507 114.294 156.113 129.295C162.484 139.752 169.961 149.445 177.369 159.114C180.634 163.799 185.28 167.855 187.277 173.317C187.435 177.299 181.117 180.853 179.704 185.08C174.047 196.758 170.721 209.446 165.25 221.213C164.231 223.691 163.254 226.132 162.497 228.694C161.578 231.107 160.984 237.893 157.397 235.827C155.387 233.488 153.829 230.718 152.033 228.193C146.858 219.881 140.684 212.347 134.72 204.67C129.42 197.369 125.249 189.245 119.488 182.285C109.543 170.431 95.8065 163.323 84.2642 153.441C71.2728 141.152 63.7888 134.943 45.7726 133.184C43.5164 132.451 34.2203 131.237 34.9188 128.756L34.913 128.73Z" fill="#542122"/>
<path fill-rule="evenodd" clip-rule="evenodd" d="M34.9899 127.058C37.1467 123.62 38.1304 119.591 39.1073 115.644C41.0074 108.019 42.9411 100.373 45.7141 93.0346C51.5508 78.7321 57.4817 64.3934 62.6179 49.8296C63.037 49.3116 63.7916 49.2507 64.2906 49.695C65.4565 50.8122 63.2773 53.6506 63.1587 55.1986C58.0223 71.2684 50.1181 86.2174 45.1206 102.334C42.7992 109.631 41.5619 117.298 38.9718 124.484C38.0607 125.927 37.4978 129.613 35.3425 128.761C34.7823 128.385 34.6311 127.615 34.9719 127.035L34.9899 127.058Z" fill="#542122"/>
<path fill-rule="evenodd" clip-rule="evenodd" d="M42.1249 56.9775C42.8385 56.7382 43.2998 57.353 43.8299 57.7092C48.031 60.2188 52.7423 62.1616 57.5559 62.7083C59.0837 62.8911 58.8121 65.3904 57.2784 65.1821C55.2688 65.4113 37.4096 59.9838 42.1249 56.9775Z" fill="#542122"/>
<path fill-rule="evenodd" clip-rule="evenodd" d="M19.1504 135.894C20.1634 129.37 20.306 122.626 21.7484 116.188C23.3727 109.705 26.3286 103.721 28.4601 97.4385C30.4668 87.8785 33.3297 78.4211 36.8009 69.3818C37.9648 65.5244 38.7668 61.4854 40.4258 57.8314C41.3641 56.3949 43.5308 58.0775 42.3301 59.3755C40.0201 66.3868 38.1088 73.517 35.3942 80.3838C33.106 86.9326 32.1231 93.8658 29.9651 100.424C27.6063 106.72 24.7216 112.902 23.4319 119.56C22.8345 124.881 22.461 130.228 21.5187 135.498C39.9605 141.901 59.5927 146.403 75.923 158.115C88.657 167.441 98.7026 180.011 108.72 192.291C119.033 204.406 129.176 216.898 136.732 231.117C138.723 228.633 140.806 214.887 143.988 216.082C145.392 217.008 143.938 218.542 143.523 219.637C141.641 223.936 140.893 228.487 138.685 232.596C136.858 236.855 134.902 233.078 133.774 230.62C132.628 228.476 131.337 226.421 130.033 224.369C125.683 217.082 120.413 210.528 115.28 203.846C95.4033 180.202 80.2754 157.657 50.1798 147.638C43.4313 145.581 36.8668 142.875 30.1455 140.826C27.0199 139.374 20.3715 139.539 19.1625 135.891L19.1504 135.894Z" fill="#542122"/>
<path fill-rule="evenodd" clip-rule="evenodd" d="M68.7658 71.0303C70.9943 68.4625 73.1187 76.0984 77.5144 68.0732C77.2699 64.9992 81.573 66.5026 79.3291 69.8406C77.6537 72.9205 74.2065 75.6478 70.7824 73.6769C69.8602 73.1194 68.0761 72.4337 68.7629 71.0176L68.7658 71.0303Z" fill="#542122"/>
<path fill-rule="evenodd" clip-rule="evenodd" d="M52.1228 114.199C53.6425 110.162 56.3359 106.662 57.6025 102.47C60.685 93.1888 64.2688 84.082 66.9861 74.6598C67.2518 73.641 67.5024 72.6125 67.8225 71.6075C68.3616 70.106 70.616 71.0547 70.0376 72.5523C68.1664 79.9687 65.3742 87.0559 63.044 94.314C60.5671 100.989 58.5128 107.831 54.7962 113.904C57.0129 115.023 59.488 116.766 59.9658 119.461C60.1942 120.791 59.9349 123.623 58.0892 123.06C57.0963 122.641 57.3202 121.551 57.6327 120.736C58.1551 116.819 51.9784 116.695 52.1228 114.199Z" fill="#542122"/>
<path fill-rule="evenodd" clip-rule="evenodd" d="M58.6922 121.112C68.2233 123.964 77.1068 129.741 85.5166 135.296C96.0634 142.85 106.333 150.982 115.337 160.522C124.575 170.355 133.039 180.885 140.718 192.076C144.719 197.283 149.463 201.934 152.756 207.688C154.132 210.112 155.363 212.626 156.417 215.209C156.699 215.826 156.4 216.584 155.819 216.845C153.764 217.489 153.481 213.469 152.495 212.295C148.897 204.491 142.579 198.673 137.549 191.939C126.548 175.768 113.691 160.717 98.7128 148.477C89.8479 141.162 80.5614 134.299 70.5026 128.927C67.6704 127.526 64.8169 126.143 61.9508 124.818C60.7283 123.956 58.6078 124.037 57.8802 122.653C57.7067 122.009 58.064 121.277 58.6922 121.112Z" fill="#542122"/>
<path fill-rule="evenodd" clip-rule="evenodd" d="M78.1286 67.7366C78.1241 63.8114 93.6965 73.394 95.692 74.1632C115.448 84.673 130.787 102.057 142.72 121.338C149.336 132.583 155.151 144.357 162.16 155.36C164.919 159.454 167.909 163.439 171.642 166.586C173.084 168.686 172.563 171.716 174.361 173.635C177.78 177.705 169.613 186.707 168.51 191.276C166.547 195.783 164.545 200.286 162.968 204.969C161.869 207.265 162.679 212.582 160.184 213.372C156.151 213.269 156.683 216.314 154.761 215.527C152.524 213.149 157.445 210.873 159.38 210.985C160.391 202.391 164.493 194.759 167.775 186.962C168.789 184.405 174.055 177.434 172.493 175.148C170.827 173.304 170.665 170.533 169.923 168.305C165.297 164.338 161.72 159.191 158.45 153.983C152.339 143.825 146.868 133.272 140.953 123.014C132.216 109.228 122.13 95.9829 109.38 86.0288C102.677 80.9898 95.409 76.5576 87.971 72.8925C85.3953 71.6044 82.7949 70.376 80.1015 69.4121C79.2437 69.1349 78.0064 68.9897 78.1587 67.7562L78.1286 67.7366Z" fill="#542122"/>
<path fill-rule="evenodd" clip-rule="evenodd" d="M106.118 143.961C105.109 138.786 105.076 133.174 107.332 128.381C110.281 122.869 115.229 117.978 121.273 116.628C136.407 113.085 144.878 129.732 139.024 143.124C136.591 150.824 130.294 156.82 122.308 156.904C113.452 158.166 107.61 153.027 106.118 143.961ZM109.235 146.437C111.394 155.839 122.204 155.948 129.06 152.56C133.437 150.254 135.818 145.337 137.333 140.668C140.07 133.339 138.143 124.109 131.214 120.093C123.212 116.147 114.734 120.84 110.201 128.159C106.981 133.548 107.421 140.541 109.235 146.437Z" fill="#542122"/>
<path fill-rule="evenodd" clip-rule="evenodd" d="M80.1107 104.436C78.7471 98.9431 84.7251 95.5785 89.1897 97.3388C91.9114 98.5379 94.7796 101.1 95.1772 104.339C95.8543 114.932 81.5488 113.045 80.1107 104.436ZM82.443 103.995C83.0653 107.542 87.3362 110.022 90.5493 108.897C92.4653 108.26 93.1861 105.653 92.641 103.781C92.0328 101.857 90.1257 101.026 88.8121 99.8233C85.9606 98.5614 81.4509 100.12 82.443 103.995Z" fill="#542122"/>
<path fill-rule="evenodd" clip-rule="evenodd" d="M143.556 175.754C141.72 165.803 154.542 167.538 155.346 175.613C155.972 184.7 145.11 182.694 143.556 175.754ZM145.92 175.453C146.55 177.64 149.028 179.45 151.2 179.316C153.644 178.578 153.35 174.844 151.813 173.225C151.325 173.329 150.803 173.065 150.528 172.593C148.012 169.893 144.951 171.787 145.923 175.466L145.92 175.453Z" fill="#542122"/>
<path fill-rule="evenodd" clip-rule="evenodd" d="M33.9603 118.109C35.948 109.024 39.5245 100.444 41.4666 91.3832C42.6636 86.4421 43.7915 81.4236 45.7525 76.742C47.4482 72.2993 49.1574 71.766 53.4563 72.3023C56.0434 72.1893 55.0604 75.3845 52.751 74.8658C49.7943 74.2612 49.2216 74.6683 48.0384 77.5487C45.411 83.7357 44.2783 90.463 42.6233 96.9801C40.5638 104.469 37.3296 111.918 36.3706 119.625C36.5279 120.757 37.8267 121.17 38.0908 122.209C37.1875 126.42 33.0551 120.304 33.9753 118.119L33.9603 118.109Z" fill="#542122"/>
<path fill-rule="evenodd" clip-rule="evenodd" d="M50.5952 134.105C50.9284 130.367 55.9493 135.22 57.5833 135.754C66.1122 140.823 74.6887 145.989 82.1624 152.711C89.9421 159.427 98.9225 164.454 106.133 171.926C116.048 181.972 122.957 194.719 131.747 205.777C132.645 205.116 133.277 204.13 133.926 203.221C134.8 201.894 136.778 203.42 135.856 204.705C132.96 209.222 130.82 209.55 127.927 204.708C124.167 199.766 120.718 194.56 117.086 189.507C111.961 182.083 106.505 174.888 99.5958 169.173C93.8314 164.149 87.2304 160.336 81.4752 155.297C74.4014 148.922 66.4299 143.826 58.3257 139.044C56.1045 137.738 53.9138 136.397 51.6557 135.153C51.1293 135.092 50.6725 134.664 50.5952 134.105Z" fill="#542122"/>
<path fill-rule="evenodd" clip-rule="evenodd" d="M76.7889 171.877C79.184 169.309 88.0857 180.299 90.269 182.166C91.5778 183.961 99.6093 190.992 97.4777 192.811C96.9658 193.203 96.1945 193.08 95.8114 192.527C92.0676 187.043 87.2077 182.501 82.6216 177.811C80.9479 176.212 79.1184 174.77 77.1687 173.587C76.6051 173.252 76.4422 172.431 76.7738 171.867L76.7889 171.877Z" fill="#542122"/>
<path fill-rule="evenodd" clip-rule="evenodd" d="M103.048 200.113C105.185 198.764 106.187 202.852 107.272 204.177C108.03 205.58 105.925 206.787 105.188 205.365C104.741 203.806 101.807 201.515 103.048 200.113Z" fill="#542122"/>
<path fill-rule="evenodd" clip-rule="evenodd" d="M87.6617 81.5865C88.1603 77.6207 103.85 88.0489 105.378 89.7377C106.298 90.5646 107.193 91.4513 108.042 92.3624C109.114 93.5158 107.386 95.2503 106.333 94.0656C104.994 92.6406 103.575 91.3154 102.043 90.1116C98.6496 87.7704 95.0875 85.6445 91.3489 83.978C90.1955 83.194 87.525 83.5019 87.6617 81.5865Z" fill="#542222"/>
<path fill-rule="evenodd" clip-rule="evenodd" d="M111.279 97.5919C112.003 96.1131 113.55 97.2728 114.309 98.125C115.069 98.9772 116.745 100.2 115.651 101.405C114.319 102.573 113.397 100.456 112.47 99.7115C111.799 99.1876 110.814 98.632 111.279 97.5919Z" fill="#542222"/>
<path fill-rule="evenodd" clip-rule="evenodd" d="M91.0219 90.3093C91.8542 87.016 99.6265 93.1418 100.887 94.505C102.106 95.5154 100.572 97.4853 99.3939 96.4249C98.1167 95.2135 96.7633 94.0609 95.2563 93.1874C94.1284 92.2358 90.7262 92.0345 91.0189 90.2966L91.0219 90.3093Z" fill="#542222"/>
<path fill-rule="evenodd" clip-rule="evenodd" d="M151.415 152.129C151.669 151.113 153.142 150.946 153.595 151.913C153.868 152.492 154.176 153.05 154.471 153.611C155.548 155.624 156.661 157.627 157.829 159.591C158.953 161.472 160.274 163.21 161.861 164.71C162.649 165.69 164.828 166.589 163.832 168.107C162.461 170.172 157.777 163.772 156.87 162.552C155.437 160.383 154.18 158.091 152.924 155.799C152.446 154.61 151.262 153.471 151.403 152.132L151.415 152.129Z" fill="#542222"/>
<path fill-rule="evenodd" clip-rule="evenodd" d="M114.128 134.662C115.456 128.452 120.72 124.937 126.686 125.757C128.158 126.087 131.671 126.047 131.119 128.385C130.527 129.711 129.235 128.772 128.274 128.547C122.865 127.135 117.622 129.408 116.399 135.405C115.971 136.946 113.661 136.199 114.115 134.664L114.128 134.662Z" fill="#542222"/>
<path fill-rule="evenodd" clip-rule="evenodd" d="M130.368 131.807C131.077 129.484 133.5 131.67 133.796 133.185C134.791 137.517 131.216 138.016 131.414 135.36C132.206 133.286 130.303 133.368 130.368 131.807Z" fill="#542222"/>
<path fill-rule="evenodd" clip-rule="evenodd" d="M69.6376 117.626C69.7557 116.132 69.0415 112.351 71.4738 113.015C72.8892 113.991 71.6627 116.237 72.0199 117.737C71.9946 119.357 69.5822 119.226 69.6376 117.626Z" fill="#542222"/>
<path fill-rule="evenodd" clip-rule="evenodd" d="M74.8023 119.365C74.8485 117.781 76.0635 115.094 77.4867 117.333C77.5256 118.507 77.354 120.995 75.7747 120.811C75.1458 120.694 74.6727 120.028 74.7901 119.368L74.8023 119.365Z" fill="#542222"/>
<path fill-rule="evenodd" clip-rule="evenodd" d="M80.3723 123.709C80.5586 122.4 80.8999 119.535 82.7554 120.754C83.7322 121.662 82.7278 123.033 82.7278 124.149C82.4908 125.739 80.1202 125.289 80.3752 123.722L80.3723 123.709Z" fill="#542222"/>
<path fill-rule="evenodd" clip-rule="evenodd" d="M84.7709 127.247C84.886 126.13 85.8205 124.788 86.9396 125.702C87.7069 126.31 87.2542 127.239 87.0422 127.99C86.6148 129.532 84.3013 128.772 84.7709 127.247ZM85.1409 127.184C85.1409 127.184 85.1526 127.235 85.1584 127.261C85.2032 127.344 85.245 127.415 85.3111 127.479C85.2392 127.389 85.1793 127.296 85.1288 127.187L85.1409 127.184Z" fill="#542222"/>
<path fill-rule="evenodd" clip-rule="evenodd" d="M166.803 203.118C165.959 203.21 165.115 202.658 164.855 201.792C164.331 199.772 163.638 197.809 162.787 195.903C161.38 192.809 159.665 189.892 157.998 186.944C154.726 180.937 151.797 174.708 148.24 168.862C144.402 163.087 140.555 157.353 137.165 151.279C133.891 145.758 130.59 140.477 126.769 135.396C119.57 126.542 110.976 118.958 102.026 112.214C97.4376 109.163 92.6305 106.439 87.5198 104.457C81.7856 102.386 75.97 100.508 70.5825 97.4914C69.1575 96.5158 67.045 96.2066 66.1488 94.608C64.8262 93.9105 62.6426 92.8728 63.7233 90.967C63.8754 90.7269 64.0451 90.5375 64.2198 90.4001C64.2033 90.231 64.2116 90.0591 64.2421 89.8586C65.2047 83.5346 65.9955 76.9927 69.3572 71.4726C69.9928 70.4041 70.7393 68.9291 72.0139 68.751C73.9742 62.2395 76.7285 56.0229 79.5512 49.8646C81.7816 43.6787 84.4289 37.9076 87.6773 32.2552C89.6223 28.2831 90.8409 23.68 93.9534 20.488C96.6854 18.6654 98.39 23.016 100.809 23.7652C102.594 24.8331 104.712 25.3257 106.432 26.4929C107.21 26.6316 108.129 27.0444 108.668 27.6826C110.306 27.8856 112.136 30.0532 113.373 30.9046C119.46 35.9484 121.325 43.9895 122.338 51.6631C124.626 60.9598 128.796 69.6177 132.499 78.366C132.496 78.34 132.481 78.3154 132.467 78.3037C132.465 78.2777 132.451 78.266 132.402 78.153C137.212 90.5281 145.193 100.967 151.805 112.278C159.874 125.271 166.273 139.288 171.007 153.972C173.415 163.203 180.305 178.389 175.523 187.219C172.752 190.703 170.637 194.733 169.395 199.089C168.823 200.558 168.554 202.809 166.78 203.134L166.803 203.118Z" fill="#798A38"/>
<path fill-rule="evenodd" clip-rule="evenodd" d="M172.02 188.863C173.303 188 173.962 186.009 175.388 185.709C176.997 185.494 177.998 187.516 177.074 188.852C176.361 189.89 175.318 190.647 174.481 191.58C172.826 193.259 170.341 190.545 172.022 188.876L172.02 188.863Z" fill="#798A38"/>
<path fill-rule="evenodd" clip-rule="evenodd" d="M80.7026 80.5199C80.4158 75.6599 82.759 71.0132 84.5281 66.6526C86.5724 62.6696 87.9704 58.3626 90.0283 54.3913C91.3638 51.4979 93.2201 48.9291 94.6227 46.081C93.9116 44.0678 96.1539 42.4957 96.9609 40.8695C97.3088 40.4504 97.6217 39.9298 97.9358 39.4223C97.9292 39.2258 97.9598 39.0252 98.0152 38.822C98.2712 37.3346 99.6105 36.6629 100.651 36.9177C101.696 36.0546 103.429 36.4576 103.691 37.9807C103.94 39.7679 101.904 40.4893 101.133 41.8486C97.8507 47.7939 94.25 53.5636 91.4448 59.7726C89.2545 65.5991 86.0662 70.9688 84.542 77.0647C83.8366 78.5746 84.6797 80.271 83.9927 81.7132C82.992 83.2816 80.61 82.397 80.7026 80.5199ZM101.08 96.6307C102.921 95.1943 104.902 97.753 106.667 98.3498C108.197 99.2483 111.502 100.203 110.248 102.654C116.446 108.317 122.087 114.566 128.339 120.144C134.642 126.23 141.314 131.999 146.693 139.039C148.952 138.662 149.844 141.76 151.172 143.154C153.85 146.938 156.564 150.706 158.736 154.835C160.307 157.688 161.686 160.641 163.102 163.576C164.234 166.556 168.764 173.255 167.335 176.08C163.863 180.218 159.295 168.264 157.819 165.861C155.654 161.679 153.403 157.637 151.223 153.562C147.253 145.408 142.01 137.971 135.356 132.003C127.78 124.557 119.798 117.327 112.397 109.757C110.16 107.528 107.844 105.388 105.448 103.334C104.046 101.567 98.7455 99.1858 101.081 96.6437L101.08 96.6307Z" fill="#D3D59A"/>
<path fill-rule="evenodd" clip-rule="evenodd" d="M188.117 207.254C185.534 208.416 183.538 201.086 182.22 199.271C178.807 192.463 175.074 185.835 171.436 179.157C167.775 172.377 164.282 165.512 160.611 158.746C160.087 157.107 157.686 154.62 157.431 152.649C156.493 151.266 155.509 149.926 154.477 148.606C147.054 139.013 137.432 131.685 129.199 122.904C121.88 115.654 117.099 105.879 109.101 99.3864C104.802 96.3437 99.6826 94.784 94.7061 93.4061C91.6543 92.213 78.8657 91.6328 80.1202 87.0127C84.8546 78.0823 88.7314 68.7194 93.0681 59.5694C96.9327 51.3649 102.073 43.6394 106.422 35.7636C109.234 29.6326 113.072 24.1002 115.846 17.9604C116.064 17.3712 116.558 17.0282 117.099 16.9168C118.643 14.2373 123.297 18.4772 125.429 18.9815C131.931 20.8246 137.496 25.1495 143.141 28.874C149.486 33.2192 155.997 37.3359 161.705 42.6051C167 48.0113 171.847 53.8344 176.74 59.6261C182.409 65.6491 184.447 73.9212 188.282 81.0772C191.481 86.4748 192.778 92.8158 195.309 98.5623C196.785 102.372 198.14 106.222 199.349 110.127C202.504 112.887 206.39 122.102 207.725 123.705C212.969 132.562 218.059 141.527 222.649 150.757C223.172 153.54 219.81 154.695 218.457 156.512C214.311 162.091 211.131 168.446 206.647 173.773C206.534 174.154 206.332 174.531 206.005 174.908C203.2 179.316 201.243 184.196 198.902 188.869C196.934 192.213 194.45 195.678 192.742 199.125C191.688 201.304 191.131 203.692 190.065 205.872C189.736 206.618 189.14 206.933 188.538 206.932C188.41 207.038 188.27 207.146 188.105 207.256L188.117 207.254Z" fill="#92A549"/>
<path fill-rule="evenodd" clip-rule="evenodd" d="M130.229 66.1874C132.396 63.5848 142.468 65.631 138.147 69.6777C139.953 71.598 139.07 75.0206 136.771 76.0072C132.451 77.1086 125.744 70.0942 130.229 66.1874ZM132.278 69.4356C132.779 70.8405 134.26 71.7444 135.479 72.4137C135.478 72.4007 135.5 72.372 135.511 72.3576C135.521 72.3303 135.532 72.3159 135.542 72.2885C134.626 71.126 132.278 70.974 132.575 69.0088C132.407 69.0928 132.297 69.2494 132.265 69.4369L132.278 69.4356Z" fill="#92A549"/>
<path fill-rule="evenodd" clip-rule="evenodd" d="M105.95 37.8658C108.914 33.4145 112.174 29.1677 113.888 23.9848C114.779 22.3231 115.22 19.3825 117.402 19.2502C119.398 19.401 119.478 21.759 118.256 22.9834C115.942 29.0863 112.795 34.6225 108.977 39.8373C107.788 41.9127 104.68 39.8973 105.95 37.8658ZM182.233 192.09C183.894 191.633 184.365 193.502 185.027 194.626C185.783 195.556 186.086 196.996 185 197.811C182.593 199.756 178.999 192.889 182.233 192.09ZM164.368 160.611C166.698 157.754 168.405 162.394 169.421 164.19C171.643 168.313 173.912 172.405 176.288 176.433C178.177 179.594 180.023 182.824 180.955 186.457C181.546 188.786 178.011 189.71 177.492 187.347C175.28 180.369 170.626 174.591 167.432 168.088C166.75 165.993 163.371 162.6 164.382 160.623L164.368 160.611ZM188.525 88.7028C190.386 87.0802 191.747 89.4566 191.923 91.2519C192.462 92.5344 193.005 94.3686 191.378 95.0454C189.492 95.7766 188.794 93.5122 188.423 92.0273C188.142 90.9404 187.56 89.6099 188.525 88.7028ZM171.319 58.0597C173.071 52.2415 178.069 62.0583 179.696 63.8141C181.193 66.4254 190.613 79.5214 186.641 81.2293C185.773 81.5867 184.637 81.1318 184.329 80.166C183.574 77.6975 182.457 75.3865 181.186 73.1582C178.817 68.8141 176.058 64.7097 173.01 60.8603C172.397 59.9803 171.298 59.2585 171.319 58.0597ZM100.721 48.0333C101.353 47.1757 101.534 46.0778 102.168 45.2462C103.192 44.1749 105.069 44.904 105.167 46.4186C105.17 47.7331 104.329 48.8766 103.735 49.993C102.532 52.0568 99.466 50.0764 100.708 48.0216L100.721 48.0333Z" fill="#A8BB60"/>
<path fill-rule="evenodd" clip-rule="evenodd" d="M193.157 184.761C192.091 186.56 189.865 187.144 187.963 187.193C186.017 187.169 185.227 185.124 184.509 183.546C175.003 164.187 165.708 144.162 151.885 127.732C144.167 117.935 136.544 107.575 126.346 100.52C122.188 97.3702 117.798 94.5478 113.683 91.3404C110.345 88.4956 103.437 85.3293 102.868 80.6578C102.416 78.6032 98.9418 78.2188 100.24 75.8423C99.8489 75.3063 99.7268 74.5701 100.181 73.8238C103.622 68.3477 108.223 63.7051 111.261 57.9442C112.552 55.5026 113.41 52.8584 114.44 50.3007C116.284 47.0891 117.357 43.5668 118.377 40.0109C120.186 34.2653 122.557 39.0168 125.71 37.7795C126.904 37.0316 128.458 36.3759 128.995 34.9369C129.39 34.105 130.273 33.6407 131.14 33.9145C131.353 34.036 131.528 34.1615 131.68 34.3028C133.088 34.0837 135.017 35.4647 136.313 35.8891C143.242 39.2766 148.806 44.9954 154.666 50.0245C160.262 55.1743 165.201 61.0531 169.86 67.1334C173.735 71.8789 176.438 77.462 179.219 82.9446C183.976 91.1837 187.25 100.176 191.243 108.814C195.793 119.442 199.32 130.76 206.331 139.99C208.027 142.067 209.493 144.103 208.93 146.952C209.013 149.204 210.003 151.384 209.684 153.641C209.431 155.536 208.027 156.832 206.976 158.275C205.001 160.909 203.222 163.759 201.783 166.742C199.999 170.315 197.617 173.533 196.098 177.249C194.862 179.618 194.403 182.364 193.179 184.732L193.157 184.761Z" fill="#F0F2C0"/>
<path fill-rule="evenodd" clip-rule="evenodd" d="M121.249 35.8984C121.948 35.9932 122.393 36.5628 122.752 37.1548C124.649 39.1178 127.537 38.501 129.115 36.4227C129.208 36.2154 129.314 36.0198 129.423 35.8501C129.613 35.2247 130.089 34.7126 130.885 34.6391C130.922 34.6351 130.96 34.631 130.997 34.627C131.476 34.5222 131.935 34.6037 132.298 34.8534C133.865 35.3535 135.23 36.6118 136.596 37.5018C138.225 33.4984 147.99 44.2164 150.01 45.64C158.611 52.3957 164.989 61.4444 170.959 70.6821C182.431 86.5395 188.739 105.392 196.344 123.405C199.059 129.368 201.9 135.331 205.773 140.563C207.963 142.955 208.388 146.274 209.592 149.22C210.043 150.762 211.24 152.354 210.649 154.009C210.334 154.635 209.914 154.957 209.449 155.074C203.364 163.02 197.801 171.567 193.794 180.879C193.533 181.42 193.41 182.077 193.273 182.737C193.423 182.852 193.561 182.981 193.686 183.112C195.092 185.05 192.099 187.532 190.667 185.584C189.914 185.456 189.142 185.645 188.722 186.348C187.33 188.156 184.702 186.036 185.804 184.22C185.722 184.15 185.628 184.082 185.543 183.986C184.868 183.244 184.917 182.068 185.611 181.348C186.793 180.089 188.651 179.847 190.206 180.362C192.366 174.223 196.044 168.853 199.197 163.25C201.377 159.765 203.899 156.427 206.341 153.177C206.278 153.052 206.216 152.927 206.167 152.814C205.495 151.454 205.355 149.892 204.803 148.479C204.075 147.191 203.041 146.107 202.278 144.849C197.392 136.952 194.137 127.643 190.377 119.203C188.662 115.393 186.982 111.552 185.304 107.725C185.263 109.491 185.095 111.232 184.648 112.95C181.005 128.296 164.327 137.593 151.981 126.394C148.477 122.765 145.689 117.848 145.506 112.635C145.357 111.626 145.266 110.571 145.249 109.494C144.523 99.62 151.49 90.1835 160.721 88.2452C163.085 87.6592 171.64 85.3475 169.606 90.4601C168.868 91.5134 167.747 90.9517 166.748 90.9947C164.388 91.1069 162.085 91.6732 159.823 92.4058C155.323 93.8424 151.702 97.4842 149.963 102.026C150.987 103.65 149.169 108.279 149.087 112.311C150.197 118.278 153.986 123.677 159.775 125.282C163.502 125.942 167.82 126.615 171.278 124.648C175.54 121.541 178.194 116.611 179.24 111.396C179.686 109.414 179.863 107.37 179.652 105.342C179.5 103.912 180.709 103.189 181.753 103.351C181.842 102.724 182.011 102.14 182.338 101.631C182.406 101.558 182.475 101.498 182.557 101.436C180.689 97.2085 178.783 92.9849 176.795 88.8097C170.729 76.6635 162.425 65.4971 152.84 56.2452C147.834 51.6096 142.981 46.747 137.507 42.7146C135.66 41.4036 133.908 39.8982 131.93 38.7855C125.538 47.1862 114.555 36.9689 121.299 35.893L121.249 35.8984ZM99.8002 73.392C103.284 72.1976 106.045 77.6035 107.16 80.4142C107.792 82.265 108.51 86.276 105.603 86.0533C105.144 85.9719 104.729 85.7015 104.464 85.3095C103.917 84.5803 104.267 83.6743 104.098 82.8381C103.653 80.5987 102.43 78.4834 100.745 77.0233C98.8307 77.2053 98.1325 74.2966 99.8126 73.3906L99.8002 73.392ZM178.771 151.142C179.293 159.053 189.226 160.062 191.311 152.512C192.001 150.201 188.544 149.105 187.905 151.423C184.528 158.838 178.932 148.547 184.793 145.884C186.849 146.647 188.051 143.413 186.204 142.352C181.917 140.846 177.916 147.014 178.784 151.14L178.771 151.142ZM127.793 72.5671C127.796 72.3432 127.811 72.118 127.852 71.8901C128.33 69.984 128.934 67.8146 130.986 67.2494C132.593 68.2972 134.489 66.1317 133.356 64.5458C131.497 62.2105 128.075 64.1608 126.509 65.9749C125.149 67.7269 124.512 70.0578 124.188 72.2626C124.222 81.7257 137.884 84.696 140.461 75.1326C140.649 74.0998 140.648 73.0611 140.596 72.0149C140.526 70.4052 138.355 69.7475 137.439 71.0306C136.782 71.8779 137.169 73.019 137.027 74.0075C137.015 74.1403 136.99 74.2614 136.964 74.3825C136.826 74.3844 136.678 74.4136 136.518 74.4442C134.287 74.8449 131.683 75.5359 129.713 73.9885C129.524 73.0886 128.655 72.5389 127.804 72.5527L127.793 72.5671Z" fill="#D6D89B"/>
<path fill-rule="evenodd" clip-rule="evenodd" d="M128.215 67.2618C130.248 62.2676 137.153 64.2509 139.211 68.2475C140.205 70.4535 140.807 74.3061 138.522 75.8302C134.358 77.7561 126.813 72.1741 128.215 67.2618Z" fill="#92A549"/>
<path fill-rule="evenodd" clip-rule="evenodd" d="M182.623 144.99C187.603 140.372 194.633 150.572 189.155 154.324C184.436 157.507 179.272 148.826 182.623 144.99Z" fill="#92A549"/>
<path fill-rule="evenodd" clip-rule="evenodd" d="M175.168 121.581C166.55 130.054 149.081 126.761 148.234 112.956C147.254 105.239 149.547 98.1523 155.849 93.7059C160.915 89.8411 167.602 87.5485 173.702 89.8955C175.149 90.4481 176.816 90.9503 177.317 92.4867C180.816 95.0511 182.801 99.6999 182.295 104.147C181.818 110.562 179.949 117.235 175.169 121.594L175.168 121.581Z" fill="#92A549"/>
<path fill-rule="evenodd" clip-rule="evenodd" d="M153.074 105.237C154.643 94.6001 171.109 88.6529 176.901 98.5018C177.133 101.395 174.173 101.389 173.068 99.1951C168.44 95.2283 160.666 97.8233 157.718 102.825C157.174 103.936 156.774 105.11 156.478 106.313C155.851 108.629 152.358 107.537 153.072 105.224L153.074 105.237ZM181.685 147.59C182.659 145.236 186.166 142.224 188.293 144.741C189.332 146.127 187.857 148.233 186.303 147.613C184.902 148.292 184.554 151.025 182.567 150.071C181.698 149.653 181.248 148.505 181.686 147.603L181.685 147.59ZM128.555 70.1042C130.618 63.1082 139.916 63.1349 136.573 67.956C136.088 68.377 135.468 68.3261 134.897 68.2568C133.549 68.5876 132.431 69.8532 131.96 71.193C131.296 73.5137 127.851 72.4029 128.555 70.1042ZM154.406 112.324C156.453 112.219 156.725 115.003 158.099 116.103C159.711 117.834 157.094 120.446 155.517 118.685C154.174 117.135 150.948 113.265 154.406 112.324ZM153.281 115.444C153.45 115.636 153.654 115.798 153.889 115.891C153.665 115.783 153.45 115.636 153.281 115.444Z" fill="#798B35"/>
<path fill-rule="evenodd" clip-rule="evenodd" d="M78.9582 87.9541C79.2138 87.3609 79.9579 87.017 80.5285 87.3362C84.3532 89.3786 88.3782 91.0311 92.5384 92.1429C112.869 96.6093 118.597 109.529 132.323 123.037C142.436 132.955 153.896 142.015 160.574 155.029C164.983 163.056 168.207 172.04 173.168 179.679C178.816 188.57 183.337 198.123 188.109 207.544C191.446 200.107 195.37 193.027 199.61 186.096C203.658 178.095 207.568 170.228 212.283 162.641C221.227 148.65 226.457 157.377 215.6 139.717C208.325 127.4 201.115 114.97 195.48 101.725C190.978 89.9217 187.342 77.6161 180.78 66.8123C169.475 48.6883 153.719 33.7838 135.103 24.3973C130.834 22.0482 126.433 20.0159 121.97 18.1088C120.506 16.9927 116.095 16.6576 116.793 14.4253C117.06 13.8177 117.784 13.5285 118.363 13.8073C141.65 23.3691 161.78 35.9173 177.061 57.1322C188.045 70.6892 192.474 88.0363 199.091 104.015C204.072 115.201 210.248 125.77 216.358 136.308C218.998 141.372 223.087 145.989 224.368 151.661C224.016 155.631 217.295 158.348 215.354 162.359C208.249 173.217 203.328 185.376 196.397 196.347C195.069 198.674 193.788 200.97 192.71 203.414C191.49 205.69 190.033 212.344 186.739 209.836C185.045 207.26 183.854 204.313 182.395 201.579C178.326 192.673 173.167 184.412 168.234 176.034C163.91 168.116 160.813 159.526 155.989 151.886C147.642 138.857 134.927 130.051 124.744 118.773C113.431 104.924 106.802 97.8087 89.1591 93.7598C87.0152 92.7441 77.9506 90.3516 78.9608 87.9801L78.9582 87.9541Z" fill="#542122"/>
<path fill-rule="evenodd" clip-rule="evenodd" d="M79.2485 86.3054C81.8273 83.1715 83.3182 79.3013 84.7918 75.512C87.6516 68.1926 90.5473 60.8561 94.236 53.933C101.854 40.4944 109.57 27.032 116.527 13.2447C117.009 12.7847 117.765 12.8207 118.203 13.3252C119.216 14.5824 116.692 17.1187 116.376 18.6388C109.227 33.9197 99.4758 47.7351 92.458 63.0806C89.2225 70.0201 87.0148 77.4658 83.5269 84.2619C82.4387 85.5769 81.409 89.1601 79.3803 88.0398C78.8728 87.5954 78.8213 86.8121 79.2335 86.2807L79.2485 86.3054Z" fill="#542122"/>
<path fill-rule="evenodd" clip-rule="evenodd" d="M95.2878 17.713C96.0262 17.5669 96.4051 18.2356 96.8853 18.6567C100.731 21.683 105.155 24.2124 109.859 25.3702C111.351 25.7469 110.762 28.1909 109.268 27.7882C107.245 27.7585 90.2268 20.0915 95.2878 17.713Z" fill="#542122"/>
<path fill-rule="evenodd" clip-rule="evenodd" d="M62.4088 93.0431C64.2478 86.7026 65.2518 80.0322 67.5058 73.8306C69.946 67.6088 73.6428 62.0522 76.5603 56.094C79.7732 46.8691 83.8222 37.8555 88.421 29.3344C90.0687 25.6576 91.3807 21.7543 93.4933 18.3425C94.6077 17.0378 96.5414 18.9837 95.1846 20.1175C91.9968 26.7757 89.1893 33.603 85.6187 40.0662C82.5118 46.2686 80.6501 53.0191 77.6712 59.247C74.5265 65.1905 70.8748 70.9526 68.7443 77.3905C67.4712 82.5913 66.4168 87.8471 64.8084 92.9528C82.2798 101.662 101.175 108.638 115.873 122.343C127.31 133.221 135.665 146.972 144.03 160.433C152.709 173.767 161.171 187.454 166.846 202.522C169.139 200.314 172.963 186.946 175.966 188.539C177.24 189.636 175.601 190.972 175.05 192.005C172.634 196.028 171.309 200.445 168.594 204.238C166.237 208.229 164.78 204.233 163.976 201.651C163.114 199.378 162.096 197.175 161.065 194.973C157.683 187.189 153.294 180.015 149.058 172.731C132.369 146.739 120.248 122.445 91.6814 108.659C85.2514 105.756 79.0868 102.233 72.6828 99.3404C69.7686 97.5013 63.1536 96.8145 62.4212 93.0417L62.4088 93.0431Z" fill="#542122"/>
<path fill-rule="evenodd" clip-rule="evenodd" d="M119.913 35.0577C122.451 32.7959 123.582 40.6409 128.968 33.2437C129.118 30.1637 133.194 32.2051 130.541 35.2287C128.486 38.069 124.718 40.3331 121.574 37.9404C120.731 37.2696 119.049 36.3613 119.911 35.0447L119.913 35.0577Z" fill="#542122"/>
<path fill-rule="evenodd" clip-rule="evenodd" d="M97.8852 75.7436C99.9088 71.9338 103.028 68.8068 104.82 64.8118C109.064 56.0006 113.783 47.4269 117.683 38.4297C118.077 37.4533 118.457 36.4652 118.903 35.5094C119.63 34.0892 121.745 35.3185 120.979 36.7298C118.175 43.8459 114.499 50.5178 111.26 57.4183C107.95 63.7217 105.037 70.2448 100.574 75.7927C102.63 77.1862 104.862 79.2312 104.991 81.9651C105.047 83.3133 104.428 86.0892 102.669 85.2945C101.738 84.7516 102.1 83.6998 102.514 82.9316C103.533 79.1128 97.4228 78.2001 97.8852 75.7436Z" fill="#542122"/>
<path fill-rule="evenodd" clip-rule="evenodd" d="M103.516 83.4401C112.605 87.4867 120.676 94.3525 128.307 100.938C137.801 109.779 146.946 119.157 154.656 129.77C162.561 140.704 169.608 152.231 175.793 164.312C179.095 169.987 183.205 175.207 185.735 181.335C186.79 183.915 187.689 186.565 188.404 189.262C188.605 189.911 188.211 190.624 187.602 190.809C185.481 191.184 185.715 187.162 184.887 185.871C182.317 177.67 176.794 171.092 172.667 163.771C163.825 146.326 152.999 129.754 139.709 115.698C131.852 107.31 123.52 99.3156 114.231 92.7006C111.601 90.9489 108.948 89.2128 106.275 87.5315C105.172 86.5207 103.059 86.33 102.514 84.8641C102.425 84.2033 102.872 83.5234 103.516 83.4401Z" fill="#542122"/>
<path fill-rule="evenodd" clip-rule="evenodd" d="M129.62 32.9883C130.117 29.0948 144.336 40.5903 146.217 41.6084C164.467 54.5585 177.457 73.7613 186.825 94.4101C191.949 106.409 196.211 118.831 201.755 130.639C203.967 135.053 206.423 139.388 209.722 142.986C210.885 145.253 209.98 148.191 211.518 150.325C214.389 154.798 205.137 162.682 203.458 167.072C200.935 171.291 198.374 175.502 196.211 179.944C194.827 182.081 194.951 187.458 192.375 187.922C188.388 187.304 188.527 190.392 186.721 189.366C184.807 186.721 189.979 185.093 191.883 185.452C193.985 177.058 199.029 170.013 203.282 162.7C204.615 160.293 210.728 154.053 209.471 151.586C208.055 149.545 208.249 146.776 207.798 144.471C203.718 139.945 200.829 134.382 198.251 128.799C193.49 117.944 189.413 106.777 184.858 95.847C177.956 81.0569 169.648 66.6302 158.275 55.1273C152.272 49.2723 145.63 43.9469 138.722 39.3606C136.332 37.7537 133.91 36.2028 131.362 34.9024C130.547 34.5178 129.338 34.2154 129.647 33.0116L129.62 32.9883Z" fill="#542122"/>
<path fill-rule="evenodd" clip-rule="evenodd" d="M147.631 112.167C147.292 106.905 147.977 101.334 150.827 96.8693C154.457 91.7802 159.99 87.5621 166.157 86.9961C181.619 85.4182 187.892 103.012 180.374 115.545C176.975 122.871 169.964 128.012 162.032 127.074C153.088 127.193 147.951 121.349 147.631 112.167ZM150.406 115.021C151.344 124.622 162.051 126.112 169.285 123.629C173.92 121.902 176.91 117.329 179.011 112.893C182.662 105.974 181.932 96.5735 175.573 91.7039C168.141 86.7669 159.133 90.3377 153.701 97.0166C149.818 101.949 149.36 108.941 150.406 115.021Z" fill="#542122"/>
<path fill-rule="evenodd" clip-rule="evenodd" d="M126.892 69.6404C126.242 64.0178 132.601 61.4454 136.804 63.7623C139.35 65.2996 141.867 68.2076 141.847 71.4705C141.164 82.0636 127.217 78.3618 126.892 69.6404ZM129.261 69.5008C129.425 73.0988 133.344 76.104 136.674 75.3996C138.656 75.0129 139.704 72.519 139.403 70.5926C139.046 68.6067 137.261 67.5387 136.112 66.178C133.445 64.5618 128.773 65.5305 129.261 69.5008Z" fill="#542122"/>
<path fill-rule="evenodd" clip-rule="evenodd" d="M180.694 148.487C180.146 138.383 192.642 141.743 192.406 149.855C191.864 158.947 181.349 155.568 180.694 148.487ZM183.078 148.49C183.423 150.74 185.649 152.852 187.821 152.997C190.339 152.578 190.525 148.837 189.208 147.034C188.71 147.075 188.226 146.746 188.014 146.244C185.864 143.243 182.585 144.731 183.079 148.503L183.078 148.49Z" fill="#542122"/>
<path fill-rule="evenodd" clip-rule="evenodd" d="M79.3717 77.2984C82.505 68.5423 87.1495 60.4896 90.2345 51.7519C92.0536 47.0046 93.8141 42.1716 96.3578 37.7792C98.6077 33.5898 100.371 33.2795 104.566 34.3612C107.146 34.58 105.763 37.6233 103.539 36.8135C100.684 35.8357 100.064 36.1662 98.5217 38.8716C95.1246 44.6717 93.1408 51.1989 90.6659 57.4508C87.6655 64.6146 83.5051 71.5891 81.5683 79.1104C81.5796 80.2531 82.8149 80.8287 82.944 81.8928C81.5094 85.954 78.1932 79.3595 79.3853 77.31L79.3717 77.2984Z" fill="#542122"/>
<path fill-rule="evenodd" clip-rule="evenodd" d="M93.8242 95.2901C94.6327 91.6257 98.9916 97.0812 100.544 97.8195C108.354 103.938 116.2 110.158 122.753 117.781C129.609 125.436 137.873 131.571 144.068 139.903C152.617 151.135 157.84 164.662 165.143 176.752C166.118 176.212 166.871 175.315 167.632 174.496C168.668 173.292 170.434 175.059 169.355 176.215C165.906 180.325 163.741 180.376 161.492 175.204C158.394 169.821 155.639 164.218 152.683 158.741C148.55 150.723 144.059 142.889 137.937 136.337C132.863 130.618 126.804 125.991 121.74 120.258C115.54 113.03 108.286 106.956 100.859 101.177C98.8236 99.5977 96.8223 97.9879 94.7419 96.4656C94.2276 96.3375 93.8292 95.855 93.8242 95.2901Z" fill="#542122"/>
<path fill-rule="evenodd" clip-rule="evenodd" d="M114.972 136.102C117.676 133.862 125.099 145.9 127.026 148.03C128.094 149.978 135.16 157.979 132.814 159.51C132.256 159.834 131.507 159.613 131.197 159.015C128.186 153.098 123.947 147.971 119.998 142.734C118.543 140.933 116.912 139.27 115.13 137.847C114.614 137.443 114.557 136.607 114.958 136.09L114.972 136.102Z" fill="#542122"/>
<path fill-rule="evenodd" clip-rule="evenodd" d="M137.404 167.465C139.696 166.4 140.167 170.583 141.074 172.035C141.646 173.525 139.404 174.452 138.855 172.947C138.611 171.344 135.994 168.696 137.404 167.465Z" fill="#542122"/>
<path fill-rule="evenodd" clip-rule="evenodd" d="M137.303 47.9437C138.305 44.0742 152.532 56.4234 153.831 58.2937C154.638 59.2315 155.412 60.2254 156.138 61.2377C157.054 62.5186 155.118 64.0179 154.225 62.7082C153.079 61.1236 151.842 59.6279 150.477 58.2382C147.41 55.4821 144.149 52.9181 140.654 50.7871C139.611 49.862 136.923 49.8259 137.303 47.9437Z" fill="#542222"/>
<path fill-rule="evenodd" clip-rule="evenodd" d="M158.68 66.8382C159.587 65.4641 160.973 66.8122 161.617 67.7545C162.261 68.6968 163.768 70.1238 162.528 71.1791C161.057 72.1676 160.414 69.9498 159.59 69.0927C158.992 68.4873 158.085 67.8102 158.68 66.8382Z" fill="#542222"/>
<path fill-rule="evenodd" clip-rule="evenodd" d="M139.52 57.0247C140.767 53.8649 147.692 60.9345 148.768 62.4477C149.847 63.6057 148.074 65.3632 147.041 64.1609C145.929 62.7961 144.735 61.4798 143.352 60.4207C142.355 59.3327 139.006 58.6979 139.519 57.0117L139.52 57.0247Z" fill="#542222"/>
<path fill-rule="evenodd" clip-rule="evenodd" d="M191.511 126.061C191.893 125.086 193.375 125.109 193.7 126.126C193.898 126.735 194.131 127.328 194.352 127.922C195.163 130.055 196.011 132.185 196.918 134.282C197.792 136.291 198.88 138.184 200.262 139.875C200.919 140.947 202.965 142.118 201.782 143.496C200.159 145.369 196.332 138.422 195.588 137.096C194.444 134.762 193.491 132.328 192.538 129.894C192.216 128.654 191.188 127.372 191.499 126.063L191.511 126.061Z" fill="#542222"/>
<path fill-rule="evenodd" clip-rule="evenodd" d="M156.764 103.968C158.875 97.979 164.546 95.1659 170.357 96.7423C171.775 97.2586 175.265 97.6676 174.418 99.9161C173.661 101.156 172.5 100.059 171.576 99.7127C166.392 97.621 160.902 99.2047 158.921 104.995C158.3 106.47 156.104 105.433 156.751 103.969L156.764 103.968Z" fill="#542222"/>
<path fill-rule="evenodd" clip-rule="evenodd" d="M173.235 103.214C174.236 101.001 176.36 103.478 176.46 105.019C176.892 109.442 173.283 109.48 173.819 106.871C174.869 104.916 172.972 104.754 173.235 103.214Z" fill="#542222"/>
<path fill-rule="evenodd" clip-rule="evenodd" d="M114.818 81.3819C115.126 79.9151 114.901 76.074 117.229 77.0434C118.508 78.1927 117.004 80.2629 117.167 81.7968C116.934 83.3998 114.558 82.9616 114.818 81.3819Z" fill="#542222"/>
<path fill-rule="evenodd" clip-rule="evenodd" d="M119.718 83.7678C119.966 82.2024 121.515 79.6934 122.64 82.0954C122.528 83.2646 122.04 85.7108 120.497 85.3265C119.888 85.1298 119.504 84.409 119.705 83.7692L119.718 83.7678Z" fill="#542222"/>
<path fill-rule="evenodd" clip-rule="evenodd" d="M124.686 88.7882C125.039 87.5139 125.744 84.7154 127.428 86.1625C128.281 87.1873 127.109 88.4193 126.966 89.5261C126.528 91.0728 124.234 90.3232 124.688 88.8012L124.686 88.7882Z" fill="#542222"/>
<path fill-rule="evenodd" clip-rule="evenodd" d="M128.596 92.8594C128.853 91.7664 129.952 90.5555 130.945 91.6045C131.628 92.3059 131.06 93.1697 130.754 93.8868C130.133 95.3613 127.935 94.3119 128.596 92.8594ZM128.971 92.8449C128.971 92.8449 128.976 92.8969 128.979 92.9229C129.013 93.0113 129.045 93.0867 129.102 93.1593C129.042 93.0606 128.995 92.9606 128.959 92.8462L128.971 92.8449Z" fill="#542222"/>
<path d="M212.68 211.838C149.588 234.965 76.5432 253.543 77.5312 262.186L77.1145 271.768L77.1011 272.077C70.4083 272.283 64.467 271.742 59.7578 269.974C55.2984 268.305 52.1237 264.319 51.3808 259.611C44.9455 218.817 36.6629 179.904 26.7648 142.628C24.1231 132.66 28.015 122.103 36.5379 116.31C70.5275 93.2001 124.589 75.3017 182.396 63.1187C193.798 60.7188 205.199 67.152 209.048 78.157C216.209 98.6186 223.075 121.019 229.733 144.761C231.8 152.114 233.845 159.597 235.872 167.192C240.846 185.839 230.781 205.202 212.678 211.838H212.68Z" fill="#B76042"/>
<g opacity="0.4">
<path d="M53.9599 264.342C47.5246 223.548 39.242 184.635 29.3439 147.359C26.7023 137.391 30.5942 126.834 39.1171 121.041C73.1066 97.9312 127.168 80.0328 184.975 67.8498C194.213 65.9062 203.449 69.76 208.67 77.146C204.493 66.7625 193.446 60.7951 182.399 63.1196C124.591 75.3026 70.5308 93.201 36.5403 116.311C28.0174 122.103 24.1245 132.661 26.7671 142.629C36.6652 179.905 44.9478 218.818 51.3831 259.612C51.7722 262.075 52.8308 264.335 54.3853 266.175C54.2031 265.579 54.0591 264.967 53.9599 264.342Z" fill="white"/>
</g>
<path d="M212.68 211.838C149.589 234.965 76.5436 253.543 77.5316 262.186L77.1148 271.768L76.5092 270.955C74.002 270.734 71.4519 270.895 68.9238 270.935C63.4545 271.021 62.4331 270.572 61.4737 270.186C58.9351 269.166 55.643 266.688 55.1929 263.478C54.656 259.65 58.3619 256.227 59.7123 254.981C73.2868 242.446 161.856 217.379 199.302 204.12C211.399 199.836 224.472 194.16 229.885 182.519C235.698 170.01 230.547 155.397 225.383 142.608C226.908 143.18 228.36 143.906 229.735 144.763C231.801 152.116 233.846 159.598 235.873 167.194C240.848 185.84 230.783 205.204 212.679 211.84L212.68 211.838Z" fill="#A34F38"/>
<path d="M74.4921 274.269C68.1712 274.269 63.0853 273.519 59.0046 271.989C53.8634 270.063 50.1298 265.449 49.262 259.947C43.0107 220.337 34.7443 181.05 24.6917 143.178C21.8107 132.327 26.0869 120.814 35.3308 114.529C75.174 87.4427 137.057 70.477 181.955 61.0156C194.365 58.3999 206.886 65.4642 211.079 77.4467C219.781 102.317 228.57 131.492 237.949 166.638C240.494 176.175 239.388 186.251 234.837 195.011C230.286 203.769 222.678 210.462 213.418 213.857C190.821 222.141 166.842 229.877 145.687 236.701C127.104 242.696 111.056 247.873 99.0538 252.374C82.3427 258.64 79.9862 261.325 79.6782 262.07C79.7402 263.198 78.9133 264.193 77.7775 264.323C76.595 264.455 75.5335 263.611 75.3991 262.431C74.6295 255.693 91.6171 249.625 144.37 232.608C165.488 225.796 189.424 218.074 211.942 209.819C229.122 203.521 238.52 185.434 233.799 167.747C224.449 132.708 215.691 103.635 207.025 78.8682C203.543 68.9171 193.149 63.0528 182.841 65.2236C138.321 74.6058 77.0098 91.3939 37.7455 118.087C30.0094 123.347 26.4322 132.986 28.8449 142.074C38.9357 180.089 47.2326 219.521 53.5058 259.276C54.1333 263.251 56.8169 266.578 60.5114 267.963C64.6198 269.502 70.0252 270.145 77.0375 269.929C78.2133 269.896 79.2147 270.826 79.2509 272.012C79.2872 273.199 78.3564 274.191 77.17 274.228C76.2545 274.257 75.3619 274.27 74.494 274.27L74.4921 274.269Z" fill="#650000"/>
<path d="M257.715 172.155C255.262 173.652 252.448 174.808 249.33 175.677C247.779 169.854 246.357 164.53 245.038 159.593C241.67 156.329 238.405 153.521 235.342 151.585C233.13 150.188 230.432 149.754 227.885 150.347C217.183 152.828 207.565 157.774 194.814 158.549C183.851 159.421 175.564 153.092 170.761 144.284C167.29 137.925 165.631 130.266 166.091 123.093C166.684 113.842 172.118 105.568 180.323 101.276C189.096 96.6874 197.67 92.9768 205.927 90.7105C210.472 89.4637 215.314 89.7683 219.64 91.6393C226.299 94.5204 232.893 98.0726 239.428 102.253C244.119 105.254 247.873 109.512 250.37 114.496C256.346 126.404 260.633 138.161 262.815 148.688C263.584 152.386 264.095 155.934 264.328 159.28C264.688 164.475 262.154 169.437 257.716 172.155H257.715Z" fill="#B76042"/>
<g opacity="0.4">
<path d="M264.327 159.279C264.095 155.933 263.584 152.385 262.814 148.687C260.632 138.159 256.345 126.402 250.369 114.495C247.873 109.511 244.119 105.253 239.427 102.252C232.892 98.0716 226.299 94.5204 219.639 91.6383C215.313 89.7682 210.472 89.4627 205.926 90.7095C197.67 92.9758 189.094 96.6874 180.322 101.275C172.117 105.567 166.682 113.841 166.09 123.092C165.991 124.644 165.996 126.219 166.092 127.798C166.693 118.558 172.125 110.294 180.322 106.006C189.095 101.418 197.67 97.7069 205.926 95.4406C205.928 95.4406 205.93 95.4397 205.932 95.4387C206.361 95.3213 206.812 95.3108 207.249 95.3967C208.951 95.7299 210.559 96.5604 211.777 97.7995C213.108 99.1541 213.952 100.902 214.773 102.617C217.64 108.605 220.508 114.594 223.375 120.583C221.783 115.388 220.191 110.194 218.6 104.998C218.167 103.586 217.841 102.138 217.697 100.667C217.607 99.7412 217.64 98.7742 218.129 97.9943C218.179 97.9131 218.234 97.8348 218.293 97.7613C219 96.8716 220.265 96.6435 221.299 97.1093C227.394 99.852 233.436 103.152 239.427 106.984C244.118 109.985 247.872 114.243 250.369 119.227C256.345 131.135 260.632 142.893 262.814 153.419C263.461 156.528 263.923 159.527 264.191 162.392C264.348 161.375 264.399 160.333 264.326 159.281L264.327 159.279Z" fill="white"/>
</g>
<path d="M257.286 172.155C254.833 173.652 252.019 174.808 248.9 175.677C247.35 169.854 245.928 164.53 244.609 159.593C241.241 156.329 237.976 153.52 234.913 151.585C232.701 150.188 230.003 149.753 227.455 150.347C216.754 152.828 207.136 157.774 194.385 158.549C183.422 159.421 175.134 153.092 170.332 144.284C170.606 143.738 170.925 143.213 171.277 142.71L171.534 142.779C172.62 145.454 175.204 150.642 180.638 153.388C186.645 156.423 192.848 154.81 199.97 152.958C209.938 150.365 219.429 145.19 220.161 144.787C222.892 143.281 226.609 141.039 232.189 140.057C235.695 139.441 237.448 139.132 239.63 139.778C244.209 141.131 245.487 143.978 252.341 151.887C254.197 154.028 256.741 156.502 259.417 155.568C260.826 155.074 261.775 153.693 262.157 152.244C262.458 151.087 262.454 149.883 262.385 148.688C263.154 152.386 263.665 155.934 263.898 159.28C264.258 164.475 261.724 169.437 257.286 172.155Z" fill="#A34F38"/>
<path d="M248.9 177.826C248.529 177.826 248.162 177.73 247.834 177.543C247.336 177.258 246.973 176.786 246.825 176.231L242.686 160.728C239.223 157.406 236.301 155.008 233.766 153.407C232.061 152.33 229.933 151.979 227.937 152.443C224.263 153.295 220.757 154.433 217.043 155.638C210.164 157.87 203.051 160.178 194.513 160.696C186.902 161.3 179.903 158.708 174.308 153.192C166.922 145.909 162.786 134.323 163.516 122.954C164.151 113.041 170.045 104.006 178.898 99.3727C188.596 94.2969 197.112 90.7848 204.929 88.6369C209.956 87.2555 215.329 87.6212 220.061 89.666C226.721 92.5452 233.481 96.1699 240.153 100.441C245.106 103.611 249.154 108.137 251.86 113.53C260.105 129.961 265.14 146.155 266.04 159.131C266.457 165.158 263.531 170.853 258.404 173.99C255.869 175.541 252.865 176.805 249.475 177.749C249.287 177.801 249.093 177.827 248.9 177.827V177.826ZM236.059 149.77C238.95 151.596 242.235 154.304 246.101 158.049C246.381 158.32 246.582 158.663 246.682 159.039L250.399 172.964C252.557 172.23 254.489 171.344 256.162 170.319C259.918 168.021 262.06 163.848 261.754 159.427C260.893 147.007 256.016 131.392 248.021 115.458C245.662 110.757 242.141 106.816 237.839 104.063C231.361 99.9168 224.806 96.4009 218.356 93.6124C214.519 91.9533 210.153 91.6583 206.065 92.7819C198.547 94.8477 190.311 98.2491 180.887 103.182C173.356 107.122 168.341 114.803 167.802 123.227C167.161 133.233 170.898 143.792 177.322 150.126C182.001 154.739 187.846 156.908 194.211 156.404C202.243 155.917 209.092 153.694 215.717 151.545C219.352 150.365 223.112 149.145 226.965 148.252C230.074 147.531 233.389 148.083 236.057 149.769L236.059 149.77Z" fill="#650000"/>
<path d="M244.776 156.783C247.626 159.281 249.659 162.572 251.521 165.858L241.879 159.959C240.864 159.338 240.543 158.01 241.164 156.993C241.83 155.884 243.365 155.623 244.363 156.444L244.776 156.783Z" fill="#650000"/>
<g opacity="0.25">
<path d="M71.949 166.599L55.5287 174.421C52.2863 175.966 48.7263 174.06 47.6314 170.194L40.9014 146.431C39.8324 142.655 41.5204 138.424 44.6922 136.932L61.0228 129.247C64.2472 127.729 67.7786 129.615 68.8839 133.446L75.7035 157.072C76.7917 160.843 75.1189 165.089 71.949 166.599Z" fill="white"/>
</g>
<g opacity="0.25">
<path d="M80.8149 189.278L60.212 198.65C58.0862 199.617 55.7812 198.355 55.0669 195.835L53.8987 191.712C53.1997 189.245 54.2868 186.477 56.3506 185.472L76.7666 175.525C78.9019 174.484 81.2613 175.723 81.9965 178.271L83.3517 182.97C84.0774 185.484 82.9397 188.311 80.8149 189.278Z" fill="white"/>
</g>
<g opacity="0.3">
<path d="M69.2563 249.306C74.6674 246.825 80.3093 244.842 85.8911 242.779C91.4509 240.723 96.9583 238.528 102.537 236.522C113.715 232.505 125.03 228.874 136.348 225.277C148.046 221.559 159.757 217.88 171.447 214.139C183.123 210.401 194.766 206.539 206.232 202.189C211.218 200.297 216.279 198.317 220.542 195.03C221.599 194.216 222.601 193.341 223.522 192.372C224.466 191.378 225.078 190.217 225.803 189.066C227.235 186.798 228.414 184.391 229.484 181.933C230.005 180.736 230.465 179.532 230.875 178.293C231.039 177.799 230.28 177.477 230.036 177.938C228.781 180.309 227.594 182.694 226.221 185C225.555 186.116 224.781 187.149 223.946 188.145C223.533 188.639 223.044 189.035 222.562 189.462C222.048 189.916 221.605 190.45 221.113 190.931C217.381 194.576 212.517 196.753 207.718 198.599C196.422 202.946 184.899 206.707 173.38 210.408C161.811 214.125 150.216 217.758 138.632 221.425C127.403 224.981 116.187 228.573 105.093 232.535C99.5523 234.513 94.0335 236.565 88.589 238.801C83.1407 241.038 77.9318 243.713 72.7229 246.448C71.4116 247.137 70.0755 247.777 68.7527 248.445C68.1748 248.737 68.6812 249.57 69.2544 249.307L69.2563 249.306Z" fill="white"/>
</g>
<path d="M193.964 142.216C200.485 141.899 205.486 135.768 205.134 128.522C204.783 121.277 199.212 115.66 192.691 115.977C186.17 116.294 181.169 122.425 181.521 129.67C181.872 136.916 187.443 142.532 193.964 142.216Z" fill="#A34F38"/>
<path d="M192.236 138.337C198.167 138.337 202.976 133.524 202.976 127.586C202.976 121.648 198.167 116.835 192.236 116.835C186.304 116.835 181.496 121.648 181.496 127.586C181.496 133.524 186.304 138.337 192.236 138.337Z" fill="#FEDA24"/>
<path d="M197.432 118.176C198.623 119.323 199.528 120.799 199.993 122.513C201.353 127.54 198.402 132.715 193.4 134.072C188.399 135.427 183.242 132.452 181.882 127.424C181.755 126.953 181.665 126.483 181.612 126.013C181.537 126.526 181.497 127.051 181.497 127.586C181.497 133.524 186.305 138.337 192.237 138.337C198.169 138.337 202.977 133.524 202.977 127.586C202.977 123.536 200.739 120.01 197.433 118.177L197.432 118.176Z" fill="#EA9F1B"/>
<path d="M192.236 140.056C185.366 140.056 179.778 134.462 179.778 127.585C179.778 120.708 185.366 115.114 192.236 115.114C199.105 115.114 204.693 120.709 204.693 127.585C204.693 134.461 199.105 140.056 192.236 140.056ZM192.236 118.555C187.261 118.555 183.214 122.607 183.214 127.586C183.214 132.565 187.261 136.617 192.236 136.617C197.21 136.617 201.257 132.565 201.257 127.586C201.257 122.607 197.21 118.555 192.236 118.555Z" fill="#650000"/>
</svg>
